<?xml version="1.0" encoding="utf-8"?>
<svg version="1.1" xmlns:xlink="http://www.w3.org/1999/xlink" width="27px" height="28px" xmlns="http://www.w3.org/2000/svg">
  <g transform="matrix(1 0 0 1 -249 -713 )">
    <path d="M 1.5248876953125 15.973763671875  C 0.5095166015625 18.364275390625  0.344677734375 20.6448642578125  1.1598203125 21.07090234375  C 1.72205859375 21.36443359375  2.603439453125 20.696056640625  3.428390625 19.4691650390625  C 3.7550712890625 20.80594921875  4.5634326171875 22.01628125  5.7180615234375 22.9872412109375  C 4.5070029296875 23.4343193359375  3.715927734375 24.1644541015625  3.715927734375 24.9923115234375  C 3.715927734375 26.3532236328125  5.8565322265625 27.4536025390625  8.49846484375 27.4536025390625  C 10.88146875 27.4536025390625  12.8550244140625 26.5593857421875  13.2193046875 25.38377734375  C 13.3171484375 25.3822939453125  13.6934775390625 25.3822939453125  13.78832421875 25.38377734375  C 14.1541181640625 26.55790234375  16.1291875 27.4536025390625  18.5106474609375 27.4536025390625  C 21.15251953125 27.4536025390625  23.2931845703125 26.3517099609375  23.2931845703125 24.9923115234375  C 23.2931845703125 24.1659375  22.502896484375 23.4343193359375  21.29105078125 22.9872412109375  C 22.4441357421875 22.014767578125  23.2554638671875 20.80594921875  23.5806611328125 19.4691650390625  C 24.405642578125 20.696056640625  25.2847529296875 21.36443359375  25.847748046875 21.07090234375  C 26.6636171875 20.6448642578125  26.5025927734375 18.36276171875  25.483498046875 15.973763671875  C 24.6856416015625 14.0950546875  23.60321484375 12.7116796875  22.7753271484375 12.406099609375  C 22.7873759765625 12.2871552734375  22.7933701171875 12.16518359375  22.7933701171875 12.0447861328125  C 22.7933701171875 11.3191923828125  22.59171875 10.6477880859375  22.24696484375 10.1013525390625  C 22.2529892578125 10.059181640625  22.2529892578125 10.0155576171875  22.2529892578125 9.97338671875  C 22.2529892578125 9.639228515625  22.1731884765625 9.3261103515625  22.0376240234375 9.0551328125  C 21.82846484375 4.1717548828125  18.6491181640625 0.293939453125002  13.5045712890625 0.293939453125002  C 8.3569970703125 0.293939453125002  5.1761669921875 4.1717548828125  4.9691875 9.0551328125  C 4.8322001953125 9.3276240234375  4.7531865234375 9.6407119140625  4.7531865234375 9.97338671875  C 4.7531865234375 10.0155576171875  4.75618359375 10.0592119140625  4.7577275390625 10.1013525390625  C 4.4160009765625 10.6477880859375  4.2142890625 11.3176787109375  4.2142890625 12.0447861328125  C 4.2142890625 12.1652138671875  4.218830078125 12.285611328125  4.229365234375 12.406099609375  C 3.4074111328125 12.7116796875  2.321291015625 14.0965986328125  1.5249482421875 15.973763671875  Z " fill-rule="nonzero" fill="#fffafb" stroke="none" fill-opacity="0.996078431372549" transform="matrix(1 0 0 1 249 713 )" />
  </g>
</svg>