<?xml version="1.0" encoding="utf-8"?>
<svg version="1.1" xmlns:xlink="http://www.w3.org/1999/xlink" width="31px" height="27px" xmlns="http://www.w3.org/2000/svg">
  <g transform="matrix(1 0 0 1 -329 -713 )">
    <path d="M 11.7074170435855 17.4334397206182  C 11.7074532654879 12.3441424040421  15.799833011239 8.21363420940897  20.9814415136148 8.21363420940897  C 21.3360513888889 8.21363420940897  21.6857698202211 8.24163260869565  22.0320824013158 8.28226157863451  C 21.0885455009594 3.58928254076087  16.3895933879295 0.101642832880434  11.0264950612208 0.101642832880434  C 5.03012082305373 0.101642832880434  0.117939009959795 4.46685277683424  0.117939009959795 10.0093645210598  C 0.117939009959795 13.2081435886549  1.75254303499634 15.8353797044837  4.48304262952303 17.8730850968071  L 3.39218339158443 21.3783998004416  L 7.20517245065789 19.3356891134511  C 8.570422265625 19.6236894955842  9.6645786526864 19.9206838018003  11.0264950612208 19.9206838018003  C 11.368640848867 19.9206838018003  11.707417008178 19.9026959918478  12.0445627215826 19.8738372961957  C 11.8312243204039 19.0955910326087  11.7074170435855 18.2794530570652  11.7074170435855 17.4334397206182  Z M 13.4792344857913 6.50909424252717  C 13.4792344503838 5.63242339504076  14.2990727750365 5.05462385360054  15.117208139163 5.05462385360054  C 15.9386769097222 5.05462385360054  16.4824216968202 5.63242339504076  16.4824216968202 6.50909424252717  C 16.4824216968202 7.38212840523098  15.9386769097222 7.96716218580163  15.117208139163 7.96716218580163  C 14.2990365531341 7.96716218580163  13.4792344857913 7.38212840523098  13.4792344857913 6.50909424252717  Z M 8.8447766207511 6.50905511209239  C 8.8447766207511 7.38212840523098  8.30016226014254 7.96712305536685  7.48289646952668 7.96712305536685  C 6.66472488349781 7.96712305536685  5.83988644919591 7.3820892747962  5.83988644919591 6.50905511209239  C 5.83988644919591 5.63238426460598  6.66472488349781 5.05458472316576  7.48289646952668 5.05458472316576  C 8.30016226014254 5.05458472316576  8.8447766207511 5.63238426460598  8.8447766207511 6.50905511209239  Z M 27.1166234283626 24.0019992697011  C 29.3067840860289 22.2468978897758  30.9379822254203 19.920683763587  30.9379822254203 17.2934867399796  C 30.9379822254203 12.6357403405231  26.5737119574653 8.83929695991848  21.6723999725877 8.83929695991848  C 16.4824216968202 8.83929695991848  12.3950783180281 12.6357403787364  12.3950783180281 17.2934867399796  C 12.3950783180281 21.9579981190557  16.4824217322277 25.7463079101563  21.6723999725877 25.7463079101563  C 22.7582228435673 25.7463079101563  23.8541184130574 25.455531139606  24.9449052071912 25.1630729067595  L 27.937331326526 26.9127388247283  L 27.1166234283626 24.0019992697011  Z M 20.0293899522569 14.6698090862772  C 20.0293899522569 15.2584795516304  19.4889785715917 15.8353797044837  18.6641401372898 15.8353797044837  C 18.1212649237025 15.8353797044837  17.5733171566612 15.2584795516304  17.5733171566612 14.6698090862772  C 17.5733171566612 14.0893113408628  18.12126495911 13.5051769488791  18.6641401372898 13.5051769488791  C 19.4889785715917 13.5051769488791  20.0293899522569 14.0893113408628  20.0293899522569 14.6698090862772  Z M 26.0290975968567 14.6698090862772  C 26.0290975968567 15.2584795516304  25.4820193679185 15.8353797044837  24.6638477818896 15.8353797044837  C 24.1251755836531 15.8353797044837  23.5805611876371 15.2584795516304  23.5805611876371 14.6698090862772  C 23.5805611876371 14.0893113408628  24.1251755482456 13.5051769488791  24.6638477818896 13.5051769488791  C 25.4820193679185 13.5051769488791  26.0290975968567 14.0893113408628  26.0290975968567 14.6698090862772  Z " fill-rule="nonzero" fill="#fffafb" stroke="none" fill-opacity="0.996078431372549" transform="matrix(1 0 0 1 329 713 )" />
  </g>
</svg>