<?xml version="1.0" encoding="utf-8"?>
<svg version="1.1" xmlns:xlink="http://www.w3.org/1999/xlink" width="16px" height="17px" xmlns="http://www.w3.org/2000/svg">
  <g transform="matrix(1 0 0 1 -286 -395 )">
    <path d="M 11.847335483871 16.6000395833333  L 8 14.3791666666667  L 4.15266451612903 16.6000395833333  C 4.01746125089192 16.6781050869368  3.8669932879693 16.7188962595651  3.71423333604712 16.7188962595651  C 3.1940167329807 16.7188962595651  2.77229785217616 16.2558840716818  2.77229785217616 15.6847295928985  C 2.77229785217616 15.6260047611517  2.77685374484918 15.5673866355757  2.78591612903226 15.5095108333333  L 3.52062580645161 10.8061208333333  L 0.408470967741935 7.47507  C 0.22667452012246 7.28043189153225  0.124153933624178 7.01345205433204  0.124153933624178 6.73466343313672  C 0.124153933624178 6.22109508506944  0.467422857800571 5.78533300324771  0.930303225806452 5.71129875  L 5.23165161290323 5.02512916666667  L 7.15555483870968 0.745747500000002  C 7.31432374434496 0.393020646225544  7.64164055702232 0.169761894635461  8 0.169761894635461  C 8.35835944297768 0.169761894635461  8.68567625565504 0.393020646225546  8.84444516129032 0.745747500000002  L 10.7683483870968 5.02512916666667  L 15.0696967741936 5.71129875  C 15.5325771421994 5.78533300324771  15.8758460663758 6.22109508506944  15.8758460663758 6.73466343313672  C 15.8758460663758 7.01345205433204  15.7733254798775 7.28043189153225  15.5915290322581 7.47507  L 12.4793741935484 10.8061208333333  L 13.2140838709677 15.5095108333333  C 13.2231462551508 15.5673866355757  13.2277021478238 15.6260047611517  13.2277021478238 15.6847295928985  C 13.2277021478238 16.2558840716818  12.8059832670193 16.7188962595652  12.2857666639529 16.7188962595652  C 12.1330067120307 16.7188962595652  11.9825387491081 16.6781050869368  11.847335483871 16.6000395833333  Z " fill-rule="nonzero" fill="#fccf0a" stroke="none" transform="matrix(1 0 0 1 286 395 )" />
  </g>
</svg>