<?xml version="1.0" encoding="utf-8"?>
<svg version="1.1" xmlns:xlink="http://www.w3.org/1999/xlink" width="13px" height="14px" xmlns="http://www.w3.org/2000/svg">
  <g transform="matrix(1 0 0 1 -346 -527 )">
    <path d="M 4.13812842273247 13.7721519036788  C 3.91164759313072 13.8987341871044  3.6689895448266 13.9620253288172  3.43442011361471 13.9620253115111  C 3.11896466630145 13.9620253115111  2.81159782059832 13.853526211432  2.55276256907393 13.6365280285799  C 2.08362369116806 13.2567811956092  1.85714286156631 12.6238697957872  1.95420606540587 11.9909584132714  L 2.32628173947218 9.54972874802215  C 2.374813349133 9.23327305676424  2.27775012981136 8.91681734820016  2.07553508955793 8.6998191653481  L 0.482080634289253 6.96383363330696  C 0.0695619676543448 6.51175406695016  -0.076032861328125 5.85171790941456  0.101916374094893 5.23688969293908  C 0.279865609517911 4.62206147646361  0.749004471941692 4.17902350178006  1.32329517077934 4.08860760235364  L 3.51530612971608 3.73598552709652  C 3.79840717058879 3.69077756873022  4.04106521889291 3.49186256922468  4.16239422756288 3.21157324465981  L 5.14111497594322 0.98734177956883  C 5.39995022746761 0.399638338113133  5.91762069955221 0.0379746884889239  6.5 0.0379746884889239  C 7.08237930044779 0.0379746884889239  7.60004977253239 0.399638338113133  7.85079642244664 0.97830018789557  L 8.83760577243712 3.20253165298655  C 8.96702339819931 3.48282097755142  9.20968143102134 3.68173599436313  9.48469387028392 3.72694393542326  L 11.6767048292207 4.07956601068038  C 12.2509955280583 4.16998192741297  12.7201343904821 4.61301990209652  12.8980836259051 5.22784810126582  C 13.0760328613281 5.8426763177413  12.9304380323457 6.5027124752769  12.5179193657107 6.9547920416337  L 10.9325535120522 8.68173598200158  C 10.7303384872809 8.89873418215981  10.6332752679592 9.22423146509098  10.681806862138 9.53164556467563  L 11.0538825362043 11.9728752299248  C 11.1509457555259 12.6148282214201  10.9244649104421 13.2386980122627  10.4553260325362 13.6184448452334  C 9.98618715463033 13.9981916782041  9.37954206483422 14.0433996365704  8.86996017887767 13.745027128659  L 6.90443006502477 12.6148282041139  C 6.65368343059261 12.4701627373418  6.35440517101753 12.4701627373418  6.10365853658537 12.6148282041139  L 4.13812842273247 13.7721519036788  Z " fill-rule="nonzero" fill="#f7cd36" stroke="none" transform="matrix(1 0 0 1 346 527 )" />
  </g>
</svg>