<?xml version="1.0" encoding="utf-8"?>
<svg version="1.1" xmlns:xlink="http://www.w3.org/1999/xlink" width="43px" height="43px" xmlns="http://www.w3.org/2000/svg">
  <g transform="matrix(1 0 0 1 -16 -12 )">
    <path d="M 42.7860696517413 29.4378  L 42 29.4378  L 42 8.26675  C 42.7858474017922 3.70129396983638  39.1031905402762 0.00118614074337463  34.560447761194 0  L 8.22562189054726 0  C 3.68371453894069 0.00237246248077991  0.00236065918485563 3.70213311163539  0 8.26675  L 0 34.73325  C 0.00118091681179886 39.2983582677745  3.68322560420452 42.9988131786041  8.22562189054726 43  L 34.560447761194 43  C 38.5425864991321 42.9971388157835  41.952375506071 40.1314840466477  42.6598507462687 36.1931  C 40.4777611940299 35.2428  31.022039800995 31.1406  26.095223880597 28.7756  C 22.3471641791045 33.34005  18.4194029850746 36.07915  12.5020895522388 36.07915  C 6.58477611940299 36.07915  2.63348258706468 32.41555  3.10840796019901 27.93065  C 3.42074626865672 24.98945  5.42955223880598 20.1799  14.1514925373134 21.00335  C 18.7509950248756 21.43765  20.8539303482587 22.2998  24.6041293532338 23.54465  C 25.5732338308458 21.75585  26.3797512437811 19.7886  26.991592039801 18  L 10.3649253731343 18  L 10.3649253731343 16.04115  L 18.5926865671642 16.04115  L 18.5926865671642 13  L 8.55721393034826 13  L 8.55721393034826 12  L 18.5905472636816 12  L 18.5905472636816 6.95525  C 18.5905472636816 6.95525  18.6803980099502 6.28445  19.4184577114428 6.28445  L 23.5323383084577 6.28445  L 23.5323383084577 12  L 34.228855721393 12  L 34.228855721393 13  L 23.5323383084577 13  L 23.5323383084577 16.039  L 32.2585572139303 16.039  C 31.5058968632543 19.1704080413503  30.3122451303572 22.1777836870636  28.7137313432836 24.9701  C 31.2488059701493 25.8946  42.7860696517413 29.4378  42.7860696517413 29.4378  Z M 22.422039800995 26.94165  C 19.4056218905473 30.88905  15.6982089552239 33.24115  11.8474626865672 33.24115  C 5.59427860696517 33.24115  4.60592039800995 29.2744  4.93751243781094 27.61675  C 5.26482587064677 25.96555  7.07681592039801 23.81125  10.553184079602 23.81125  C 14.547263681592 23.81125  18.1263184079602 24.83895  22.422039800995 26.94165  Z " fill-rule="nonzero" fill="#009fe8" stroke="none" transform="matrix(1 0 0 1 16 12 )" />
  </g>
</svg>