<?xml version="1.0" encoding="utf-8"?>
<svg version="1.1" xmlns:xlink="http://www.w3.org/1999/xlink" width="23px" height="20px" xmlns="http://www.w3.org/2000/svg">
  <g transform="matrix(1 0 0 1 -21 -91 )">
    <path d="M 12.1834401445497 15.9558439829077  C 12.1834401445497 11.2731326642154  16.37844049769 7.55097752161383  21.7175318256255 7.55097752161383  C 22.0988954979187 7.55097752161383  22.4802591702118 7.55097752161383  22.8616228425049 7.67104704362516  C 21.8446530497233 3.34854429096691  17.0140465760944 0.226736758421944  11.5478340240611 0.226736758421944  C 5.31889408535748 0.226736758421944  0.361166429715018 4.18903094504621  0.361166429715018 9.23195079002286  C 0.361166429715018 12.1136192785452  2.01374234298522 14.5150097187717  4.81040923105073 16.4361220312034  L 3.66631821417135 19.6779991255093  L 7.60707611911624 17.756886773328  C 9.00540958419103 17.9970258173507  10.1495005589863 18.2371648613734  11.5478340240611 18.2371648613734  L 12.5648038168428 18.2371648613734  C 12.3105613686474 17.5167477293054  12.1834401445497 16.7963305972374  12.1834401445497 15.9558439829077  Z M 14.0902584639312 5.99007373546656  C 13.9631372398335 5.14958708138726  14.8529858085175 4.66930899334194  15.7428343772014 4.66930903309152  C 16.6326829458854 4.66930903309152  17.1411678422762 5.14958712113684  17.1411678001921 5.99007373546656  C 17.1411678001921 6.83056038954586  16.6326829038013 7.31083847759117  15.7428343772014 7.31083847759117  C 14.8529858085175 7.31083847759117  14.0902584639312 6.83056038954586  14.0902584639312 5.99007373546656  Z M 9.25965199030236 5.99007373546656  C 9.25965199030236 6.83056038954586  8.62404586981382 7.31083847759117  7.86131856731165 7.31083847759117  C 6.97146999862769 7.31083847759117  6.20874265404144 6.83056038954586  6.20874265404144 5.99007373546656  C 6.20874265404144 5.14958708138726  7.0985912227254 4.66930899334194  7.86131856731165 4.66930903309152  C 8.6240459118979 4.66930903309152  9.25965203238644 5.14958712113684  9.25965199030236 5.99007373546656  Z " fill-rule="nonzero" fill="#ffffff" stroke="none" transform="matrix(1 0 0 1 21 91 )" />
  </g>
</svg>