<?xml version="1.0" encoding="utf-8"?>
<svg version="1.1" xmlns:xlink="http://www.w3.org/1999/xlink" width="19px" height="17px" xmlns="http://www.w3.org/2000/svg">
  <g transform="matrix(1 0 0 1 -34 -99 )">
    <path d="M 15.0197627622207 14.1141729835911  C 17.2666486063836 12.5437126436511  18.8893995236801 10.3692291360348  18.8893995236801 7.95313634535082  C 18.8893995236801 3.72497393165912  14.5204547876679 0.221639367170495  9.52737508346473 0.221639367170495  C 4.28464139198521 0.221639367170495  0.165350643249413 3.72497393165912  0.165350643249413 7.95313634535082  C 0.165350643249413 12.1812987590425  4.28464139198521 15.6846333235311  9.52737508346473 15.6846332835382  C 10.6508180262085 15.6846332835382  11.7742609276276 15.4430240004705  12.8977038703714 15.2014147573957  L 15.8935516763634 16.7718750573428  L 15.0197627622207 14.1141729835911  Z M 7.77979717253004 5.53704351467388  C 7.77979713120548 6.14106668235017  7.28048919797727 6.62428528847851  6.40670028383448 6.62428528847851  C 5.90739230928171 6.62428528847851  5.28325734109075 6.14106672234312  5.28325734109075 5.53704351467388  C 5.28325734109075 5.0538249485385  5.78256531564352 4.44980174086926  6.40670028383448 4.4498017808622  C 7.28048923930183 4.4498017808622  7.7797972138546 4.93302034699759  7.77979717253004 5.53704351467388  Z M 13.8963198194769 5.53704351467388  C 13.8963198194769 6.14106668235017  13.3970118449241 6.62428528847851  12.5232228894568 6.62428528847851  C 12.023914914904 6.62428528847851  11.3997799467131 6.14106672234312  11.3997799880376 5.53704351467388  C 11.3997799880376 5.0538249485385  11.8990879625904 4.44980174086926  12.5232228894568 4.4498017808622  C 13.3970118449241 4.4498017808622  13.8963198194769 4.93302034699759  13.8963198194769 5.53704351467388  Z " fill-rule="nonzero" fill="#ffffff" stroke="none" transform="matrix(1 0 0 1 34 99 )" />
  </g>
</svg>