<?xml version="1.0" encoding="utf-8"?>
<svg version="1.1" xmlns:xlink="http://www.w3.org/1999/xlink" width="98px" height="98px" xmlns="http://www.w3.org/2000/svg">
  <g transform="matrix(1 0 0 1 -341 -277 )">
    <path d="M 390 277  C 417.44 277  439 298.56  439 326  C 439 353.44  417.44 375  390 375  C 362.56 375  341 353.44  341 326  C 341 298.56  362.56 277  390 277  Z " fill-rule="nonzero" fill="#ffffff" stroke="none" />
    <path d="M 390 277.5  C 417.16 277.5  438.5 298.84  438.5 326  C 438.5 353.16  417.16 374.5  390 374.5  C 362.84 374.5  341.5 353.16  341.5 326  C 341.5 298.84  362.84 277.5  390 277.5  Z " stroke-width="1" stroke="#6d7663" fill="none" />
  </g>
</svg>