<?xml version="1.0" encoding="utf-8"?>
<svg version="1.1" xmlns:xlink="http://www.w3.org/1999/xlink" width="3px" height="3px" xmlns="http://www.w3.org/2000/svg">
  <g transform="matrix(1 0 0 1 -228 -569 )">
    <path d="M 2.938671875 1.504638671875  C 2.938671875 2.185791015625  2.380126953125 2.7443359375  1.698974609375 2.7443359375  C 1.01328125 2.7443359375  0.459277343749999 2.185791015625  0.459277343749999 1.504638671875  C 0.459277343749999 0.818945312499999  1.017822265625 0.264941406249999  1.698974609375 0.264941406249999  C 2.380126953125 0.264941406249999  2.938671875 0.823486328125  2.938671875 1.504638671875  Z M 2.33017578125 1.50009765625  C 2.33017578125 1.15498046875  2.044091796875 0.868896484375  1.698974609375 0.868896484375  C 1.34931640625 0.868896484375  1.0677734375 1.150439453125  1.0677734375 1.50009765625  C 1.0677734375 1.849755859375  1.34931640625 2.131298828125  1.698974609375 2.131298828125  C 2.0486328125 2.131298828125  2.33017578125 1.849755859375  2.33017578125 1.50009765625  Z " fill-rule="nonzero" fill="#f8b62d" stroke="none" transform="matrix(1 0 0 1 228 569 )" />
  </g>
</svg>