<?xml version="1.0" encoding="utf-8"?>
<svg version="1.1" xmlns:xlink="http://www.w3.org/1999/xlink" width="4px" height="4px" xmlns="http://www.w3.org/2000/svg">
  <g transform="matrix(1 0 0 1 -264 -577 )">
    <path d="M 1.672900390625 1.4564453125  L 1.137060546875 0.920605468749997  C 1.0689453125 0.857031249999999  0.964501953125001 0.857031249999999  0.896386718750001 0.920605468749997  C 0.864599609374999 0.952392578125  0.846435546875 0.993261718749999  0.846435546875 1.038671875  C 0.846435546875 1.08408203125  0.864599609374999 1.124951171875  0.896386718750001 1.15673828125  L 1.436767578125 1.697119140625  C 1.4685546875 1.72890625  1.509423828125 1.7470703125  1.554833984375 1.7470703125  C 1.600244140625 1.7470703125  1.64111328125 1.72890625  1.672900390625 1.697119140625  C 1.736474609375 1.62900390625  1.736474609375 1.524560546875  1.672900390625 1.4564453125  Z M 3.11240234375 2.89594726562499  L 2.572021484375 2.351025390625  C 2.540234375 2.31923828124999  2.499365234375 2.30107421875  2.453955078125 2.30107421875  C 2.408544921875 2.30107421875  2.36767578125 2.31923828124999  2.335888671875 2.351025390625  C 2.272314453125 2.419140625  2.272314453125 2.52358398437499  2.335888671875 2.59169921874999  L 2.87626953125 3.132080078125  C 2.908056640625 3.1638671875  2.94892578125 3.18203124999999  2.9943359375 3.18203124999999  C 3.03974609375 3.18203124999999  3.080615234375 3.1638671875  3.11240234375 3.132080078125  C 3.144189453125 3.10029296874999  3.162353515625 3.059423828125  3.162353515625 3.014013671875  C 3.162353515625 2.968603515625  3.144189453125 2.927734375  3.11240234375 2.89594726562499  Z M 2.326806640625 1.70620117187499  C 2.363134765625 1.733447265625  2.40400390625 1.75161132812499  2.4494140625 1.751611328125  C 2.49482421875 1.751611328125  2.535693359375 1.733447265625  2.56748046875 1.70166015625  L 3.107861328125 1.161279296875  C 3.1396484375 1.1294921875  3.1578125 1.088623046875  3.1578125 1.043212890625  C 3.1578125 0.997802734375  3.1396484375 0.956933593750001  3.107861328125 0.925146484374999  C 3.03974609375 0.857031249999999  2.935302734375 0.857031249999999  2.8671875 0.925146484374999  L 2.326806640625 1.46552734375  C 2.263232421875 1.533642578125  2.263232421875 1.63808593749999  2.326806640625 1.70620117187499  Z M 1.67744140625 2.346484375  C 1.61840820312501 2.28745117187501  1.50488281250001 2.28745117187501  1.44130859375 2.351025390625  L 0.900927734375003 2.89140625  C 0.869140625 2.923193359375  0.850976562500001 2.9640625  0.850976562500001 3.00947265625  C 0.850976562500001 3.0548828125  0.869140625 3.095751953125  0.900927734375003 3.1275390625  C 0.932714843750006 3.159326171875  0.973583984375004 3.177490234375  1.018994140625 3.177490234375  C 1.064404296875 3.177490234375  1.1052734375 3.159326171875  1.13706054687501 3.1275390625  L 1.67744140625 2.587158203125  C 1.741015625 2.51904296875  1.741015625 2.414599609375  1.67744140625 2.346484375  Z M 1.377734375 2.19663085937501  C 1.4685546875 2.19663085937501  1.545751953125 2.11943359375  1.545751953125 2.02861328125  C 1.545751953125 1.933251953125  1.4685546875 1.860595703125  1.377734375 1.860595703125  L 0.610302734374997 1.860595703125  C 0.514941406249996 1.860595703125  0.442285156249994 1.93779296875  0.442285156249994 2.02861328125  C 0.442285156249994 2.11943359375  0.519482421874997 2.19663085937501  0.610302734374997 2.19663085937501  L 1.377734375 2.19663085937501  Z M 3.571044921875 2.024072265625  C 3.571044921875 1.933251953125  3.49384765625 1.8560546875  3.40302734375 1.8560546875  L 2.635595703125 1.8560546875  C 2.540234375 1.8560546875  2.467578125 1.933251953125  2.467578125 2.024072265625  C 2.467578125 2.114892578125  2.544775390625 2.19208984375  2.635595703125 2.19208984375  L 3.40302734375 2.19208984375  C 3.498388671875 2.19208984375  3.571044921875 2.114892578125  3.571044921875 2.024072265625  Z M 2.172412109375 0.629980468750006  C 2.176953125 0.539160156250006  2.099755859375 0.461962890625003  2.00439453125 0.461962890625003  C 1.909033203125 0.461962890625003  1.836376953125 0.539160156250006  1.836376953125 0.629980468750006  L 1.836376953125 1.397412109375  C 1.836376953125 1.49277343750001  1.91357421875 1.5654296875  2.00439453125 1.5654296875  C 2.09521484375 1.5654296875  2.172412109375 1.488232421875  2.172412109375 1.397412109375  L 2.172412109375 0.629980468750006  Z M 2.172412109375 2.6552734375  C 2.176953125 2.564453125  2.099755859375 2.487255859375  2.00439453125 2.487255859375  C 1.909033203125 2.487255859375  1.836376953125 2.564453125  1.836376953125 2.6552734375  L 1.836376953125 3.422705078125  C 1.836376953125 3.51806640625  1.91357421875 3.59072265625  2.00439453125 3.59072265625  C 2.09521484375 3.59072265625  2.172412109375 3.513525390625  2.172412109375 3.422705078125  L 2.172412109375 2.6552734375  Z " fill-rule="nonzero" fill="#f8b62d" stroke="none" transform="matrix(1 0 0 1 264 577 )" />
  </g>
</svg>