<?xml version="1.0" encoding="utf-8"?>
<svg version="1.1" xmlns:xlink="http://www.w3.org/1999/xlink" width="31px" height="8px" xmlns="http://www.w3.org/2000/svg">
  <g transform="matrix(1 0 0 1 -233 -565 )">
    <path d="M 2.61264728483607 1.463134765625  C 2.61264728483607 1.317822265625  2.49264536372951 1.199755859375  2.34495069159836 1.199755859375  L 1.79109567110656 1.199755859375  L 1.79109567110656 0.654833984374999  C 1.79109567110656 0.509521484375  1.67109375 0.391455078124999  1.52339907786885 0.391455078124999  C 1.37570440573771 0.391455078124999  1.25570248463115 0.509521484375  1.25570248463115 0.654833984374999  L 1.25570248463115 1.199755859375  L 0.701847464139343 1.199755859375  C 0.554152792008196 1.199755859375  0.434150870901637 1.317822265625  0.434150870901637 1.463134765625  C 0.434150870901637 1.608447265625  0.554152792008192 1.726513671875  0.701847464139343 1.726513671875  L 1.25570248463115 1.726513671875  L 1.25570248463115 2.271435546875  C 1.25570248463115 2.416748046875  1.37570440573771 2.534814453125  1.52339907786885 2.534814453125  C 1.67109375 2.534814453125  1.79109567110656 2.416748046875  1.79109567110656 2.271435546875  L 1.79109567110656 1.726513671875  L 2.34495069159836 1.726513671875  C 2.49264536372951 1.726513671875  2.61264728483607 1.608447265625  2.61264728483607 1.463134765625  Z M 30.4992475665984 6.7443359375  C 30.4992475665984 6.5990234375  30.3792456454918 6.48095703125  30.2315509733607 6.48095703125  L 29.6776959528689 6.48095703125  L 29.6776959528689 5.93603515625  C 29.6776959528689 5.79072265625  29.5576940317623 5.67265625  29.4099993596312 5.67265625  C 29.2623046875 5.67265625  29.1423027663935 5.79072265625  29.1423027663935 5.93603515625  L 29.1423027663935 6.48095703125  L 28.5884477459016 6.48095703125  C 28.4407530737705 6.48095703125  28.3207511526639 6.5990234375  28.3207511526639 6.7443359375  C 28.3207511526639 6.8896484375  28.4407530737705 7.00771484375  28.5884477459016 7.00771484375  L 29.1423027663935 7.00771484375  L 29.1423027663935 7.55263671875  C 29.1423027663935 7.69794921875  29.2623046875 7.816015625  29.4099993596312 7.816015625  C 29.5576940317623 7.816015625  29.6776959528689 7.69794921875  29.6776959528689 7.55263671875  L 29.6776959528689 7.00771484375  L 30.2315509733607 7.00771484375  C 30.3792456454918 7.00771484375  30.4992475665984 6.8896484375  30.4992475665984 6.7443359375  Z " fill-rule="nonzero" fill="#f7e42f" stroke="none" transform="matrix(1 0 0 1 233 565 )" />
  </g>
</svg>