<?xml version="1.0" encoding="utf-8"?>
<svg version="1.1" xmlns:xlink="http://www.w3.org/1999/xlink" width="3px" height="3px" xmlns="http://www.w3.org/2000/svg">
  <g transform="matrix(1 0 0 1 -227 -578 )">
    <path d="M 2.908349609375 1.4373046875  C 2.912890625 1.269287109375  2.77666015625 1.133056640625  2.608642578125 1.133056640625  L 1.97744140625 1.133056640625  L 1.97744140625 0.501855468749994  C 1.97744140625 0.333823912295131  1.84122491582987 0.197607421874999  1.673193359375 0.197607421874999  C 1.50516180292013 0.197607421874999  1.3689453125 0.333823912295131  1.3689453125 0.501855468749994  L 1.3689453125 1.133056640625  L 0.733203124999999 1.133056640625  C 0.565171568545132 1.133056640625  0.428955078125 1.26927313104514  0.428955078125 1.4373046875  C 0.428955078125 1.60533624395486  0.565171568545132 1.741552734375  0.733203124999999 1.741552734375  L 1.364404296875 1.741552734375  L 1.364404296875 2.37275390625  C 1.364404296875 2.54078546270486  1.50062078729513 2.677001953125  1.66865234375 2.677001953125  C 1.83668390020487 2.677001953125  1.972900390625 2.54078546270486  1.972900390625 2.37275390625  L 1.972900390625 1.741552734375  L 2.6041015625 1.741552734375  C 2.772119140625 1.741552734375  2.908349609375 1.605322265625  2.908349609375 1.4373046875  Z " fill-rule="nonzero" fill="#f8b62d" stroke="none" transform="matrix(1 0 0 1 227 578 )" />
  </g>
</svg>