<?xml version="1.0" encoding="utf-8"?>
<svg version="1.1" xmlns:xlink="http://www.w3.org/1999/xlink" width="3px" height="3px" xmlns="http://www.w3.org/2000/svg">
  <g transform="matrix(1 0 0 1 -254 -562 )">
    <path d="M 2.66806640625 1.484716796875  C 2.66806640625 2.165869140625  2.1140625 2.7244140625  1.428369140625 2.7244140625  C 0.74267578125 2.7244140625  0.188671875000004 2.165869140625  0.188671875000004 1.484716796875  C 0.188671875000004 0.799023437499999  0.747216796875001 0.245019531249998  1.428369140625 0.245019531249998  C 2.1140625 0.245019531249998  2.66806640625 0.803564453124999  2.66806640625 1.484716796875  Z M 2.0595703125 1.48017578125  C 2.0595703125 1.13505859375  1.77802734375 0.848974609374999  1.428369140625 0.848974609374999  C 1.0787109375 0.848974609374999  0.797167968750003 1.130517578125  0.797167968750003 1.48017578125  C 0.797167968750003 1.829833984375  1.07871093750001 2.111376953125  1.428369140625 2.111376953125  C 1.77802734375 2.111376953125  2.0595703125 1.829833984375  2.0595703125 1.48017578125  Z " fill-rule="nonzero" fill="#47b7f8" stroke="none" transform="matrix(1 0 0 1 254 562 )" />
  </g>
</svg>