<?xml version="1.0" encoding="utf-8"?>
<svg version="1.1" xmlns:xlink="http://www.w3.org/1999/xlink" width="4px" height="4px" xmlns="http://www.w3.org/2000/svg">
  <g transform="matrix(1 0 0 1 -244 -558 )">
    <path d="M 1.674755859375 1.44775390625  L 1.138916015625 0.911914062499999  C 1.07080078125 0.848339843749999  0.966357421874999 0.848339843749999  0.898242187499999 0.911914062499999  C 0.866455078125 0.943701171874999  0.848291015624998 0.984570312499999  0.848291015624998 1.02998046875  C 0.848291015624998 1.075390625  0.866455078124996 1.116259765625  0.898242187499999 1.148046875  L 1.438623046875 1.688427734375  C 1.47041015625 1.72021484375  1.511279296875 1.73837890625  1.556689453125 1.73837890625  C 1.602099609375 1.73837890625  1.64296875 1.72021484375  1.674755859375 1.688427734375  C 1.738330078125 1.6203125  1.738330078125 1.515869140625  1.674755859375 1.44775390625  Z M 3.109716796875 2.887255859375  L 2.5693359375 2.342333984375  C 2.537548828125 2.310546875  2.4966796875 2.2923828125  2.45126953125 2.2923828125  C 2.405859375 2.2923828125  2.364990234375 2.310546875  2.333203125 2.342333984375  C 2.26962890625 2.41044921875  2.26962890625 2.514892578125  2.333203125 2.5830078125  L 2.873583984375 3.123388671875  C 2.90537109374999 3.15517578125  2.946240234375 3.17333984375  2.991650390625 3.17333984375  C 3.037060546875 3.17333984375  3.0779296875 3.15517578125  3.109716796875 3.123388671875  C 3.14150390624999 3.0916015625  3.15966796875 3.050732421875  3.15966796875 3.005322265625  C 3.15966796875 2.959912109375  3.14150390625 2.91904296875  3.109716796875 2.887255859375  Z M 2.328662109375 1.697509765625  C 2.364990234375 1.724755859375  2.405859375 1.742919921875  2.45126953125 1.742919921875  C 2.4966796875 1.742919921875  2.537548828125 1.724755859375  2.5693359375 1.69296875  L 3.109716796875 1.152587890625  C 3.14150390624999 1.12080078125  3.15966796875 1.079931640625  3.15966796875 1.034521484375  C 3.15966796875 0.989111328125  3.14150390625 0.9482421875  3.109716796875 0.916455078125001  C 3.0416015625 0.848339843750001  2.93715820312499 0.848339843750001  2.86904296874999 0.916455078125001  L 2.328662109375 1.4568359375  C 2.265087890625 1.524951171875  2.265087890625 1.62939453125  2.328662109375 1.697509765625  Z M 1.679296875 2.33779296875  C 1.620263671875 2.278759765625  1.50673828125 2.278759765625  1.4431640625 2.342333984375  L 0.902783203125001 2.88271484375  C 0.870996093750001 2.914501953125  0.852832031249999 2.95537109375  0.852832031249999 3.00078125  C 0.852832031249999 3.04619140625  0.870996093749998 3.087060546875  0.902783203125001 3.11884765625  C 0.9345703125 3.150634765625  0.975439453125002 3.168798828125  1.020849609375 3.168798828125  C 1.066259765625 3.168798828125  1.10712890625 3.150634765625  1.138916015625 3.11884765625  L 1.679296875 2.578466796875  C 1.74287109375 2.5103515625  1.74287109375 2.405908203125  1.679296875 2.33779296875  Z M 1.37958984375 2.187939453125  C 1.47041015625 2.187939453125  1.547607421875 2.1107421875  1.547607421875 2.019921875  C 1.547607421875 1.924560546875  1.47041015625 1.851904296875  1.37958984375 1.851904296875  L 0.612158203125002 1.851904296875  C 0.516796875000001 1.851904296875  0.444140625000003 1.9291015625  0.444140625000003 2.019921875  C 0.444140625000003 2.1107421875  0.521337890625002 2.187939453125  0.612158203125002 2.187939453125  L 1.37958984375 2.187939453125  Z M 3.57290039062499 2.015380859375  C 3.57290039062499 1.924560546875  3.495703125 1.84736328125  3.4048828125 1.84736328125  L 2.637451171875 1.84736328125  C 2.54208984375 1.84736328125  2.46943359375 1.924560546875  2.46943359375 2.015380859375  C 2.46943359375 2.106201171875  2.546630859375 2.1833984375  2.637451171875 2.1833984375  L 3.4048828125 2.1833984375  C 3.500244140625 2.1833984375  3.57290039062499 2.106201171875  3.57290039062499 2.015380859375  Z M 2.174267578125 0.621289062499999  C 2.174267578125 0.530468749999999  2.101611328125 0.453271484375  2.00625 0.453271484375  C 1.910888671875 0.453271484375  1.838232421875 0.530468749999999  1.838232421875 0.621289062499999  L 1.838232421875 1.388720703125  C 1.838232421875 1.48408203125  1.9154296875 1.55673828125  2.00625 1.55673828125  C 2.0970703125 1.55673828125  2.174267578125 1.479541015625  2.174267578125 1.388720703125  L 2.174267578125 0.621289062499999  Z M 2.174267578125 2.64658203125  C 2.174267578125 2.551220703125  2.101611328125 2.478564453125  2.00625 2.478564453125  C 1.910888671875 2.478564453125  1.838232421875 2.55576171875  1.838232421875 2.64658203125  L 1.838232421875 3.414013671875  C 1.838232421875 3.509375  1.9154296875 3.58203125  2.00625 3.58203125  C 2.0970703125 3.58203125  2.174267578125 3.504833984375  2.174267578125 3.414013671875  L 2.174267578125 2.64658203125  Z " fill-rule="nonzero" fill="#faee00" stroke="none" transform="matrix(1 0 0 1 244 558 )" />
  </g>
</svg>