<?xml version="1.0" encoding="utf-8"?>
<svg version="1.1" xmlns:xlink="http://www.w3.org/1999/xlink" width="32px" height="2px" xmlns="http://www.w3.org/2000/svg">
  <g transform="matrix(1 0 0 1 -231 -592 )">
    <path d="M 31.830712890625 0.78411458333333  C 31.830712890625 1.12317708333333  31.6263671875 1.39563802083333  31.3720703125 1.39563802083333  L 30.2822265625 1.39563802083333  C 30.0279296875 1.39563802083333  29.823583984375 1.12317708333333  29.823583984375 0.78411458333333  C 29.823583984375 0.445052083333328  30.0279296875 0.172591145833328  30.2822265625 0.172591145833328  L 31.3720703125 0.172591145833328  C 31.6263671875 0.172591145833328  31.830712890625 0.445052083333328  31.830712890625 0.78411458333333  Z M 2.686474609375 0.78411458333333  C 2.686474609375 1.12317708333333  2.48212890625 1.39563802083333  2.22783203125 1.39563802083333  L 0.833740234375 1.39563802083333  C 0.579443359374999 1.39563802083333  0.375097656249999 1.12317708333333  0.375097656249999 0.78411458333333  C 0.375097656249999 0.445052083333328  0.579443359374999 0.172591145833328  0.833740234375 0.172591145833328  L 2.22783203125 0.172591145833328  C 2.48212890625 0.172591145833328  2.686474609375 0.445052083333328  2.686474609375 0.78411458333333  Z M 29.387646484375 0.78411458333333  C 29.387646484375 1.12317708333333  29.18330078125 1.39563802083333  28.933544921875 1.39563802083333  L 3.767236328125 1.39563802083333  C 3.512939453125 1.39563802083333  3.30859375 1.12317708333333  3.30859375 0.78411458333333  C 3.30859375 0.445052083333328  3.512939453125 0.172591145833328  3.767236328125 0.172591145833328  L 28.92900390625 0.172591145833328  C 29.18330078125 0.172591145833328  29.387646484375 0.445052083333328  29.387646484375 0.78411458333333  Z " fill-rule="nonzero" fill="#3e3a39" stroke="none" transform="matrix(1 0 0 1 231 592 )" />
  </g>
</svg>