<?xml version="1.0" encoding="utf-8"?>
<svg version="1.1" xmlns:xlink="http://www.w3.org/1999/xlink" width="15px" height="14px" xmlns="http://www.w3.org/2000/svg">
  <g transform="matrix(1 0 0 1 -240 -571 )">
    <path d="M 11.7565328663793 13.309326171875  C 11.5545359644397 13.4591796875  11.3149582435345 13.5318359375  11.0706829202586 13.5318359375  C 10.882778825431 13.5318359375  10.6948747306034 13.48642578125  10.5257610452586 13.400146484375  L 7.47231950431034 11.847119140625  C 7.40655307112069 11.81533203125  7.32669383081896 11.81533203125  7.26092739762931 11.847119140625  L 4.20748585668103 13.400146484375  C 3.80818965517241 13.6044921875  3.33373181573276 13.5681640625  2.97201643318965 13.3138671875  C 2.60560344827586 13.0595703125  2.42709455818965 12.63271484375  2.50695379849138 12.205859375  L 3.08945649245689 8.9181640625  C 3.10354929956896 8.8455078125  3.08006128771552 8.7728515625  3.02369005926724 8.722900390625  L 0.552751212284481 6.397900390625  C 0.228616648706896 6.09365234375  0.115874191810342 5.6486328125  0.256802262931032 5.235400390625  C 0.397730334051721 4.82216796875  0.759445716594824 4.527001953125  1.20571794181034 4.463427734375  L 4.61617726293103 3.982080078125  C 4.69133890086207 3.972998046875  4.75240773168103 3.927587890625  4.78529094827586 3.864013671875  L 6.31201171875 0.876025390624999  C 6.50931101831896 0.485498046874998  6.91330482219828 0.244824218750001  7.36427464978448 0.244824218750001  C 7.81524447737069 0.244824218750001  8.21923828125 0.485498046875001  8.41653758081897 0.876025390624999  L 9.9432583512931 3.864013671875  C 9.97614156788793 3.927587890625  10.0419080010776 3.972998046875  10.1123720366379 3.982080078125  L 13.5228313577586 4.463427734375  C 13.9691035829741 4.527001953125  14.3308189655172 4.82216796875  14.4717470366379 5.235400390625  C 14.6126751077586 5.6486328125  14.4952350484914 6.09365234375  14.1757980872845 6.397900390625  L 11.7048592403017 8.722900390625  C 11.6531856142241 8.77285156250001  11.625 8.84550781250001  11.6390928071121 8.9181640625  L 12.2215955010776 12.201318359375  C 12.2967571390086 12.628173828125  12.1182482489224 13.055029296875  11.7565328663793 13.309326171875  Z M 6.82874797952586 11.047900390625  C 6.98846646012931 10.9525390625  7.1763705549569 10.911669921875  7.36427464978448 10.911669921875  C 7.55217874461207 10.911669921875  7.74008283943966 10.957080078125  7.90919652478449 11.043359375  L 10.9626380657328 12.59638671875  C 11.0753805226293 12.655419921875  11.1646349676724 12.60546875  11.2022157866379 12.57822265625  C 11.2350990032328 12.555517578125  11.3149582435345 12.48740234375  11.291470231681 12.364794921875  L 10.7089675377155 9.081640625  C 10.6432011045259 8.713818359375  10.7700363685345 8.3369140625  11.0471949084052 8.078076171875  L 13.5181337553879 5.75307617187499  C 13.607388200431 5.666796875  13.5885977909483 5.56689453125  13.5745049838362 5.53056640625  C 13.5604121767242 5.489697265625  13.5181337553879 5.398876953125  13.3912984913793 5.380712890625  L 9.98083917025863 4.899365234375  C 9.60033337823276 4.84487304687499  9.2668036099138 4.61328125  9.09768992456898 4.27724609374999  L 7.57096915409484 1.28925781249999  C 7.51459792564656 1.1802734375  7.41125067349139 1.16665039062499  7.36897225215518 1.16665039062499  C 7.32669383081898 1.16665039062499  7.2233465786638 1.1802734375  7.16697535021552 1.28925781249999  L 5.64025457974139 4.27724609374999  C 5.47114089439656 4.61328125  5.1376111260776 4.84487304687499  4.75710533405173 4.899365234375  L 1.34664601293103 5.380712890625  C 1.21981074892241 5.398876953125  1.17753232758621 5.489697265625  1.16343952047414 5.53056640625  C 1.14934671336207 5.57143554687499  1.13055630387931 5.666796875  1.21981074892241 5.75307617187499  L 3.69074959590517 8.078076171875  C 3.96790813577586 8.3369140625  4.09474339978449 8.713818359375  4.02897696659483 9.081640625  L 3.44647427262931 12.3693359375  C 3.42298626077587 12.491943359375  3.50284550107759 12.56005859375  3.53572871767242 12.582763671875  C 3.56861193426724 12.60546875  3.66256398168104 12.655419921875  3.77530643857759 12.600927734375  L 6.82874797952586 11.047900390625  Z " fill-rule="nonzero" fill="#3e3a39" stroke="none" transform="matrix(1 0 0 1 240 571 )" />
  </g>
</svg>