<?xml version="1.0" encoding="utf-8"?>
<svg version="1.1" xmlns:xlink="http://www.w3.org/1999/xlink" width="3px" height="2px" xmlns="http://www.w3.org/2000/svg">
  <g transform="matrix(1 0 0 1 -239 -569 )">
    <path d="M 2.79966796875 0.501562499999995  C 2.6089453125 0.242724609374996  2.25474609375 0.183691406249995  1.92779296875 0.310839843749999  C 1.50275390625 0.4833984375  1.11041015625 0.724072265625001  0.783457031249999 1.01015625  C 0.55458984375 1.214501953125  0.521894531249998 1.568701171875  0.783457031249999 1.76396484375  C 1.03412109375 1.9546875  1.4428125 1.98193359375  1.68802734375 1.76396484375  C 1.7588671875 1.704931640625  1.8242578125 1.6458984375  1.900546875 1.59140625  C 1.9332421875 1.568701171875  1.9659375 1.541455078125  1.9986328125 1.51875  C 2.09126953125 1.45517578125  1.88419921875 1.58232421875  2.053125 1.482421875  C 2.2166015625 1.387060546875  2.38552734375 1.305322265625  2.57080078125 1.232666015625  C 2.87595703125 1.11005859375  2.9794921875 0.728613281249995  2.79966796875 0.501562499999995  Z " fill-rule="nonzero" fill="#ffffff" stroke="none" transform="matrix(1 0 0 1 239 569 )" />
  </g>
</svg>