<?xml version="1.0" encoding="utf-8"?>
<svg version="1.1" xmlns:xlink="http://www.w3.org/1999/xlink" width="29px" height="29px" xmlns="http://www.w3.org/2000/svg">
  <g transform="matrix(1 0 0 1 -232 -564 )">
    <path d="M 28.873046875 14.742529296875  C 28.873046875 22.60302734375  22.479296875 28.992236328125  14.618798828125 28.992236328125  C 6.75830078125 28.992236328125  0.364550781250003 22.598486328125  0.364550781250003 14.73798828125  C 0.364550781250003 12.5673828125  0.841357421875003 10.483056640625  1.776806640625 8.539501953125  C 1.885791015625 8.312451171875  2.16279296875 8.21708984375  2.38984375 8.32607421875001  C 2.61689453125 8.43505859375  2.712255859375 8.71206054687501  2.603271484375 8.93911132812501  C 1.72685546875 10.755517578125  1.2818359375 12.70361328125  1.2818359375 14.73798828125  C 1.2818359375 22.09443359375  7.26689453125 28.0794921875  14.62333984375 28.0794921875  C 21.97978515625 28.0794921875  27.96484375 22.09443359375  27.96484375 14.73798828125  C 27.96484375 7.38154296875  21.975244140625 1.401025390625  14.618798828125 1.401025390625  C 11.4173828125 1.401025390625  8.32041015625 2.554443359375  5.900048828125 4.6478515625  C 5.709326171875 4.811328125  5.418701171875 4.7931640625  5.255224609375 4.60244140625  C 5.091748046875 4.41171875  5.109912109375 4.12109375  5.300634765625 3.9576171875  C 7.889013671875 1.7234375  11.194873046875 0.48828125  14.618798828125 0.48828125  C 22.479296875 0.48828125  28.873046875 6.88203125  28.873046875 14.742529296875  Z " fill-rule="nonzero" fill="#3e3a39" stroke="none" transform="matrix(1 0 0 1 232 564 )" />
  </g>
</svg>