<?xml version="1.0" encoding="utf-8"?>
<svg version="1.1" xmlns:xlink="http://www.w3.org/1999/xlink" width="12px" height="12px" xmlns="http://www.w3.org/2000/svg">
  <g transform="matrix(1 0 0 1 -241 -573 )">
    <path d="M 6.40439453125 10.038332201087  C 6.23183593749999 9.94356317934782  6.02294921875 9.94356317934782  5.850390625 10.038332201087  L 3.27109375 11.4835597826087  C 2.83515625 11.7252207880435  2.331103515625 11.3319293478261  2.412841796875 10.8201766304348  L 2.9078125 7.75913722826087  C 2.939599609375 7.55538383152174  2.876025390625 7.34689198369565  2.739794921875 7.2  L 0.650927734374999 5.03452785326087  C 0.30126953125 4.66966711956521  0.491992187499999 4.03471467391304  0.977880859374999 3.95889945652174  L 3.86142578125 3.51348505434782  C 4.0521484375 3.48505434782608  4.220166015625 3.35711616847826  4.3064453125 3.167578125  L 5.59609374999999 0.381368885869562  C 5.8140625 -0.0877377717391327  6.44072265625 -0.0877377717391327  6.65869140625 0.381368885869562  L 7.94833984375 3.167578125  C 8.034619140625 3.3523777173913  8.20263671875 3.48031589673913  8.393359375 3.51348505434782  L 11.276904296875 3.95889945652174  C 11.76279296875 4.03471467391304  11.958056640625 4.66966711956521  11.603857421875 5.03452785326087  L 9.514990234375 7.2  C 9.37421875 7.34689198369565  9.31064453125 7.55538383152174  9.34697265625 7.75913722826087  L 9.84194335937499 10.8201766304348  C 9.92368164062499 11.336667798913  9.41962890625 11.7252207880435  8.98369140625 11.4835597826087  L 6.40439453125 10.038332201087  Z " fill-rule="nonzero" fill="#ffffff" stroke="none" transform="matrix(1 0 0 1 241 573 )" />
  </g>
</svg>