<?xml version="1.0" encoding="utf-8"?>
<svg version="1.1" xmlns:xlink="http://www.w3.org/1999/xlink" width="33px" height="26px" xmlns="http://www.w3.org/2000/svg">
  <g transform="matrix(1 0 0 1 -280 -481 )">
    <path d="M 32.2113846153846 24.7059428571429  C 32.2113846153846 25.0491428571429  31.8949230769231 25.3433142857143  31.4853846153846 25  L 1.496 25  C 1.08646153846154 25.3433142857143  0.77 25.0491428571429  1 24.7059428571429  L 1 11.2230857142857  C 0.77 10.8635428571429  1.10507692307692 10.5857142857143  1.496 10.5857142857143  L 5.46107692307692 10.5857142857143  L 5.46107692307692 11.8604571428571  L 2.222 11.8604571428571  L 2.222 24  L 30.7593846153846 24  L 30.7593846153846 19.4272  L 26.6453846153846 19.4272  C 26.2358461538462 19.4272  25.9193846153846 19.1330285714286  25.9193846153846 18.7898285714286  L 25.9193846153846 14.508  C 25.9193846153846 14.1484571428571  26.2544615384615 13.8706285714286  26.6453846153846 13.8706285714286  L 30.7593846153846 13.8706285714286  L 30.7593846153846 10  L 1.496 10  C 1.08646153846154 9.57245714285714  0.77 9.27828571428571  0.77 8.93508571428571  L 0.77 5.4704  C 0.77 5.11085714285714  1.10507692307692 4.83302857142857  1.496 4.83302857142857  L 9.81707692307692 4.83302857142857  L 12.6093846153846 0.404114285714286  C 12.7955384615385 0.0936000000000002  13.2236923076923 -0.0207999999999997  13.5773846153846 0.142628571428572  L 23.9647692307692 4.83302857142857  L 31.4853846153846 4.83302857142857  C 31.8949230769231 4.83302857142857  32.2113846153846 5.1272  32.2113846153846 5.4704  L 32.2113846153846 7.33348571428571  L 30.7593846153846 7.33348571428571  L 30.7593846153846 6.10777142857143  L 23.7786153846154 6.10777142857143  C 23.6669230769231 6.10777142857143  23.5552307692308 6.09142857142857  23.4435384615385 6.0424  L 13.5401538461538 1.54811428571429  L 10.8967692307692 5.78091428571429  C 10.7664615384615 5.97702857142857  10.5244615384615 6.10777142857143  10.2638461538462 6.10777142857143  L 2.222 6.10777142857143  L 2.222 8.29771428571429  L 31.4853846153846 8.29771428571429  C 31.8949230769231 8.29771428571429  32.2113846153846 8.59188571428571  32.2113846153846 8.93508571428571  L 32.2113846153846 14.508  C 32.2113846153846 14.8675428571429  31.8763076923077 15.1453714285714  31.4853846153846 15.1453714285714  L 27.3713846153846 15.1453714285714  L 27.3713846153846 18.1524571428571  L 31.4853846153846 18.1524571428571  C 31.8949230769231 18.1524571428571  32.2113846153846 18.4466285714286  32.2113846153846 18.7898285714286  L 32.2113846153846 24.7059428571429  Z " fill-rule="nonzero" fill="#333333" stroke="none" transform="matrix(1 0 0 1 280 481 )" />
  </g>
</svg>