<?xml version="1.0" encoding="utf-8"?>
<svg version="1.1" xmlns:xlink="http://www.w3.org/1999/xlink" width="12px" height="9px" xmlns="http://www.w3.org/2000/svg">
  <g transform="matrix(1 0 0 1 -290 -494 )">
    <path d="M 11.3125714285714 7.7055  C 11.2937142857143 8.085  10.9542857142857 8.3655  10.5582857142857 8.3655  L 0.658285714285715 8.3655  L 0.658285714285715 7.0785  L 9.82285714285714 7.0785  L 9.82285714285714 4.96649999999999  L 1.56342857142857 4.96649999999999  C 1.14857142857143 4.96649999999999  0.828000000000001 4.66949999999999  0.828000000000001 4.323  L 0.828000000000001 0.725999999999997  C 0.828000000000001 0.362999999999996  1.16742857142857 0.0824999999999996  1.56342857142857 0.0824999999999996  L 11.3691428571429 0.0824999999999996  L 11.3691428571429 1.3695  L 2.31771428571429 1.3695  L 2.31771428571429 3.663  L 10.5771428571429 3.663  C 10.992 3.663  11.3125714285714 3.96  11.3125714285714 4.3065  L 11.3125714285714 7.7055  Z " fill-rule="nonzero" fill="#333333" stroke="none" transform="matrix(1 0 0 1 290 494 )" />
  </g>
</svg>