<?xml version="1.0" encoding="utf-8"?>
<svg version="1.1" xmlns:xlink="http://www.w3.org/1999/xlink" width="13px" height="15px" xmlns="http://www.w3.org/2000/svg">
  <g transform="matrix(1 0 0 1 -485 -491 )">
    <path d="M 12.3390189588216 0.66444096609933  C 12.11099540625 0.43897879952567  11.7415021022135 0.43897879952567  11.5134785221354 0.66444093889509  L 6.5 5.62285412039621  L 1.48646517203776 0.66444093889509  C 1.25849789778646 0.43897879952567  0.888891982096356 0.439006629464285  0.660924735351566 0.664468768833705  C 0.432985600260419 0.889903078264508  0.432985600260419 1.25544736328125  0.660924735351566 1.48090950265067  L 5.09070685449219 5.86198484026228  L 2.10255948567709 5.86198484026228  C 1.78015707991537 5.86198484026228  1.51883491601563 6.12049099190848  1.51883491601563 6.43929485421317  C 1.51883491601563 6.75809871651785  1.78018521907552 7.01660486816406  2.10255948567709 7.01660486816406  L 5.92598635628256 7.01660486816406  L 5.92598635628256 9.44131805873326  L 2.4236389383138 9.44131805873326  C 2.10123653255208 9.44131805873326  1.83991436865235 9.69982421037947  1.83991436865235 10.0186280726841  C 1.83991436865235 10.3374319349888  2.10126467171224 10.595938086635  2.4236389383138 10.595938086635  L 5.92601449544271 10.595938086635  L 5.92601449544271 14.175271305106  C 5.92601449544271 14.4940751674107  6.18739293766276 14.7525813190569  6.50973906510417 14.7525813190569  C 6.83208519254558 14.7525813190569  7.09346363476563 14.4940751674107  7.09346363476563 14.175271305106  L 7.09346363476563 10.595938086635  L 10.5958110527344 10.595938086635  C 10.9181853193359 10.595938086635  11.1795356223958 10.3374319349888  11.1795356223958 10.0186280726842  C 11.1795356223958 9.69982421037947  10.9181852918294 9.44131805873326  10.5958110527344 9.44131805873326  L 7.09346363476563 9.44131805873326  L 7.09346363476563 7.01660486816406  L 10.9168623662109 7.01660486816406  C 11.2392366328125 7.01660486816406  11.5005869358724 6.75809871651786  11.5005869358724 6.43929485421317  C 11.5005869358724 6.12049099190848  11.2392084936523 5.86198484026228  10.9168623662109 5.86198484026228  L 7.90926500634765 5.86198486746652  L 12.3390189588216 1.48090952985491  C 12.5669862330729 1.25544739048549  12.5669862330729 0.889903078264508  12.3390189588216 0.66444096609933  Z " fill-rule="nonzero" fill="#333333" stroke="none" transform="matrix(1 0 0 1 485 491 )" />
  </g>
</svg>