<?xml version="1.0" encoding="utf-8"?>
<svg version="1.1" xmlns:xlink="http://www.w3.org/1999/xlink" width="8px" height="16px" xmlns="http://www.w3.org/2000/svg">
  <defs>
    <mask fill="white" id="clip443">
      <path d="M 1.10386022265625 5.84306023721591  C 1.838942390625 5.77559860227273  2.582698953125 5.81772394602273  3.48595185546875 5.81772394602273  C 2.96912780078125 4.32151102414773  2.52015961328125 3.02127254829545  2.0707717265625 1.72103407244318  C 1.99675982421875 1.50689689346591  1.86972240234375 1.29581229119318  1.861187953125 1.07892781107955  C 1.852793421875 0.865095877840911  1.9637412890625 0.645769372159093  2.02236319921875 0.428884892045456  C 2.2271900625 0.53206147159091  2.5454831796875 0.578307767045456  2.61711661328125 0.748182792613637  C 2.91806099609375 1.46187161079545  3.14261503515625 2.21371745880682  3.400187609375 2.94953735369318  C 3.556326109375 3.39566919886364  3.72169862109375 3.83798530823864  3.93044294140625 4.41278260227273  C 4.07315019140625 4.15865688920455  4.18367833203125 4.013202328125  4.2436993125 3.84607460369318  C 4.55807497265625 2.97105790909091  4.85524181640625 2.088715078125  5.16779865234375 1.21278261647727  C 5.30393016796875 0.831365075284091  5.355136890625 0.218868664772728  5.90386021875 0.448726521306818  C 6.414388375 0.6627110625  6.08490253125 1.13662119460227  5.962901828125 1.49483928409091  C 5.53310119921875 2.75676812215909  5.09182803515625 4.01396548721591  4.65908929296875 5.2746733125  C 4.61305920703125 5.40883339346591  4.59431140234375 5.55428792471591  4.535969328125 5.81451879119318  C 5.24418899609375 5.81451879119318  5.8886101171875 5.81283989488636  6.53317115625 5.81543455823863  C 6.74261501171875 5.81635032528409  6.97836177734375 5.76537255681818  7.15422748046875 5.85282842897727  C 7.3354097109375 5.94287899431818  7.45838978515625 6.17243160511363  7.6068332890625 6.34108561789772  C 7.44383924609375 6.49020324715909  7.2888200078125 6.75394454403409  7.116591953125 6.76798632528409  C 6.46727400390625 6.82064301988636  5.81012116796875 6.83025857386363  5.1603834921875 6.78233335227272  C 4.5892747109375 6.74020800852273  4.41606728515626 6.97922356534091  4.46489556640625 7.57187831676136  C 4.50644855078125 8.07646670454545  4.5002925703125 8.59051800852273  4.46615474609375 9.096480046875  C 4.4307577421875 9.619994296875  4.587875640625 9.83687877698863  5.0907087734375 9.80681107244318  C 5.7182009140625 9.76911192613636  6.351988953125 9.76193842755682  6.977102625 9.81917395738636  C 7.1932621328125 9.83901561647727  7.3916531796875 10.0908519119318  7.59815894921875 10.23661171875  C 7.39543071875 10.3896976619318  7.2016566640625 10.6543547258523  6.9881554609375 10.6749595142045  C 6.363461515625 10.7352475909091  5.72995328515625 10.7221215767045  5.101761609375 10.6917485965909  C 4.60592391015625 10.6677859857955  4.45160420703125 10.8909282272727  4.46517540234375 11.4116951761364  C 4.4920379296875 12.4536869872159  4.5026710390625 13.4985787073864  4.454262484375 14.5385863465909  C 4.44125093359375 14.8186588423295  4.19137335546875 15.0856053238636  4.05020512109375 15.3586569289773  C 3.90791759765625 15.086368453125  3.65762029296875 14.8207956221591  3.6427899453125 14.5405704886364  C 3.59200294921875 13.5773347627841  3.5864065859375 12.6066202926136  3.6362142109375 11.6432319289773  C 3.673150203125 10.9269484176136  3.48819043359375 10.6136030028409  2.7878056796875 10.6864066022727  C 2.21026108203125 10.7463894332386  1.62040449609375 10.7325002897727  1.0420204453125 10.67694365625  C 0.838592679687499 10.6574072727273  0.652933347656249 10.4168654275568  0.459159292968747 10.2773633821023  C 0.656850804687499 10.1181723153409  0.845168386718745 9.84115236647727  1.0537727890625 9.82176862073864  C 1.70183155859375 9.76132790625  2.358284859375 9.77811698863636  3.01012116796875 9.80497953835227  C 3.4445387890625 9.82298966335227  3.66041848828125 9.69295053409091  3.63089765624999 9.16852051704545  C 3.5981589296875 8.58578656534091  3.60515439062499 7.99816853267045  3.62921875 7.41451881392045  C 3.6478266640625 6.96212923721591  3.50903687109375 6.76813896306818  3.07308023437499 6.78721746306818  C 2.42138384375 6.81560627130681  1.7652103515625 6.82919016903409  1.116452046875 6.77317568181818  C 0.890219101562494 6.75363929829545  0.680495410156245 6.50851861789772  0.463216640624997 6.36642187926136  C 0.676158226562497 6.18357344744318  0.878466730468745 5.86366502556818  1.10386022265625 5.84306023721591  Z " fill-rule="evenodd" />
    </mask>
  </defs>
  <g transform="matrix(1 0 0 1 -356 -490 )">
    <path d="M 1.10386022265625 5.84306023721591  C 1.838942390625 5.77559860227273  2.582698953125 5.81772394602273  3.48595185546875 5.81772394602273  C 2.96912780078125 4.32151102414773  2.52015961328125 3.02127254829545  2.0707717265625 1.72103407244318  C 1.99675982421875 1.50689689346591  1.86972240234375 1.29581229119318  1.861187953125 1.07892781107955  C 1.852793421875 0.865095877840911  1.9637412890625 0.645769372159093  2.02236319921875 0.428884892045456  C 2.2271900625 0.53206147159091  2.5454831796875 0.578307767045456  2.61711661328125 0.748182792613637  C 2.91806099609375 1.46187161079545  3.14261503515625 2.21371745880682  3.400187609375 2.94953735369318  C 3.556326109375 3.39566919886364  3.72169862109375 3.83798530823864  3.93044294140625 4.41278260227273  C 4.07315019140625 4.15865688920455  4.18367833203125 4.013202328125  4.2436993125 3.84607460369318  C 4.55807497265625 2.97105790909091  4.85524181640625 2.088715078125  5.16779865234375 1.21278261647727  C 5.30393016796875 0.831365075284091  5.355136890625 0.218868664772728  5.90386021875 0.448726521306818  C 6.414388375 0.6627110625  6.08490253125 1.13662119460227  5.962901828125 1.49483928409091  C 5.53310119921875 2.75676812215909  5.09182803515625 4.01396548721591  4.65908929296875 5.2746733125  C 4.61305920703125 5.40883339346591  4.59431140234375 5.55428792471591  4.535969328125 5.81451879119318  C 5.24418899609375 5.81451879119318  5.8886101171875 5.81283989488636  6.53317115625 5.81543455823863  C 6.74261501171875 5.81635032528409  6.97836177734375 5.76537255681818  7.15422748046875 5.85282842897727  C 7.3354097109375 5.94287899431818  7.45838978515625 6.17243160511363  7.6068332890625 6.34108561789772  C 7.44383924609375 6.49020324715909  7.2888200078125 6.75394454403409  7.116591953125 6.76798632528409  C 6.46727400390625 6.82064301988636  5.81012116796875 6.83025857386363  5.1603834921875 6.78233335227272  C 4.5892747109375 6.74020800852273  4.41606728515626 6.97922356534091  4.46489556640625 7.57187831676136  C 4.50644855078125 8.07646670454545  4.5002925703125 8.59051800852273  4.46615474609375 9.096480046875  C 4.4307577421875 9.619994296875  4.587875640625 9.83687877698863  5.0907087734375 9.80681107244318  C 5.7182009140625 9.76911192613636  6.351988953125 9.76193842755682  6.977102625 9.81917395738636  C 7.1932621328125 9.83901561647727  7.3916531796875 10.0908519119318  7.59815894921875 10.23661171875  C 7.39543071875 10.3896976619318  7.2016566640625 10.6543547258523  6.9881554609375 10.6749595142045  C 6.363461515625 10.7352475909091  5.72995328515625 10.7221215767045  5.101761609375 10.6917485965909  C 4.60592391015625 10.6677859857955  4.45160420703125 10.8909282272727  4.46517540234375 11.4116951761364  C 4.4920379296875 12.4536869872159  4.5026710390625 13.4985787073864  4.454262484375 14.5385863465909  C 4.44125093359375 14.8186588423295  4.19137335546875 15.0856053238636  4.05020512109375 15.3586569289773  C 3.90791759765625 15.086368453125  3.65762029296875 14.8207956221591  3.6427899453125 14.5405704886364  C 3.59200294921875 13.5773347627841  3.5864065859375 12.6066202926136  3.6362142109375 11.6432319289773  C 3.673150203125 10.9269484176136  3.48819043359375 10.6136030028409  2.7878056796875 10.6864066022727  C 2.21026108203125 10.7463894332386  1.62040449609375 10.7325002897727  1.0420204453125 10.67694365625  C 0.838592679687499 10.6574072727273  0.652933347656249 10.4168654275568  0.459159292968747 10.2773633821023  C 0.656850804687499 10.1181723153409  0.845168386718745 9.84115236647727  1.0537727890625 9.82176862073864  C 1.70183155859375 9.76132790625  2.358284859375 9.77811698863636  3.01012116796875 9.80497953835227  C 3.4445387890625 9.82298966335227  3.66041848828125 9.69295053409091  3.63089765624999 9.16852051704545  C 3.5981589296875 8.58578656534091  3.60515439062499 7.99816853267045  3.62921875 7.41451881392045  C 3.6478266640625 6.96212923721591  3.50903687109375 6.76813896306818  3.07308023437499 6.78721746306818  C 2.42138384375 6.81560627130681  1.7652103515625 6.82919016903409  1.116452046875 6.77317568181818  C 0.890219101562494 6.75363929829545  0.680495410156245 6.50851861789772  0.463216640624997 6.36642187926136  C 0.676158226562497 6.18357344744318  0.878466730468745 5.86366502556818  1.10386022265625 5.84306023721591  Z " fill-rule="nonzero" fill="#333333" stroke="none" transform="matrix(1 0 0 1 356 490 )" />
    <path d="M 1.10386022265625 5.84306023721591  C 1.838942390625 5.77559860227273  2.582698953125 5.81772394602273  3.48595185546875 5.81772394602273  C 2.96912780078125 4.32151102414773  2.52015961328125 3.02127254829545  2.0707717265625 1.72103407244318  C 1.99675982421875 1.50689689346591  1.86972240234375 1.29581229119318  1.861187953125 1.07892781107955  C 1.852793421875 0.865095877840911  1.9637412890625 0.645769372159093  2.02236319921875 0.428884892045456  C 2.2271900625 0.53206147159091  2.5454831796875 0.578307767045456  2.61711661328125 0.748182792613637  C 2.91806099609375 1.46187161079545  3.14261503515625 2.21371745880682  3.400187609375 2.94953735369318  C 3.556326109375 3.39566919886364  3.72169862109375 3.83798530823864  3.93044294140625 4.41278260227273  C 4.07315019140625 4.15865688920455  4.18367833203125 4.013202328125  4.2436993125 3.84607460369318  C 4.55807497265625 2.97105790909091  4.85524181640625 2.088715078125  5.16779865234375 1.21278261647727  C 5.30393016796875 0.831365075284091  5.355136890625 0.218868664772728  5.90386021875 0.448726521306818  C 6.414388375 0.6627110625  6.08490253125 1.13662119460227  5.962901828125 1.49483928409091  C 5.53310119921875 2.75676812215909  5.09182803515625 4.01396548721591  4.65908929296875 5.2746733125  C 4.61305920703125 5.40883339346591  4.59431140234375 5.55428792471591  4.535969328125 5.81451879119318  C 5.24418899609375 5.81451879119318  5.8886101171875 5.81283989488636  6.53317115625 5.81543455823863  C 6.74261501171875 5.81635032528409  6.97836177734375 5.76537255681818  7.15422748046875 5.85282842897727  C 7.3354097109375 5.94287899431818  7.45838978515625 6.17243160511363  7.6068332890625 6.34108561789772  C 7.44383924609375 6.49020324715909  7.2888200078125 6.75394454403409  7.116591953125 6.76798632528409  C 6.46727400390625 6.82064301988636  5.81012116796875 6.83025857386363  5.1603834921875 6.78233335227272  C 4.5892747109375 6.74020800852273  4.41606728515626 6.97922356534091  4.46489556640625 7.57187831676136  C 4.50644855078125 8.07646670454545  4.5002925703125 8.59051800852273  4.46615474609375 9.096480046875  C 4.4307577421875 9.619994296875  4.587875640625 9.83687877698863  5.0907087734375 9.80681107244318  C 5.7182009140625 9.76911192613636  6.351988953125 9.76193842755682  6.977102625 9.81917395738636  C 7.1932621328125 9.83901561647727  7.3916531796875 10.0908519119318  7.59815894921875 10.23661171875  C 7.39543071875 10.3896976619318  7.2016566640625 10.6543547258523  6.9881554609375 10.6749595142045  C 6.363461515625 10.7352475909091  5.72995328515625 10.7221215767045  5.101761609375 10.6917485965909  C 4.60592391015625 10.6677859857955  4.45160420703125 10.8909282272727  4.46517540234375 11.4116951761364  C 4.4920379296875 12.4536869872159  4.5026710390625 13.4985787073864  4.454262484375 14.5385863465909  C 4.44125093359375 14.8186588423295  4.19137335546875 15.0856053238636  4.05020512109375 15.3586569289773  C 3.90791759765625 15.086368453125  3.65762029296875 14.8207956221591  3.6427899453125 14.5405704886364  C 3.59200294921875 13.5773347627841  3.5864065859375 12.6066202926136  3.6362142109375 11.6432319289773  C 3.673150203125 10.9269484176136  3.48819043359375 10.6136030028409  2.7878056796875 10.6864066022727  C 2.21026108203125 10.7463894332386  1.62040449609375 10.7325002897727  1.0420204453125 10.67694365625  C 0.838592679687499 10.6574072727273  0.652933347656249 10.4168654275568  0.459159292968747 10.2773633821023  C 0.656850804687499 10.1181723153409  0.845168386718745 9.84115236647727  1.0537727890625 9.82176862073864  C 1.70183155859375 9.76132790625  2.358284859375 9.77811698863636  3.01012116796875 9.80497953835227  C 3.4445387890625 9.82298966335227  3.66041848828125 9.69295053409091  3.63089765624999 9.16852051704545  C 3.5981589296875 8.58578656534091  3.60515439062499 7.99816853267045  3.62921875 7.41451881392045  C 3.6478266640625 6.96212923721591  3.50903687109375 6.76813896306818  3.07308023437499 6.78721746306818  C 2.42138384375 6.81560627130681  1.7652103515625 6.82919016903409  1.116452046875 6.77317568181818  C 0.890219101562494 6.75363929829545  0.680495410156245 6.50851861789772  0.463216640624997 6.36642187926136  C 0.676158226562497 6.18357344744318  0.878466730468745 5.86366502556818  1.10386022265625 5.84306023721591  Z " stroke-width="2" stroke="#333333" fill="none" transform="matrix(1 0 0 1 356 490 )" mask="url(#clip443)" />
  </g>
</svg>