<?xml version="1.0" encoding="utf-8"?>
<svg version="1.1" xmlns:xlink="http://www.w3.org/1999/xlink" width="27px" height="25px" xmlns="http://www.w3.org/2000/svg">
  <g transform="matrix(1 0 0 1 -478 -485 )">
    <path d="M 26.2600267126465 12.4999721428571  C 26.2600267126465 5.79913390415737  20.5359094006348 0.347593607003375  13.5 0.347593607003375  C 6.46409059936525 0.347593607003375  0.739973287353507 5.79913390415737  0.739973287353507 12.4999721428571  C 0.739973287353507 19.2008382386998  6.46409059936525 24.6523785358538  13.5 24.6523785358538  C 20.5359094006348 24.6523785358538  26.2600267126465 19.2008382386998  26.2600267126465 12.4999721428571  Z M 25.0476756833496 12.5  C 25.0476756833496 18.5642048883929  19.867385911377 23.497758507952  13.5 23.497758507952  C 7.13258486718752 23.497758507952  1.95232431665039 18.5641770584542  1.95232431665039 12.4999721428571  C 1.95232431665039 6.43576722726004  7.13258486718752 1.50224149204797  13.5 1.50224149204797  C 18.2341207588113 1.50224149204797  22.3120061901598 4.22941133448018  24.0925400839646 8.12080609808891  C 24.706832819539 9.4633559607197  25.0476756833496 10.9444815485703  25.0476756833496 12.5  Z " fill-rule="nonzero" fill="#333333" stroke="none" transform="matrix(1 0 0 1 478 485 )" />
  </g>
</svg>