<?xml version="1.0" encoding="utf-8"?>
<svg version="1.1" xmlns:xlink="http://www.w3.org/1999/xlink" width="29px" height="26px" xmlns="http://www.w3.org/2000/svg">
  <g transform="matrix(1 0 0 1 -415 -485 )">
    <path d="M 28.5166666666667 13  L 14 13  L 14 0  L 12.7479166666667 0  L 12.7479166666667 0.008125  C 5.83069166666666 0.836875  0.483333333333333 6.303375  0.483333333333333 12.943125  C 0.483333333333333 20.154875  6.78732916666667 26  14.563075 26  C 21.7238395833333 26  27.6213520833333 21.0405  28.5131625 14.625  L 28.5166666666667 14.625  L 28.5166666666667 13  Z M 12.7479166666667 14.625  L 21.2682979166667 14.625  C 20.4851166666667 17.424875  17.7606270833333 19.508125  14.5 19.508125  C 10.6314 19.508125  7.48290625 16.588  7.48290625 13  C 7.48290625 9.975875  9.72907708333334 7.449  12.7479166666667 6.722625  L 12.7479166666667 14.625  Z M 26.7347979166667 14.625  C 25.8535 20.12725  20.73916875 24.3685  14.563075 24.3685  C 7.77024791666667 24.3685  2.242425 19.24325  2.242425 12.94475  C 2.242425 7.219875  6.81361041666667 2.47975  12.7461645833333 1.66075  L 12.7461645833333 5.032625  C 8.74440625 5.783375  5.73082291666667 9.06425  5.73082291666667 13  C 5.73082291666667 17.4915  9.65724166666667 21.133125  14.5 21.133125  C 18.7435458333333 21.133125  22.2810020833333 18.338125  23.0922166666667 14.625  L 26.7347979166667 14.625  Z " fill-rule="nonzero" fill="#333333" stroke="none" transform="matrix(1 0 0 1 415 485 )" />
  </g>
</svg>