<?xml version="1.0" encoding="utf-8"?>
<svg version="1.1" xmlns:xlink="http://www.w3.org/1999/xlink" width="31px" height="22px" xmlns="http://www.w3.org/2000/svg">
  <defs>
    <mask fill="white" id="clip442">
      <path d="M 30.2988655963844 16.414046859375  C 30.2985629831032 18.2035956480469  30.2985629831032 19.9932983464844  30.2985629831032 21.8719552347656  C 20.2615196162791 21.8719552347656  10.3376464017078 21.8719552347656  0.35128753642805 21.8719552347656  C 0.35128753642805 19.5728436664063  0.35128753642805 17.283273871875  0.35128753642805 14.8942847152344  C 1.76107304106104 14.9287583070312  3.07206157807958 14.5449318050781  3.81614026648801 13.2335501890625  C 4.18696921670603 12.5799370425781  4.42798534870094 11.7434907347656  4.41830234465843 10.9938440003906  C 4.39288448492006 9.02392445625  3.07660054074309 7.9510877875  0.28925580564135 7.48107729101562  C 0.28925580564135 6.35560685117188  0.28925580564135 5.2107450140625  0.28925580564135 4.06588317695312  C 0.28925580564135 3.06630289453125  0.302721239144257 2.06641482265625  0.282750034066132 1.06729626953125  C 0.274731284792876 0.667925873828124  0.420581601562499 0.498635899609374  0.807145466615187 0.519104605078124  C 1.00806788181322 0.529723717187499  1.21020069099745 0.518335116406248  1.41172830318859 0.518335116406248  C 10.6839653024618 0.518181206640623  19.9562023017351 0.518027326953123  29.2284393010084 0.518335116406248  C 30.2984117356014 0.518335116406248  30.2985630126726 0.519258514843749  30.2987143193132 1.6045610625  C 30.2988656259538 3.29607558671875  30.2710269782431 4.98835959960937  30.3130875335211 6.6789506953125  C 30.3291250024982 7.32317594765625  30.1418193274437 7.57526408203125  29.4968401903615 7.66021685859375  C 27.8116941344477 7.88244839335938  26.5692431293605 9.2247639171875  26.4302011678779 10.8656453167969  C 26.2849560481014 12.5808604410156  27.2738332683957 14.1283245683594  28.8724374257812 14.6862119464844  C 28.943849606468 14.711143734375  29.0154130937954 14.7362294320312  29.0884895588209 14.7557747390625  C 30.2988655963844 15.0788107636719  30.2988655963844 15.0786568539062  30.2988655963844 16.414046859375  Z M 2.06593646525254 21.0195033941406  C 6.47669813876271 20.9942637265625  10.8877623368459 21.0064218160156  15.2988265349291 21.0064218160156  C 19.7351573452489 21.0064218160156  24.1714881555687 20.9958027039062  28.6075163526072 21.0185799054687  C 29.228439271439 21.0218118  29.4512997597656 20.8431339316406  29.4287564896439 20.1942916871094  C 29.3851829566679 18.9395452855469  29.3956224347747 17.681566959375  29.4264870378815 16.4260510390625  C 29.4382882166152 15.9469604378906  29.2482591698765 15.7535081945312  28.8234171790062 15.6189996316406  C 26.7854465099019 14.974004890625  25.5137951860465 13.3098845601563  25.473550162609 11.2833298316406  C 25.4331538621003 9.24892618632813  26.7494378062773 7.49739070351563  28.868201076399 6.82084644570313  C 29.2735257525436 6.69141657421875  29.4349596479379 6.50812171367188  29.425427950536 6.06812172656251  C 29.3994048642351 4.86370060000001  29.3711123261719 3.65573978945313  29.4326901961755 2.45393494843751  C 29.4723300226199 1.68043373437501  29.2485617535883 1.45420078632813  28.4695334489008 1.45727877109376  C 20.7818299765171 1.48728925039063  13.0939752270621 1.47543898046876  5.40612047760719 1.47543898046876  C 4.24658021865915 1.47543898046876  3.0862834856468 1.50283317421876  1.92810489775617 1.46420428945313  C 1.32200908348473 1.44388949375001  1.1403013993005 1.67258484765626  1.15694406527071 2.26817771210938  C 1.19189368154978 3.52353972265626  1.18357234856467 4.78090243984376  1.15875962668059 6.03672614960938  C 1.14998440334302 6.48026585078126  1.30113009770167 6.64478492304688  1.72793895662245 6.75297660039063  C 3.96849632526344 7.32055966210938  5.39976598310319 9.09825818085938  5.38599796588844 11.230696090625  C 5.37207864203306 13.3840644050781  3.96834501862281 15.1275970914063  1.72748506626998 15.7093389792969  C 1.30067620734919 15.8201469421875  1.1511947677598 15.9929766003906  1.15951610074491 16.4331305273438  C 1.18281584493095 17.6634068402344  1.21050318600108 18.8964533785156  1.15164865811228 20.1242672855469  C 1.11609387440952 20.8671424113281  1.39553943886264 21.0233508675781  2.06593646525254 21.0195033941406  Z " fill-rule="evenodd" />
    </mask>
  </defs>
  <g transform="matrix(1 0 0 1 -345 -485 )">
    <path d="M 30.2988655963844 16.414046859375  C 30.2985629831032 18.2035956480469  30.2985629831032 19.9932983464844  30.2985629831032 21.8719552347656  C 20.2615196162791 21.8719552347656  10.3376464017078 21.8719552347656  0.35128753642805 21.8719552347656  C 0.35128753642805 19.5728436664063  0.35128753642805 17.283273871875  0.35128753642805 14.8942847152344  C 1.76107304106104 14.9287583070312  3.07206157807958 14.5449318050781  3.81614026648801 13.2335501890625  C 4.18696921670603 12.5799370425781  4.42798534870094 11.7434907347656  4.41830234465843 10.9938440003906  C 4.39288448492006 9.02392445625  3.07660054074309 7.9510877875  0.28925580564135 7.48107729101562  C 0.28925580564135 6.35560685117188  0.28925580564135 5.2107450140625  0.28925580564135 4.06588317695312  C 0.28925580564135 3.06630289453125  0.302721239144257 2.06641482265625  0.282750034066132 1.06729626953125  C 0.274731284792876 0.667925873828124  0.420581601562499 0.498635899609374  0.807145466615187 0.519104605078124  C 1.00806788181322 0.529723717187499  1.21020069099745 0.518335116406248  1.41172830318859 0.518335116406248  C 10.6839653024618 0.518181206640623  19.9562023017351 0.518027326953123  29.2284393010084 0.518335116406248  C 30.2984117356014 0.518335116406248  30.2985630126726 0.519258514843749  30.2987143193132 1.6045610625  C 30.2988656259538 3.29607558671875  30.2710269782431 4.98835959960937  30.3130875335211 6.6789506953125  C 30.3291250024982 7.32317594765625  30.1418193274437 7.57526408203125  29.4968401903615 7.66021685859375  C 27.8116941344477 7.88244839335938  26.5692431293605 9.2247639171875  26.4302011678779 10.8656453167969  C 26.2849560481014 12.5808604410156  27.2738332683957 14.1283245683594  28.8724374257812 14.6862119464844  C 28.943849606468 14.711143734375  29.0154130937954 14.7362294320312  29.0884895588209 14.7557747390625  C 30.2988655963844 15.0788107636719  30.2988655963844 15.0786568539062  30.2988655963844 16.414046859375  Z M 2.06593646525254 21.0195033941406  C 6.47669813876271 20.9942637265625  10.8877623368459 21.0064218160156  15.2988265349291 21.0064218160156  C 19.7351573452489 21.0064218160156  24.1714881555687 20.9958027039062  28.6075163526072 21.0185799054687  C 29.228439271439 21.0218118  29.4512997597656 20.8431339316406  29.4287564896439 20.1942916871094  C 29.3851829566679 18.9395452855469  29.3956224347747 17.681566959375  29.4264870378815 16.4260510390625  C 29.4382882166152 15.9469604378906  29.2482591698765 15.7535081945312  28.8234171790062 15.6189996316406  C 26.7854465099019 14.974004890625  25.5137951860465 13.3098845601563  25.473550162609 11.2833298316406  C 25.4331538621003 9.24892618632813  26.7494378062773 7.49739070351563  28.868201076399 6.82084644570313  C 29.2735257525436 6.69141657421875  29.4349596479379 6.50812171367188  29.425427950536 6.06812172656251  C 29.3994048642351 4.86370060000001  29.3711123261719 3.65573978945313  29.4326901961755 2.45393494843751  C 29.4723300226199 1.68043373437501  29.2485617535883 1.45420078632813  28.4695334489008 1.45727877109376  C 20.7818299765171 1.48728925039063  13.0939752270621 1.47543898046876  5.40612047760719 1.47543898046876  C 4.24658021865915 1.47543898046876  3.0862834856468 1.50283317421876  1.92810489775617 1.46420428945313  C 1.32200908348473 1.44388949375001  1.1403013993005 1.67258484765626  1.15694406527071 2.26817771210938  C 1.19189368154978 3.52353972265626  1.18357234856467 4.78090243984376  1.15875962668059 6.03672614960938  C 1.14998440334302 6.48026585078126  1.30113009770167 6.64478492304688  1.72793895662245 6.75297660039063  C 3.96849632526344 7.32055966210938  5.39976598310319 9.09825818085938  5.38599796588844 11.230696090625  C 5.37207864203306 13.3840644050781  3.96834501862281 15.1275970914063  1.72748506626998 15.7093389792969  C 1.30067620734919 15.8201469421875  1.1511947677598 15.9929766003906  1.15951610074491 16.4331305273438  C 1.18281584493095 17.6634068402344  1.21050318600108 18.8964533785156  1.15164865811228 20.1242672855469  C 1.11609387440952 20.8671424113281  1.39553943886264 21.0233508675781  2.06593646525254 21.0195033941406  Z " fill-rule="nonzero" fill="#333333" stroke="none" transform="matrix(1 0 0 1 345 485 )" />
    <path d="M 30.2988655963844 16.414046859375  C 30.2985629831032 18.2035956480469  30.2985629831032 19.9932983464844  30.2985629831032 21.8719552347656  C 20.2615196162791 21.8719552347656  10.3376464017078 21.8719552347656  0.35128753642805 21.8719552347656  C 0.35128753642805 19.5728436664063  0.35128753642805 17.283273871875  0.35128753642805 14.8942847152344  C 1.76107304106104 14.9287583070312  3.07206157807958 14.5449318050781  3.81614026648801 13.2335501890625  C 4.18696921670603 12.5799370425781  4.42798534870094 11.7434907347656  4.41830234465843 10.9938440003906  C 4.39288448492006 9.02392445625  3.07660054074309 7.9510877875  0.28925580564135 7.48107729101562  C 0.28925580564135 6.35560685117188  0.28925580564135 5.2107450140625  0.28925580564135 4.06588317695312  C 0.28925580564135 3.06630289453125  0.302721239144257 2.06641482265625  0.282750034066132 1.06729626953125  C 0.274731284792876 0.667925873828124  0.420581601562499 0.498635899609374  0.807145466615187 0.519104605078124  C 1.00806788181322 0.529723717187499  1.21020069099745 0.518335116406248  1.41172830318859 0.518335116406248  C 10.6839653024618 0.518181206640623  19.9562023017351 0.518027326953123  29.2284393010084 0.518335116406248  C 30.2984117356014 0.518335116406248  30.2985630126726 0.519258514843749  30.2987143193132 1.6045610625  C 30.2988656259538 3.29607558671875  30.2710269782431 4.98835959960937  30.3130875335211 6.6789506953125  C 30.3291250024982 7.32317594765625  30.1418193274437 7.57526408203125  29.4968401903615 7.66021685859375  C 27.8116941344477 7.88244839335938  26.5692431293605 9.2247639171875  26.4302011678779 10.8656453167969  C 26.2849560481014 12.5808604410156  27.2738332683957 14.1283245683594  28.8724374257812 14.6862119464844  C 28.943849606468 14.711143734375  29.0154130937954 14.7362294320312  29.0884895588209 14.7557747390625  C 30.2988655963844 15.0788107636719  30.2988655963844 15.0786568539062  30.2988655963844 16.414046859375  Z " stroke-width="2" stroke="#333333" fill="none" transform="matrix(1 0 0 1 345 485 )" mask="url(#clip442)" />
    <path d="M 2.06593646525254 21.0195033941406  C 6.47669813876271 20.9942637265625  10.8877623368459 21.0064218160156  15.2988265349291 21.0064218160156  C 19.7351573452489 21.0064218160156  24.1714881555687 20.9958027039062  28.6075163526072 21.0185799054687  C 29.228439271439 21.0218118  29.4512997597656 20.8431339316406  29.4287564896439 20.1942916871094  C 29.3851829566679 18.9395452855469  29.3956224347747 17.681566959375  29.4264870378815 16.4260510390625  C 29.4382882166152 15.9469604378906  29.2482591698765 15.7535081945312  28.8234171790062 15.6189996316406  C 26.7854465099019 14.974004890625  25.5137951860465 13.3098845601563  25.473550162609 11.2833298316406  C 25.4331538621003 9.24892618632813  26.7494378062773 7.49739070351563  28.868201076399 6.82084644570313  C 29.2735257525436 6.69141657421875  29.4349596479379 6.50812171367188  29.425427950536 6.06812172656251  C 29.3994048642351 4.86370060000001  29.3711123261719 3.65573978945313  29.4326901961755 2.45393494843751  C 29.4723300226199 1.68043373437501  29.2485617535883 1.45420078632813  28.4695334489008 1.45727877109376  C 20.7818299765171 1.48728925039063  13.0939752270621 1.47543898046876  5.40612047760719 1.47543898046876  C 4.24658021865915 1.47543898046876  3.0862834856468 1.50283317421876  1.92810489775617 1.46420428945313  C 1.32200908348473 1.44388949375001  1.1403013993005 1.67258484765626  1.15694406527071 2.26817771210938  C 1.19189368154978 3.52353972265626  1.18357234856467 4.78090243984376  1.15875962668059 6.03672614960938  C 1.14998440334302 6.48026585078126  1.30113009770167 6.64478492304688  1.72793895662245 6.75297660039063  C 3.96849632526344 7.32055966210938  5.39976598310319 9.09825818085938  5.38599796588844 11.230696090625  C 5.37207864203306 13.3840644050781  3.96834501862281 15.1275970914063  1.72748506626998 15.7093389792969  C 1.30067620734919 15.8201469421875  1.1511947677598 15.9929766003906  1.15951610074491 16.4331305273438  C 1.18281584493095 17.6634068402344  1.21050318600108 18.8964533785156  1.15164865811228 20.1242672855469  C 1.11609387440952 20.8671424113281  1.39553943886264 21.0233508675781  2.06593646525254 21.0195033941406  Z " stroke-width="2" stroke="#333333" fill="none" transform="matrix(1 0 0 1 345 485 )" mask="url(#clip442)" />
  </g>
</svg>