<?xml version="1.0" encoding="utf-8"?>
<svg version="1.1" xmlns:xlink="http://www.w3.org/1999/xlink" width="8px" height="8px" xmlns="http://www.w3.org/2000/svg">
  <g transform="matrix(1 0 0 1 -233 -812 )">
    <path d="M 1.38480392156863 3.94607843137255  C 1.38480392156863 2.47242647058823  2.58578431372549 1.27144607843137  4.0594362745098 1.27144607843137  C 5.53308823529412 1.27144607843137  6.73406862745098 2.47242647058823  6.73406862745098 3.94607843137255  C 6.73406862745098 5.41973039215686  5.53308823529412 6.62071078431373  4.0594362745098 6.62071078431373  C 2.58578431372549 6.62071078431373  1.38480392156863 5.41973039215686  1.38480392156863 3.94607843137255  Z M 7.98713235294118 3.94607843137255  C 7.98713235294118 1.77696078431372  6.22855392156863 0.0183823529411765  4.0594362745098 0.0183823529411754  C 1.89031862745098 0.0183823529411754  0.131740196078431 1.77696078431372  0.131740196078431 3.94607843137255  C 0.131740196078431 6.11519607843137  1.89031862745098 7.87377450980392  4.0594362745098 7.87377450980392  C 6.22855392156863 7.87377450980392  7.98713235294118 6.11519607843137  7.98713235294118 3.94607843137255  Z " fill-rule="nonzero" fill="#231815" stroke="none" transform="matrix(1 0 0 1 233 812 )" />
  </g>
</svg>