<?xml version="1.0" encoding="utf-8"?>
<svg version="1.1" xmlns:xlink="http://www.w3.org/1999/xlink" width="22px" height="24px" xmlns="http://www.w3.org/2000/svg">
  <g transform="matrix(1 0 0 1 -226 -806 )">
    <path d="M 11.2996040239726 23.657429245283  L 10.9817529965753 23.8549528301887  L 10.6639019691781 23.657429245283  C 10.5579516267123 23.5896226415094  8.00925727739726 22.0035377358491  5.42230308219178 19.686320754717  C 3.88896618150685 18.3125  2.6646511130137 16.9652122641509  1.78173159246575 15.688679245283  C 0.639822345890412 14.0347877358491  0.0629815924657545 12.4752358490566  0.0629815924657545 11.0483490566038  C 0.0629815924657545 9.57134433962264  0.351401969178083 8.13856132075471  0.922356592465754 6.79127358490566  C 1.47270976027397 5.48820754716981  2.25850813356164 4.31780660377358  3.26209332191781 3.31544811320755  C 4.26567851027397 2.31014150943396  5.43113227739726 1.52299528301887  6.73196703767123 0.971698113207545  C 8.0798908390411 0.399764150943394  9.50727739726027 0.110849056603771  10.9817529965753 0.110849056603771  C 12.4562285958904 0.110849056603771  13.8865582191781 0.399764150943394  15.2315389554795 0.971698113207545  C 16.5323737157534 1.52299528301887  17.7007705479452 2.31014150943396  18.7014126712329 3.31544811320755  C 19.704997859589 4.32075471698113  20.4907962328767 5.48820754716981  21.0411494006849 6.79127358490566  C 21.6121040239726 8.14150943396226  21.9005244006849 9.57134433962264  21.9005244006849 11.0483490566038  C 21.9005244006849 12.4752358490566  21.3236836472603 14.0377358490566  20.1817744006849 15.688679245283  C 19.298854880137 16.9681603773585  18.0745398116438 18.3125  16.5412029109589 19.686320754717  C 13.9513056506849 22.0064858490566  11.4055543664384 23.592570754717  11.2996040239726 23.657429245283  Z M 20.6909246575342 11.0483490566038  C 20.6968107876712 5.67983490566038  16.3381314212329 1.31662735849057  10.9817529965753 1.31662735849057  C 5.62537457191781 1.31662735849057  1.26669520547945 5.68278301886792  1.26669520547945 11.0483490566038  C 1.26669520547945 13.2063679245283  2.97955907534246 15.8803066037736  6.22281678082192 18.7871462264151  C 8.21232876712329 20.5707547169811  10.2194991438356 21.9327830188679  10.9788099315069 22.4280660377358  C 11.7410637842466 21.9298349056604  13.7570633561644 20.5619103773585  15.7465753424658 18.7753537735849  C 18.9810038527397 15.8744103773585  20.6909246575342 13.2004716981132  20.6909246575342 11.0483490566038  Z " fill-rule="nonzero" fill="#231815" stroke="none" transform="matrix(1 0 0 1 226 806 )" />
  </g>
</svg>