<?xml version="1.0" encoding="utf-8"?>
<svg version="1.1" xmlns:xlink="http://www.w3.org/1999/xlink" width="9px" height="7px" xmlns="http://www.w3.org/2000/svg">
  <g transform="matrix(1 0 0 1 -411 -810 )">
    <path d="M 8.94125 1.36340909090909  C 8.94125 4.46090909090909  6.96250000000001 6.97931818181818  4.52875 6.97931818181818  C 2.09625 6.97931818181818  0.116249999999999 4.46090909090909  0.116249999999999 1.36340909090909  L 0.116249999999999 1.13909090909091  C 0.116249999999999 0.52340909090909  0.5075 0.0254545454545427  0.991250000000001 0.0254545454545427  C 1.475 0.0254545454545427  1.86625 0.523409090909087  1.86625 1.13909090909091  L 1.86625 1.36340909090909  C 1.86625 3.23272727272727  3.06 4.75204545454546  4.52875 4.75204545454546  C 5.9975 4.75204545454546  7.19125 3.23272727272727  7.19125 1.36340909090909  L 7.19125 1.13909090909091  C 7.19125 0.523409090909092  7.5825 0.0254545454545472  8.06625 0.0254545454545472  C 8.55 0.0254545454545472  8.94125 0.523409090909092  8.94125 1.13909090909091  L 8.94125 1.36340909090909  Z " fill-rule="nonzero" fill="#34332e" stroke="none" fill-opacity="0.764705882352941" transform="matrix(1 0 0 1 411 810 )" />
  </g>
</svg>