<?xml version="1.0" encoding="utf-8"?>
<svg version="1.1" xmlns:xlink="http://www.w3.org/1999/xlink" width="20px" height="25px" xmlns="http://www.w3.org/2000/svg">
  <g transform="matrix(1 0 0 1 -405 -801 )">
    <path d="M 19.15 23.2172413793103  C 18.5012195121951 24.2672413793103  17.5634146341463 24.8706896551724  16.5768292682927 24.8706896551724  L 3.48048780487805 24.8706896551724  C 2.48780487804878 24.8706896551724  1.54634146341463 24.2620689655172  0.897560975609756 23.2  C 0.249043750874537 22.1391662230596  -0.0415502018364603 20.732370468255  0.101219512195122 19.3448275862069  L 1.65487804878049 4.30172413793103  C 1.89756097560976 1.94655172413793  3.35121951219512 0.17068965517241  5.03414634146341 0.17068965517241  L 15.1243902439024 0.17068965517241  C 16.8231707317073 0.17068965517241  18.2780487804878 1.96551724137931  18.5073170731707 4.34482758620689  L 19.9609756097561 19.3896551724138  C 20.0951219512195 20.7706896551724  19.7987804878049 22.1672413793103  19.15 23.2172413793103  Z M 5.03292682926829 3  L 5.03292682926829 2.58448275862069  C 4.19146341463415 2.58448275862069  3.46463414634146 3.47241379310345  3.34390243902439 4.65  L 1.79024390243902 19.6931034482759  C 1.71829268292683 20.3879310344828  1.86341463414634 21.0896551724138  2.18780487804878 21.6206896551724  C 2.51219512195122 22.151724137931  2.98292682926829 22.4551724137931  3.47926829268293 22  L 16.5768292682927 22  C 17.5197829839949 22.4546910366109  18.2840174839159 21.373831359615  18.2840174839159 20.0406898125753  C 18.2840174839159 19.9313465514035  18.2787637900794 19.8221295745332  18.2682926829268 19.7137931034483  L 16.8146341463415 4.67241379310345  C 16.7 3.48275862068966  15.9719512195122 2.58620689655173  15.1231707317073 3  L 5.03292682926829 3  Z " fill-rule="nonzero" fill="#34332e" stroke="none" fill-opacity="0.776470588235294" transform="matrix(1 0 0 1 405 801 )" />
  </g>
</svg>