<?xml version="1.0" encoding="utf-8"?>
<svg version="1.1" xmlns:xlink="http://www.w3.org/1999/xlink" width="30px" height="34px" xmlns="http://www.w3.org/2000/svg">
  <g transform="matrix(1 0 0 1 -346 -457 )">
    <path d="M 17.8644324324324 10.8460414634146  C 17.3665135135135 19.0255707317073  19.0309054054054 21.2542707317073  21.9596756756757 22.4244097560976  L 21.9596756756757 31.7740780487805  C 21.9596756756757 32.5865951219512  22.6058513513513 33.2474804878049  23.4002837837838 33.2474804878049  L 27.9235135135135 33.2474804878049  C 28.7179459459459 33.2474804878049  29.3641216216216 32.5865951219512  29 31.7740780487805  L 29 2.25453170731707  C 29.3641216216216 1.48779024390244  28.793472972973 0.852653658536585  28.0465945945946 0.786851219512194  C 25.1457972972973 0.532224390243901  18.4238918918919 1.01572926829268  17.8644324324324 10.8460414634146  Z M 15.047554054054 15.2376390243902  L 14.2978783783784 2.34322195121951  C 14.2460417043626 1.443498767448  13.5175072603389 0.741029706751877  12.6362837837838 0.741075609756098  L 12 0.741075609756098  L 12 11.7043341463415  C 11.5285540540541 12.4939634146341  10.9019594594595 13.1348219512195  10.1299054054054 13.1348219512195  C 9.35785135135135 13.1348219512195  8.73125675675676 12.4939634146341  9 11.7043341463415  L 9 0.741075609756097  L 7 0.741075609756097  L 7 11.7043341463415  C 7.00532432432432 12.4939634146341  6.37872972972973 13.1348219512195  5.60667567567567 13.1348219512195  C 4.83462162162162 13.1348219512195  4.20802702702702 12.4939634146341  4.20802702702702 11.7043341463415  L 4.20802702702702 0.741075609756097  L 3.04435135135135 0.741075609756095  C 2.16312787479622 0.741029706751877  1.43459343077254 1.443498767448  1.38275675675675 2.34322195121951  L 0.635878378378376 15.2376390243902  C 0.635878378378376 17.4548951219512  1.7436081081081 19.4089414634146  4 20.5533317073171  L 4 31.4050121951219  C 3.42198648648648 32.4206585365854  4.22760810810811 33.2474804878049  5.22344594594594 33.2474804878049  L 10.5690810810811 33.2474804878049  C 11.5621216216216 33.2474804878049  12.3705405405405 32.4235195121951  12.3705405405405 31.4050121951219  L 12.3705405405405 20.4760853658537  C 13.9901756756757 19.3231121951219  15.047554054054 17.4062585365854  15.047554054054 15.2376390243902  Z " fill-rule="nonzero" fill="#ffffff" stroke="none" transform="matrix(1 0 0 1 346 457 )" />
  </g>
</svg>