<?xml version="1.0" encoding="utf-8"?>
<svg version="1.1" xmlns:xlink="http://www.w3.org/1999/xlink" width="25px" height="31px" xmlns="http://www.w3.org/2000/svg">
  <g transform="matrix(1 0 0 1 -175 -459 )">
    <path d="M 24.8631459693386 4.11027198231457  L 24.8631459358947 22.6229369076236  L 24.8631459358947 24.2012813283396  C 24.8631459358947 24.7054746955844  24.8080517020726 25.1439037105798  24.6978632344285 25.5165683733259  C 24.5876747667844 25.889233036072  24.389335525025 26.1851726211939  24.1028455091503 26.4043871286916  C 23.8163554932755 26.6236016361893  23.3866204694635 26.7332088899382  22.813640437714 26.7332088899382  L 22.813640437714 28.7719037763994  C 22.813640437714 29.3418614958934  22.6097917781464 29.8296137695313  22.2020944590111 30.2351605973128  C 21.7943971398759 30.6407074250944  21.3040584644335 30.8434808389852  20.7310784326841 30.8434808389852  C 20.1580984009346 30.8434808389852  19.6732691544485 30.6407074250944  19.2765906932256 30.2351605973128  C 18.8799122320027 29.8296137695313  18.6815729902433 29.3418614958934  18.6815729679473 28.7719037763994  L 18.6815729679473 26.7332088899382  L 6.25231395146618 26.7332088899382  L 6.25231395146618 28.7719037763994  C 6.25231395146618 29.3418614958934  6.05397470970676 29.8296137695313  5.65729622618793 30.2351605973128  C 5.26061774266909 30.6407074250944  4.77578849618293 30.8434808389852  4.20280848672945 30.8434808389852  C 3.62982847727597 30.8434808389852  3.13948980183362 30.6407074250944  2.7317924604024 30.2351605973128  C 2.32409511897117 29.8296137695313  2.12024645940354 29.3418614958934  2.12024648169948 28.7719037763994  L 2.12024648169948 26.7332088899382  C 1.56930414347888 26.7332088899382  1.15058796643122 26.6236016361893  0.864097950556505 26.4043871286916  C 0.577607934681791 26.1851726211939  0.379268692922373 25.889233036072  0.269080225278252 25.5165683733259  C 0.158891757634131 25.1439037105798  0.0982881060038512 24.7109550638164  0.0872692703874126 24.2177224330357  C 0.0762504347709741 23.724489802255  0.0707410169627545 23.1928946271177  0 22.6229369076236  L 0 4.11027198231457  C 0.0707410169627564 3.54031426282052  0.180929484606877 3.00871908768316  0.401306419895119 2.51548645690248  C 0.621683355183361 2.0222538261218  0.919192217822488 1.58930517935841  1.2938330078125 1.2166405166123  C 1.66847379780251 0.843975853866191  2.1037182394228 0.548036268744282  2.59956633267337 0.328821761246572  C 3.09541442592394 0.109607253748857  3.62982848842394 0  4.20280852017337 0  L 20.731078466128 0  C 21.3040584978774 0  21.8384725603774 0.109607253748857  22.334320653628 0.328821761246572  C 22.8301687468786 0.548036268744286  23.2654131884989 0.843975853866195  23.6400539784889 1.2166405166123  C 24.0146947684789 1.5893051793584  24.312203631118 2.0222538261218  24.5325805664062 2.51548645690248  C 24.7529575016945 3.00871908768316  24.8631459693386 3.54031426282052  24.8631459693386 4.11027198231457  Z M 16.6651240100599 2.0386948864612  L 8.26876287590967 2.0386948864612  C 7.98227286003496 2.0386948864612  7.73985823121789 2.13734141483517  7.54151898945848 2.3346344715831  C 7.34317974769906 2.53192752833104  7.24401012681935 2.77306348657853  7.24401012681935 3.05804234632555  C 7.24401012681935 3.36494265682234  7.34317974769906 3.61703934044471  7.54151898945848 3.81433239719265  C 7.73985823121789 4.01162545394059  7.98227286003496 4.11027198231456  8.26876287590967 4.11027198231456  L 16.6651240100599 4.11027198231456  C 16.9516140259346 4.11027198231456  17.1940286547517 4.01162545394059  17.3923678965111 3.81433239719265  C 17.5907071382705 3.61703934044471  17.6898767591503 3.36494265682234  17.6898767591503 3.05804234632555  C 17.6898767591503 2.77306348657853  17.5907071382705 2.53192752833104  17.3923678965111 2.3346344715831  C 17.1940286547517 2.13734141483517  16.9516140259346 2.0386948864612  16.6651240100599 2.0386948864612  Z M 4.07058232555651 22.5078493078211  C 4.35707234143122 22.8037888818538  4.72069428465682 22.9517586688702  5.16144815523331 22.9517586688702  C 5.58016433228097 22.9517586688702  5.93827684655037 22.8037888818538  6.23578569804152 22.5078493078211  C 6.53329454953268 22.2119097337884  6.68204897527826 21.8556861646492  6.68204897527826 21.4391786004035  C 6.68204897527826 21.0226710361579  6.53329454953268 20.6664474670187  6.23578569804152 20.3705078929859  C 5.93827684655037 20.0745683189532  5.58016433228097 19.9265985319368  5.16144815523331 19.9265985319368  C 4.72069428465682 19.9265985319368  4.35707234143122 20.0745683189532  4.07058232555651 20.3705078929859  C 3.78409230968179 20.6664474670187  3.64084730174443 21.0226710361579  3.64084730174443 21.4391786004035  C 3.64084730174443 21.8556861646492  3.78409230968179 22.2119097337884  4.07058232555651 22.5078493078211  Z M 18.5989316004923 22.4585260270003  C 18.8744027584546 22.7435048867474  19.2214964259596 22.8859943166209  19.6402126030073 22.8859943166209  C 20.0368910865261 22.8859943166209  20.3729659072667 22.7435048867474  20.648437065229 22.4585260270003  C 20.9239082231914 22.1735471672533  21.0616438021725 21.8337646806319  21.0616438021725 21.439178567136  C 21.0616438021725 21.0445924536401  20.9239082231914 20.7048099670187  20.648437065229 20.4198311072716  C 20.3729659072667 20.1348522475246  20.0368910865261 19.9923628176511  19.6402126030073 19.9923628176511  C 19.2214964259596 19.9923628176511  18.8744027584546 20.1348522475246  18.5989316004923 20.4198311072716  C 18.32346044253 20.7048099670187  18.1857248635488 21.0445924536401  18.1857248635488 21.439178567136  C 18.1857248635488 21.8337646806319  18.32346044253 22.1735471672533  18.5989316004923 22.4585260270003  Z M 22.813640437714 14.3695108001374  L 22.813640437714 6.14896686877576  L 2.12024644825557 6.14896686877576  L 2.12024644825557 14.3695108001374  L 22.813640437714 14.3695108001374  Z " fill-rule="nonzero" fill="#ffffff" stroke="none" transform="matrix(1 0 0 1 175 459 )" />
  </g>
</svg>