<?xml version="1.0" encoding="utf-8"?>
<svg version="1.1" xmlns:xlink="http://www.w3.org/1999/xlink" width="50px" height="50px" xmlns="http://www.w3.org/2000/svg">
  <g transform="matrix(1 0 0 1 -248 -449 )">
    <path d="M 50 25  C 50 16.0531485639526  45.3289951479031 8.2217609884244  38.2865683585764 3.80542018828242  C 34.4402218108983 1.39335717390503  29.886481913562 0  25 0  C 11.1666666503906 0  0 11.1666666503906  0 25  C 0 38.8333333496094  11.1666666503906 50  25 50  C 38.8333333496094 50  50 38.8333333496094  50 25  Z M 24.5 28.3333333496093  L 24.5 22  C 24.5 22  27 22.3333333496094  28.8333333496094 23.3333333496094  C 31.1666666992187 24.8333333496093  33.3333333496094 28.3333333496093  33.3333333496094 28.3333333496093  L 24.5 28.3333333496093  Z M 18.5 25.6666666503906  C 18.5 24.5  19.3333333496094 23.5  20.6666666503906 23.5  C 21.8333333007812 23.5  22.8333333007813 24.5  22.8333333496094 25.6666666503906  C 22.8333333496094 26.8333333007813  21.8333333496094 27.8333333007813  20.6666666503906 27.8333333496094  C 19.5 27.8333333496094  18.5 26.8333333496094  18.5 25.6666666503906  Z M 39 24.1666666503906  L 39 34.6666666503906  C 39.5 35.8333333007813  38.1666666503906 36.6666666503906  37 36.6666666503906  L 36.8333333496094 36.6666666503906  C 35.6666666992187 36.6666666503906  34.5 35.8333333007813  34.5 34.6666666503906  L 34.5 33  L 16.1666666503906 33  L 16.1666666503906 34.6666666503906  C 16.1666666503906 35.8333333007813  16 36.6666666503906  14.8333333496094 36.6666666503906  L 14.6666666503906 36.6666666503906  C 13.5 36.6666666503906  12.8333333007813 35.8333333007813  13 34.6666666503906  L 13 15.3333333496094  C 12.8333333496094 14.1666666992187  13.5 13.3333333496094  14.6666666503906 13.3333333496094  L 14.8333333496094 13.3333333496094  C 16 13.3333333496094  16.1666666992188 14  17 15.3333333496094  L 17 30  L 34.5 30  L 34.5 24.1666666503906  C 34.5 23  35.6666666503906 21.6666666503906  36.8333333496094 21.6666666503906  L 37 21.6666666503906  C 38.1666666503906 21.6666666503906  39.5 23  39 24.1666666503906  Z " fill-rule="nonzero" fill="#ff9552" stroke="none" transform="matrix(1 0 0 1 248 449 )" />
  </g>
</svg>