<?xml version="1.0" encoding="utf-8"?>
<svg version="1.1" xmlns:xlink="http://www.w3.org/1999/xlink" width="30px" height="26px" xmlns="http://www.w3.org/2000/svg">
  <g transform="matrix(1 0 0 1 -435 -464 )">
    <path d="M 29.9484662576687 24.544  C 29.9503067484663 25.3420869565217  29.4220858895706 25.9886956521739  28.7742331288344 26  L 1.29386503067485 26  C 0.644171779141105 25.9886956521739  0.117791411042945 25.3420869565217  0.117791411042945 24.544  L 0.117791411042945 23.6848695652174  C 0.117791411042945 22.8867826086957  0.644171779141105 22.2401739130435  1.29386503067485 22  L 28.7723926380368 22  C 29.4220858895706 22.2401739130435  29.9484662576687 22.8867826086957  29.9484662576687 23.6848695652174  L 29.9484662576687 24.544  Z M 1.01042944785276 16.7575652173913  C 0.0625766871165624 18.4215652173913  1.03251533742331 20.7073043478261  2.68527607361963 20.7073043478261  L 27.2687116564417 20.7073043478261  C 28.7374233128834 20.7073043478261  29.7276073619632 18.8601739130435  29.1478527607362 17.2029565217391  L 23.7423312883436 1.74313043478261  C 23.0760736196319 -0.160521739130437  20.9263803680982 -0.312000000000001  20.0889570552147 1.48539130434783  L 15.6349693251534 11.0285217391304  C 15.1858895705521 11.9893913043478  14.0650306748466 12.0187826086957  13.5846625766871 11.0805217391304  L 10.7963190184049 5.64086956521739  C 10.0159509202454 4.11930434782609  8.22699386503067 4.06730434782609  7.38957055214724 5.54139130434783  L 1.01042944785276 16.7575652173913  Z " fill-rule="nonzero" fill="#ffffff" stroke="none" transform="matrix(1 0 0 1 435 464 )" />
  </g>
</svg>