<?xml version="1.0" encoding="utf-8"?>
<svg version="1.1" xmlns:xlink="http://www.w3.org/1999/xlink" width="27px" height="26px" xmlns="http://www.w3.org/2000/svg">
  <g transform="matrix(1 0 0 1 -435 -464 )">
    <path d="M 23.898698630137 20.7095652173913  C 25.522397260274 17.6664347826087  26.5765068493151 14.1304347826087  26.8705479452055 10.3231304347826  L 23.8561643835616 1.74313043478261  C 23.1867123287671 -0.160521739130437  21.0267123287671 -0.312000000000001  20.1852739726027 1.48539130434783  L 15.7099315068493 11.0285217391304  C 15.258698630137 11.9893913043478  14.1324657534247 12.0187826086957  13.6497945205479 11.0805217391304  L 10.8480821917808 5.64086956521739  C 10.0639726027397 4.11930434782609  8.26643835616438 4.06730434782609  7.425 5.54139130434783  L 1.01527397260274 16.7575652173913  C 0.0628767123287651 18.4238260869565  1.03746575342466 20.7095652173913  2.7 20.7095652173913  L 23.898698630137 20.7095652173913  Z M 23.0036301369863 22  L 1.65143835616438 22  C 0.80445205479452 22.2401739130435  0.118356164383561 23.0789565217391  0.118356164383561 24.1144347826087  C 0.118356164383561 25.1499130434783  0.80445205479452 25.9886956521739  1.65143835616438 26  L 20.0132876712329 26  C 21.1228767123288 24.8831304347826  22.1252054794521 23.6238260869565  23.0036301369863 22  Z " fill-rule="nonzero" fill="#ffffff" stroke="none" transform="matrix(1 0 0 1 435 464 )" />
  </g>
</svg>