<?xml version="1.0" encoding="utf-8"?>
<svg version="1.1" xmlns:xlink="http://www.w3.org/1999/xlink" width="21px" height="23px" xmlns="http://www.w3.org/2000/svg">
  <g transform="matrix(1 0 0 1 -436 -464 )">
    <path d="M 10.4506956521739 20.6316831683168  C 16.6155652173913 16.9175247524752  20.8849565217391 9.08841584158416  20.9744347826087 0.00455445544554527  C 20.3499130434783 0.0660396039603975  19.743652173913 0.482772277227724  19.3820869565217 1.26841584158416  L 14.9629565217391 10.8805940594059  C 14.5173913043478 11.8484158415842  13.4053043478261 11.8780198019802  12.9286956521739 10.9329702970297  L 10.164 5.4539603960396  C 9.38973913043478 3.92138613861386  7.61478260869565 3.8690099009901  6.78391304347826 5.35376237623762  L 0.454695652173911 16.6510891089109  C -0.485739130434785 18.3294059405941  0.476608695652172 20.6316831683168  2.11826086956522 20.6316831683168  L 10.4506956521739 20.6316831683168  Z M 0.0073043478260868 22.7335643564356  C 0.783391304347825 22.8542574257426  1.5704347826087 22.9248514851485  2.37026086956522 22.9248514851485  C 3.99913043478261 22.9248514851485  5.57686956521739 22.6629702970297  7.08156521739131 22.1733663366337  L 1.08286956521739 22.1733663366337  C 0.662869565217391 22.1733663366337  0.281217391304348 22.3874257425743  0.0073043478260868 22.7335643564356  Z " fill-rule="nonzero" fill="#ffffff" stroke="none" transform="matrix(1 0 0 1 436 464 )" />
  </g>
</svg>