<?xml version="1.0" encoding="utf-8"?>
<svg version="1.1" xmlns:xlink="http://www.w3.org/1999/xlink" width="24px" height="29px" xmlns="http://www.w3.org/2000/svg">
  <g transform="matrix(1 0 0 1 -267 -565 )">
    <path d="M 23.8937404580153 2.86653846153846  C 23.8864122137405 1.23064102564103  22.8531297709924 0.130128205128205  21.2629007633588 0.130128205128205  L 3.23175572519084 0.130128205128205  C 1.64152671755725 0.130128205128205  0.0696183206106875 1.23064102564103  0 2.86653846153846  L 0 13.4738461538462  L 0.0696183206106875 13.4738461538462  L 0.0696183206106875 21.0844871794872  C 0.0696183206106875 22.7203846153846  1.10290076335878 24.2967948717949  3.23175572519084 24.2967948717949  L 5.66839694656488 24.2967948717949  L 3.71541984732824 27.6132051282051  C 3.46259541984733 28.055641025641  3.61282442748091 28.568717948718  4.04885496183206 28.8215384615385  C 4.48488549618321 29.074358974359  5.04916030534351 29.0148717948718  5.30198473282443 28.5724358974359  L 7.78625954198473 24.2967948717949  L 16.7157251908397 24.2967948717949  L 19.2 28.5426923076923  C 19.4528244274809 28.9851282051282  20.0134351145038 29.0780769230769  20.449465648855 28.8215384615385  C 20.8854961832061 28.565  21.0357251908397 28.0853846153846  20.7865648854962 27.6429487179487  L 18.8335877862595 24.2967948717949  L 21.2702290076336 24.2967948717949  C 22.8604580152672 24.2967948717949  23.8937404580153 22.7203846153846  23.8937404580153 21.0844871794872  L 23.8937404580153 2.86653846153846  Z M 22.0543511450382 15  L 22.0543511450382 21.0844871794872  C 22.0543511450382 21.6905128205128  21.8381679389313 22.4378205128205  21.2629007633588 22  L 2.99358778625954 22  C 2.15450381679389 22.4378205128205  1.90167938931298 21.2926923076923  1.90167938931298 20.6903846153846  L 1.90167938931298 15  L 22.0543511450382 15  Z M 22 2.86653846153846  L 22 13.1429487179487  L 2 13.1429487179487  L 2 2.86653846153846  C 1.90167938931298 2.26051282051282  2.65648854961832 1.98910256410256  3.23175572519084 2  L 21.2629007633588 2  C 21.8381679389313 1.98910256410256  22.0543511450382 2.26051282051282  22 2.86653846153846  Z " fill-rule="nonzero" fill="#b4554f" stroke="none" transform="matrix(1 0 0 1 267 565 )" />
  </g>
</svg>