<?xml version="1.0" encoding="utf-8"?>
<svg version="1.1" xmlns:xlink="http://www.w3.org/1999/xlink" width="32px" height="32px" xmlns="http://www.w3.org/2000/svg">
  <g transform="matrix(1 0 0 1 -132 -94 )">
    <path d="M 31.1139467265625 15.9638805039063  C 31.1139467265625 7.6119630859375  24.3494171054688 0.84196515625  16.00372346875 0.84196515625  C 7.6588573046875 0.84196515625  0.894291648437499 7.6119630859375  0.894291648437499 15.9638805039062  C 0.894291648437499 24.315761921875  7.65885726953125 31.0857238867188  16.00372346875 31.0857238867188  C 24.3493811054688 31.0857238867188  31.1139467265625 24.315761921875  31.1139467265625 15.9638805039063  Z M 12.682851015625 15.9638805039062  L 19.2895916523437 22.4937412421875  C 19.6486282304687 22.8511589101563  19.6843160429687 23.3934552460938  19.3712203164062 23.7058314296875  C 19.0572971523438 24.0182076484375  18.511115453125 23.9816204335937  18.1521508398437 23.625066203125  L 11.1249272851562 16.676377421875  C 10.9213413085937 16.473546953125  10.8250346289062 16.2125079296875  10.8343163359375 15.9669024296875  C 10.82345171875 15.7191024414062  10.9198303632812 15.4556890351563  11.1242077773437 15.2513475859375  L 18.1521508398437 8.3026588046875  C 18.511115453125 7.94524113671875  19.0565416796875 7.90948139453125  19.3712203164062 8.221857578125  C 19.6843160429687 8.534197796875  19.6486641953125 9.07656609765625  19.2895916523437 9.433947765625  L 12.682851015625 15.9638805039062  Z " fill-rule="nonzero" fill="#f8f4e9" stroke="none" fill-opacity="0.882352941176471" transform="matrix(1 0 0 1 132 94 )" />
  </g>
</svg>