<?xml version="1.0" encoding="utf-8"?>
<svg version="1.1" xmlns:xlink="http://www.w3.org/1999/xlink" width="26px" height="26px" xmlns="http://www.w3.org/2000/svg">
  <g transform="matrix(1 0 0 1 -456 -209 )">
    <path d="M 25.0245254882812 25.07156059375  C 25.3819922734375 24.7423148007813  25.4008063046875 24.1873005234375  25.0715605664063 23.83453721875  L 20.8995464570313 19.3709054335938  C 22.5928103632813 17.3342852382813  23.5194020039063 14.7943893789063  23.5194020039063 12.1227952460938  C 23.5194020039063 5.8530153125  18.4160927460938 0.749706054687501  12.1416093046875 0.749706054687501  C 5.87182937109375 0.749706054687501  0.768520113281251 5.8530153125  0.768520113281251 12.1227952460938  C 0.768520113281251 18.3925751796875  5.87182937109375 23.4958844375  12.1416093046875 23.4958844375  C 13.7831345976563 23.4958844375  15.3682177421875 23.1525281484375  16.8498236601563 22.4752225859375  C 17.2919536679688 22.2729716132813  17.484797625 21.7555854257813  17.2825466523438 21.3181589257813  C 17.0802956796875 20.8760289179688  16.5629094921875 20.6831849609375  16.1254829921875 20.8854359335938  C 14.8696455859375 21.454560734375  13.5291450117188 21.7461784101563  12.1416093046875 21.7461784101563  C 6.83604907421875 21.7461784101563  2.518226140625 17.4283554765625  2.518226140625 12.1227952460938  C 2.518226140625 6.817235015625  6.83604907421875 2.49941208203125  12.1416093046875 2.49941208203125  C 17.4471695351563 2.49941208203125  21.76499246875 6.817235015625  21.76499246875 12.1227952460938  C 21.76499246875 14.6203595078125  20.81017978125 16.9862254414063  19.0839912929688 18.787670109375  C 18.7500420195313 19.13572990625  18.7594490351563 19.6907441835938  19.107508859375 20.0246934570313  C 19.1357299335938 20.0482110234375  19.1686544882812 20.0576180390625  19.1968755625 20.081135578125  C 19.2203931289062 20.1140601601563  19.2345036523438 20.1563917578125  19.2627247265625 20.1893163398438  L 23.787502140625 25.0292289960938  C 23.95682853125 25.2126659101563  24.1920040859375 25.3067361484375  24.4271796132813 25.3067361484375  C 24.643541109375 25.3067361484375  24.8551990976563 25.2267764609375  25.0245254882812 25.07156059375  Z " fill-rule="nonzero" fill="#909090" stroke="none" transform="matrix(1 0 0 1 456 209 )" />
  </g>
</svg>