<?xml version="1.0" encoding="utf-8"?>
<svg version="1.1" xmlns:xlink="http://www.w3.org/1999/xlink" width="10px" height="16px" xmlns="http://www.w3.org/2000/svg">
  <g transform="matrix(1 0 0 1 -379 -327 )">
    <path d="M 6.09055501460565 15.8920454545455  C 6.02888672508926 15.9640151515152  5.95585848750406 16  5.87147030185005 16  L 4.1966893865628 16  C 4.1123012009088 16  4.0392729633236 15.9659090909091  3.97760467380721 15.8977272727273  C 3.91593638429082 15.8295454545455  3.88510223953262 15.7424242424242  3.88510223953262 15.6363636363636  L 3.88510223953262 11.8863636363636  L 1.08081791626095 11.8863636363636  C 0.996429730606946 11.8863636363636  0.923401493021746 11.8522727272727  0.861733203505355 11.7840909090909  C 0.800064913988965 11.7159090909091  0.769230769230769 11.6287878787879  0.769230769230769 11.5227272727273  L 0.769230769230769 10.3522727272727  C 0.769230769230769 10.2537878787879  0.800064913988965 10.1685606060606  0.861733203505355 10.0965909090909  C 0.923401493021746 10.0246212121212  0.996429730606946 9.98863636363636  1.08081791626095 9.98863636363636  L 3.88510223953262 9.98863636363636  L 3.88510223953262 9.02272727272727  L 1.08081791626095 9.02272727272727  C 0.996429730606946 9.02272727272727  0.923401493021746 8.98863636363636  0.861733203505355 8.92045454545455  C 0.800064913988965 8.85227272727273  0.769230769230769 8.76515151515152  0.769230769230769 8.65909090909091  L 0.769230769230769 7.47727272727273  C 0.769230769230769 7.37878787878788  0.800064913988965 7.29356060606061  0.861733203505355 7.22159090909091  C 0.923401493021746 7.14962121212121  0.996429730606946 7.11363636363636  1.08081791626095 7.11363636363636  L 3.16455696202532 7.11363636363636  L 0.0389483933787731 0.545454545454545  C -0.0129827977929244 0.424242424242424  -0.0129827977929244 0.303030303030301  0.0389483933787731 0.181818181818182  C 0.103862382343395 0.0606060606060606  0.194741966893866 0  0.311587147030185 0  L 2.20058422590068 0  C 2.32392080493346 0  2.41804608893217 0.0681818181818183  2.48296007789679 0.204545454545455  L 4.57643622200584 5.03409090909091  C 4.69977280103863 5.3219696969697  4.88153197013957 5.79545454545455  5.12171372930867 6.45454545454546  C 5.18662771827329 6.27272727272727  5.28562155144434 6.01515151515151  5.41869522882181 5.68181818181818  C 5.55176890619929 5.34848484848485  5.64102564102564 5.11742424242424  5.68646543330088 4.98863636363636  L 7.54625121713729 0.215909090909092  C 7.59818240830899 0.0719696969696955  7.69230769230769 0  7.8286270691334 0  L 9.68841285296982 0  C 9.79876663420967 0  9.88640051931191 0.0606060606060606  9.95131450827653 0.181818181818182  C 10.0097370983447 0.287878787878787  10.0129827977929 0.405303030303029  9.96105160662123 0.534090909090908  L 6.91333982473223 7.11363636363636  L 9.00681596884129 7.11363636363636  C 9.09120415449529 7.11363636363636  9.16423239208049 7.14962121212121  9.22590068159688 7.22159090909091  C 9.28756897111328 7.29356060606061  9.31840311587147 7.37878787878788  9.31840311587147 7.47727272727273  L 9.31840311587147 8.65909090909091  C 9.31840311587147 8.76515151515152  9.28756897111328 8.85227272727273  9.22590068159688 8.92045454545455  C 9.16423239208049 8.98863636363636  9.09120415449529 9.02272727272727  9.00681596884129 9.02272727272727  L 6.18305744888023 9.02272727272727  L 6.18305744888023 9.98863636363636  L 9.00681596884129 9.98863636363636  C 9.09120415449529 9.98863636363636  9.16423239208049 10.0246212121212  9.22590068159688 10.0965909090909  C 9.28756897111328 10.1685606060606  9.31840311587147 10.2537878787879  9.31840311587147 10.3522727272727  L 9.31840311587147 11.5227272727273  C 9.31840311587147 11.6287878787879  9.28756897111328 11.7159090909091  9.22590068159688 11.7840909090909  C 9.16423239208049 11.8522727272727  9.09120415449529 11.8863636363636  9.00681596884129 11.8863636363636  L 6.18305744888023 11.8863636363636  L 6.18305744888023 15.6363636363636  C 6.18305744888023 15.7348484848485  6.15222330412204 15.8200757575758  6.09055501460565 15.8920454545455  Z " fill-rule="nonzero" fill="#f04f45" stroke="none" transform="matrix(1 0 0 1 379 327 )" />
  </g>
</svg>