<?xml version="1.0" encoding="utf-8"?>
<svg version="1.1" xmlns:xlink="http://www.w3.org/1999/xlink" width="13px" height="25px" xmlns="http://www.w3.org/2000/svg">
  <g transform="matrix(1 0 0 1 -171 -139 )">
    <path d="M 12.7766323024055 1.50300601202405  C 12.9255441008018 1.67000668002672  13 1.86205744822979  13 2.07915831663327  C 13 2.29625918503674  12.9255441008018 2.48830995323981  12.7766323024055 2.65531062124249  L 3.99828178694158 12.5  L 12.7766323024055 22.3446893787575  C 12.9255441008018 22.5116900467602  13 22.7037408149633  13 22.9208416833667  C 13 23.1379425517702  12.9255441008018 23.3299933199733  12.7766323024055 23.496993987976  L 11.659793814433 24.749498997996  C 11.5108820160367 24.9164996659987  11.3396334478809 25  11.1460481099656 25  C 10.9524627720504 25  10.7812142038946 24.9164996659987  10.6323024054983 24.749498997996  L 0.223367697594502 13.0761523046092  C 0.0744558991981673 12.9091516366065  0 12.7171008684035  0 12.5  C 0 12.2828991315965  0.0744558991981673 12.0908483633935  0.223367697594502 11.9238476953908  L 10.6323024054983 0.250501002004008  C 10.7812142038946 0.0835003340013352  10.9524627720504 0  11.1460481099656 0  C 11.3396334478809 0  11.5108820160367 0.0835003340013352  11.659793814433 0.250501002004008  L 12.7766323024055 1.50300601202405  Z " fill-rule="nonzero" fill="#b6514b" stroke="none" transform="matrix(1 0 0 1 171 139 )" />
  </g>
</svg>