<?xml version="1.0" encoding="utf-8"?>
<svg version="1.1" xmlns:xlink="http://www.w3.org/1999/xlink" width="29px" height="32px" xmlns="http://www.w3.org/2000/svg">
  <g transform="matrix(1 0 0 1 -177 -850 )">
    <path d="M 20.8611778846154 11.2045454545455  C 21.0819310897436 10.9166666666667  21.1923076923077 10.5757575757576  21.1923076923077 10.1818181818182  C 21.1923076923077 9.78787878787879  21.0819310897436 9.44696969696969  20.8611778846154 9.15909090909091  C 20.6404246794872 8.87121212121212  20.3790064102564 8.72727272727273  20.0769230769231 8.72727272727273  L 17.8461538461538 8.72727272727273  L 17.8461538461538 5.81818181818182  C 17.8461538461538 5.42424242424242  17.7357772435897 5.08333333333333  17.5150240384615 4.79545454545455  C 17.2942708333333 4.50757575757575  17.0328525641026 4.36363636363636  16.7307692307692 4.36363636363636  C 16.4286858974359 4.36363636363636  16.1672676282051 4.50757575757575  15.9465144230769 4.79545454545455  C 15.7257612179487 5.08333333333333  15.6153846153846 5.42424242424242  15.6153846153846 5.81818181818182  L 15.6153846153846 8.72727272727273  L 13.3846153846154 8.72727272727273  C 13.0825320512821 8.72727272727273  12.8211137820513 8.87121212121212  12.6003605769231 9.15909090909091  C 12.3796073717949 9.44696969696969  12.2692307692308 9.78787878787879  12.2692307692308 10.1818181818182  C 12.2692307692308 10.5757575757576  12.3796073717949 10.9166666666667  12.6003605769231 11.2045454545455  C 12.8211137820513 11.4924242424242  13.0825320512821 11.6363636363636  13.3846153846154 11.6363636363636  L 15.6153846153846 11.6363636363636  L 15.6153846153846 14.5454545454545  C 15.6153846153846 14.9393939393939  15.7257612179487 15.280303030303  15.9465144230769 15.5681818181818  C 16.1672676282051 15.8560606060606  16.4286858974359 16  16.7307692307692 16  C 17.0328525641026 16  17.2942708333333 15.8560606060606  17.5150240384615 15.5681818181818  C 17.7357772435897 15.280303030303  17.8461538461538 14.9393939393939  17.8461538461538 14.5454545454545  L 17.8461538461538 11.6363636363636  L 20.0769230769231 11.6363636363636  C 20.3790064102564 11.6363636363636  20.6404246794872 11.4924242424242  20.8611778846154 11.2045454545455  Z M 10.5003004807692 27.0340909090909  C 10.9359975961538 27.6022727272727  11.1538461538462 28.2878787878788  11.1538461538462 29.0909090909091  C 11.1538461538462 29.8939393939394  10.9359975961538 30.5795454545455  10.5003004807692 31.1477272727273  C 10.0646033653846 31.7159090909091  9.53886217948718 32  8.92307692307692 32  C 8.30729166666667 32  7.78155048076923 31.7159090909091  7.34585336538462 31.1477272727273  C 6.91015625 30.5795454545455  6.69230769230769 29.8939393939394  6.69230769230769 29.0909090909091  C 6.69230769230769 28.2878787878788  6.91015625 27.6022727272727  7.34585336538462 27.0340909090909  C 7.78155048076923 26.4659090909091  8.30729166666667 26.1818181818182  8.92307692307692 26.1818181818182  C 9.53886217948718 26.1818181818182  10.0646033653846 26.4659090909091  10.5003004807692 27.0340909090909  Z M 26.1156850961538 27.0340909090909  C 26.5513822115385 27.6022727272727  26.7692307692308 28.2878787878788  26.7692307692308 29.0909090909091  C 26.7692307692308 29.8939393939394  26.5513822115385 30.5795454545455  26.1156850961538 31.1477272727273  C 25.6799879807692 31.7159090909091  25.1542467948718 32  24.5384615384615 32  C 23.9226762820513 32  23.3969350961538 31.7159090909091  22.9612379807692 31.1477272727273  C 22.5255408653846 30.5795454545455  22.3076923076923 29.8939393939394  22.3076923076923 29.0909090909091  C 22.3076923076923 28.2878787878788  22.5255408653846 27.6022727272727  22.9612379807692 27.0340909090909  C 23.3969350961538 26.4659090909091  23.9226762820513 26.1818181818182  24.5384615384615 26.1818181818182  C 25.1542467948718 26.1818181818182  25.6799879807692 26.4659090909091  26.1156850961538 27.0340909090909  Z M 28.6688701923077 3.34090909090909  C 28.8896233974359 3.62878787878788  29 3.96969696969697  29 4.36363636363636  L 29 16  C 29 16.3636363636364  28.9070512820513 16.6856060606061  28.7211538461538 16.9659090909091  C 28.5352564102564 17.2462121212121  28.2970753205128 17.4090909090909  28.0066105769231 17.4545454545455  L 9.81189903846154 20.2272727272727  C 9.82351762820513 20.3333333333333  9.84965945512821 20.4962121212121  9.89032451923077 20.7159090909091  C 9.93098958333333 20.9356060606061  9.9658453525641 21.1363636363636  9.99489182692308 21.3181818181818  C 10.0239383012821 21.5  10.0384615384615 21.6666666666667  10.0384615384615 21.8181818181818  C 10.0384615384615 22.0606060606061  9.89903846153846 22.5454545454545  9.62019230769231 23  L 25.6538461538462 23  C 25.9559294871795 23.2727272727273  26.2173477564103 23.4166666666667  26.4381009615385 23.7045454545455  C 26.6588541666667 23.9924242424242  26.7692307692308 24.3333333333333  26.7692307692308 24.7272727272727  C 26.7692307692308 25.1212121212121  26.6588541666667 25.4621212121212  26.4381009615385 25.75  C 26.2173477564103 26.0378787878788  25.9559294871795 26.1818181818182  25.6538461538462 26  L 7.80769230769231 26  C 7.50560897435898 26.1818181818182  7.24419070512821 26.0378787878788  7.0234375 25.75  C 6.80268429487179 25.4621212121212  6.69230769230769 25.1212121212121  6.69230769230769 24.7272727272727  C 6.69230769230769 24.5151515151515  6.75620993589744 24.2159090909091  6.88401442307692 23.8295454545455  C 7.01181891025641 23.4431818181818  7.18319310897436 22.9924242424242  7.39813701923077 22.4772727272727  C 7.61308092948718 21.9621212121212  7.73217147435898 21.6742424242424  7.75540865384615 21.6136363636364  L 4.67067307692308 2.90909090909091  L 1.11538461538462 2.90909090909091  C 0.813301282051282 2.90909090909091  0.551883012820513 2.76515151515151  0.331129807692308 2.47727272727273  C 0.110376602564103 2.18939393939394  0 1.84848484848485  0 1.45454545454545  C 0 1.06060606060606  0.110376602564103 0.719696969696965  0.331129807692308 0.431818181818183  C 0.551883012820513 0.143939393939391  0.813301282051282 0  1.11538461538462 0  L 5.57692307692308 0  C 5.76282051282051 0  5.92838541666667 0.0492424242424221  6.07361778846154 0.147727272727273  C 6.21885016025641 0.246212121212121  6.33503605769231 0.363636363636363  6.42217548076923 0.5  C 6.50931490384615 0.636363636363637  6.58483573717949 0.821969696969692  6.64873798076923 1.05681818181818  C 6.71264022435898 1.29166666666666  6.75620993589744 1.49242424242424  6.77944711538462 1.65909090909091  C 6.8026842948718 1.82575757575757  6.83463541666667 2.04924242424242  6.87530048076923 2.32954545454545  C 6.9159655448718 2.60984848484848  6.94210737179487 2.8030303030303  6.95372596153846 3  L 27.8846153846154 3  C 28.1866987179487 2.90909090909091  28.4481169871795 3.0530303030303  28.6688701923077 3.34090909090909  Z " fill-rule="nonzero" fill="#ffffff" stroke="none" transform="matrix(1 0 0 1 177 850 )" />
  </g>
</svg>