<?xml version="1.0" encoding="utf-8"?>
<svg version="1.1" xmlns:xlink="http://www.w3.org/1999/xlink" width="25px" height="23px" xmlns="http://www.w3.org/2000/svg">
  <g transform="matrix(1 0 0 1 -478 -139 )">
    <path d="M 9.04447115384615 19.4389204545455  C 9.42508012820513 19.8527462121212  9.61538461538462 20.342803030303  9.61538461538462 20.9090909090909  C 9.61538461538462 21.4753787878788  9.42508012820513 21.9654356060606  9.04447115384615 22.3792613636364  C 8.66386217948718 22.7930871212121  8.21314102564103 23  7.69230769230769 23  C 7.17147435897436 23  6.72075320512821 22.7930871212121  6.34014423076923 22.3792613636364  C 5.95953525641026 21.9654356060606  5.76923076923077 21.4753787878788  5.76923076923077 20.9090909090909  C 5.76923076923077 20.342803030303  5.95953525641026 19.8527462121212  6.34014423076923 19.4389204545455  C 6.72075320512821 19.0250946969697  7.17147435897436 18.8181818181818  7.69230769230769 18.8181818181818  C 8.21314102564103 18.8181818181818  8.66386217948718 19.0250946969697  9.04447115384615 19.4389204545455  Z M 22.5060096153846 19.4389204545455  C 22.8866185897436 19.8527462121212  23.0769230769231 20.342803030303  23.0769230769231 20.9090909090909  C 23.0769230769231 21.4753787878788  22.8866185897436 21.9654356060606  22.5060096153846 22.3792613636364  C 22.1254006410256 22.7930871212121  21.6746794871795 23  21.1538461538462 23  C 20.6330128205128 23  20.1822916666667 22.7930871212121  19.8016826923077 22.3792613636364  C 19.4210737179487 21.9654356060606  19.2307692307692 21.4753787878788  19.2307692307692 20.9090909090909  C 19.2307692307692 20.342803030303  19.4210737179487 19.8527462121212  19.8016826923077 19.4389204545455  C 20.1822916666667 19.0250946969697  20.6330128205128 18.8181818181818  21.1538461538462 18.8181818181818  C 21.6746794871795 18.8181818181818  22.1254006410256 19.0250946969697  22.5060096153846 19.4389204545455  Z M 24.7145432692308 2.40127840909091  C 24.9048477564103 2.60819128787879  25 2.85321969696969  25 3.13636363636364  L 25 11.5  C 25 11.7613636363636  24.9173677884615 11.9927793560606  24.7521033653846 12.1942471590909  C 24.5868389423077 12.3957149621212  24.3840144230769 12.5127840909091  24.1436298076923 12.5454545454545  L 8.45853365384615 14.5383522727273  C 8.58874198717949 15.1917613636364  8.65384615384615 15.5729166666667  8.65384615384615 15.6818181818182  C 8.65384615384615 15.8560606060606  8.53365384615385 16.2045454545455  8.29326923076923 16.7272727272727  L 22.1153846153846 16.7272727272727  C 22.3758012820513 16.7272727272727  22.6011618589744 16.8307291666667  22.7914663461538 17.0376420454545  C 22.9817708333333 17.2445549242424  23.0769230769231 17.4895833333333  23.0769230769231 17.7727272727273  C 23.0769230769231 18.0558712121212  22.9817708333333 18.3008996212121  22.7914663461538 18.5078125  C 22.6011618589744 18.7147253787879  22.3758012820513 18.8181818181818  22.1153846153846 18.8181818181818  L 6.73076923076923 18.8181818181818  C 6.47035256410256 18.8181818181818  6.24499198717949 18.7147253787879  6.0546875 18.5078125  C 5.86438301282051 18.3008996212121  5.76923076923077 18.0558712121212  5.76923076923077 17.7727272727273  C 5.76923076923077 17.6529356060606  5.80929487179487 17.481415719697  5.88942307692308 17.2581676136364  C 5.96955128205128 17.0349195075758  6.04967948717949 16.838896780303  6.12980769230769 16.6700994318182  C 6.2099358974359 16.5013020833333  6.31760817307692 16.2834990530303  6.45282451923077 16.0166903409091  C 6.58804086538462 15.7498816287879  6.66566506410256 15.5892518939394  6.68569711538462 15.5348011363636  L 4.02644230769231 2.09090909090909  L 0.961538461538462 2.09090909090909  C 0.701121794871795 2.09090909090909  0.475761217948718 1.98745265151515  0.285456730769231 1.78053977272727  C 0.0951522435897436 1.57362689393939  0 1.32859848484848  0 1.04545454545454  C 0 0.762310606060605  0.0951522435897436 0.517282196969694  0.285456730769231 0.310369318181819  C 0.475761217948718 0.103456439393937  0.701121794871795 0  0.961538461538462 0  L 4.80769230769231 0  C 4.96794871794872 0  5.11067708333333 0.0353929924242409  5.23587740384615 0.106178977272728  C 5.36107772435898 0.176964962121212  5.45873397435898 0.261363636363636  5.52884615384615 0.359375  C 5.59895833333333 0.457386363636364  5.6640625 0.590790719696966  5.72415865384615 0.759588068181819  C 5.78425480769231 0.928385416666665  5.82431891025641 1.06995738636364  5.84435096153846 1.18430397727273  C 5.86438301282051 1.29865056818182  5.89192708333333 1.4592803030303  5.92698317307692 1.66619318181818  C 5.96203926282051 1.87310606060606  5.98457532051282 2.01467803030303  5.99459134615385 2  L 24.0384615384615 2  C 24.2988782051282 2.09090909090909  24.5242387820513 2.19436553030303  24.7145432692308 2.40127840909091  Z " fill-rule="nonzero" fill="#b6514b" stroke="none" transform="matrix(1 0 0 1 478 139 )" />
  </g>
</svg>