<?xml version="1.0" encoding="utf-8"?>
<svg version="1.1" xmlns:xlink="http://www.w3.org/1999/xlink" width="25px" height="25px" xmlns="http://www.w3.org/2000/svg">
  <g transform="matrix(1 0 0 1 -433 -139 )">
    <path d="M 24.7349330357143 8.296875  C 24.9116443452381 8.49479166666666  25 8.72916666666667  25 9  C 25 9.27083333333333  24.9116443452381 9.50520833333333  24.7349330357143 9.703125  L 17.5920758928571 17.703125  C 17.4153645833333 17.9010416666667  17.2061011904762 18  16.9642857142857 18  C 16.7224702380952 18  16.5132068452381 17.9010416666667  16.3364955357143 17.703125  C 16.1597842261905 17.5052083333333  16.0714285714286 17.2708333333333  16.0714285714286 17  L 16.0714285714286 13  L 12.9464285714286 13  C 12.0349702380952 13  11.2188430059524 13.03125  10.498046875 13.09375  C 9.77725074404762 13.15625  9.06110491071429 13.2682291666667  8.349609375 13.4296875  C 7.63811383928571 13.5911458333333  7.01962425595238 13.8125  6.494140625 14.09375  C 5.96865699404762 14.375  5.47805059523809 14.7369791666667  5.02232142857143 15.1796875  C 4.56659226190476 15.6223958333333  4.19456845238095 16.1484375  3.90625 16.7578125  C 3.61793154761905 17.3671875  3.39239211309524 18.0885416666667  3.22963169642857 18.921875  C 3.0668712797619 19.7552083333333  2.98549107142857 20.6979166666667  2.98549107142857 21.75  C 2.98549107142857 22.3229166666667  3.00874255952381 22.9635416666667  3.05524553571429 23.671875  C 3.05524553571429 23.734375  3.06687127976191 23.8567708333333  3.09012276785714 24.0390625  C 3.11337425595238 24.2213541666667  3.125 24.359375  3.125 24.453125  C 3.125 24.609375  3.0854724702381 24.7395833333333  3.00641741071429 24.84375  C 2.92736235119048 24.9479166666667  2.81808035714286 25  2.67857142857143 25  C 2.5297619047619 25  2.39955357142857 24.9114583333333  2.28794642857143 24.734375  C 2.22284226190476 24.640625  2.16238839285714 24.5260416666667  2.10658482142857 24.390625  C 2.05078125 24.2552083333333  1.98800223214286 24.0989583333333  1.91824776785714 23.921875  C 1.84849330357143 23.7447916666667  1.79966517857143 23.6197916666667  1.77176339285714 23.546875  C 0.590587797619048 20.578125  0 18.2291666666667  0 16.5  C 0 14.4270833333333  0.246465773809524 12.6927083333333  0.739397321428571 11.296875  C 2.24609375 7.09895833333333  6.31510416666667 5  12.9464285714286 5  L 16.0714285714286 5  L 16.0714285714286 1  C 16.0714285714286 0.729166666666664  16.1597842261905 0.494791666666664  16.3364955357143 0.296874999999999  C 16.5132068452381 0.0989583333333321  16.7224702380952 0  16.9642857142857 0  C 17.2061011904762 0  17.4153645833333 0.0989583333333321  17.5920758928571 0.296874999999999  L 24.7349330357143 8.296875  Z " fill-rule="nonzero" fill="#b6514b" stroke="none" transform="matrix(1 0 0 1 433 139 )" />
  </g>
</svg>