<?xml version="1.0" encoding="utf-8"?>
<svg version="1.1" xmlns:xlink="http://www.w3.org/1999/xlink" width="24px" height="34px" xmlns="http://www.w3.org/2000/svg">
  <g transform="matrix(1 0 0 1 -466 -848 )">
    <path d="M 18.0512939453125 23.0797750538793  L 18.0487670898438 23.0790342133621  C 16.7451904296875 25.9279364224138  14.342431640625 27.685580549569  11.7420166015625 27.6922481142241  C 9.13963623046875 27.685580549569  6.737158203125 25.9279364224138  5.4316162109375 23.0790342133621  C 5.22694091796875 22.6741648706897  5.214306640625 22.1507610452586  5.4001708984375 21.7307044719828  C 5.59327443234023 21.3018486215199  5.94644367967957 21.0433961648056  6.3244384765625 21.0543170797414  C 6.7073974609375 21.0609846443966  7.05526123046875 21.3328731142241  7.2318603515625 21.7618197737069  C 8.16595458984375 23.7980199353448  9.88253173828125 25.0522629310345  11.7422973632813 25.0570783943966  C 13.60009765625 25.0530037715517  15.3152709960937 23.7987607758621  16.2476806640625 21.7618197737069  C 16.4390094553483 21.3460952276605  16.7816963801594 21.0933857835866  17.1503295898438 21.0961745689655  C 17.5183925864423 21.0916068369522  17.8613983463177 21.3416288960469  18.0543823242188 21.7551522090517  C 18.2409875722382 22.1627858415845  18.2397964523974 22.6736637487187  18.0512939453125 23.0797750538793  Z M 23 9.23124326508621  C 22.9823120117188 7.78141837284483  22.053271484375 6.60607489224138  20.9091674804687 7  L 2.16158447265625 7  C 1.0180419921875 6.60385237068965  0.0904052734374995 7.7791958512931  0 9.22865032327586  L 0 30.3340853987069  C 0.0887207031249995 31.7842807112069  1.0180419921875 32.9633283943965  2.16158447265625 33  L 20.9091674804687 33  C 22.0546752929687 32.9611058728448  22.9803466796875 31.7857623922414  23 30.3359375  L 23 9.23124326508621  Z M 8.4138671875 6.60422279094828  C 8.41358642578125 4.42504040948276  9.81402587890625 2.64998653017241  11.5356567382812 2.64998653017241  C 13.2570068359375 2.64998653017241  14.6574462890625 4.42504040948276  14.6574462890625 6.60422279094828  L 16.7384521484375 6.60422279094828  C 16.7384521484375 2.97077047413793  14.40419921875 0.0140759698275862  11.5356567382812 0.0140759698275862  C 8.66683349609375 0.0140759698275862  6.33258056640625 2.97077047413793  6.33258056640625 6.60422279094828  L 8.4138671875 6.60422279094828  Z " fill-rule="nonzero" fill="#fffdfd" stroke="none" transform="matrix(1 0 0 1 466 848 )" />
  </g>
</svg>