<?xml version="1.0" encoding="utf-8"?>
<svg version="1.1" xmlns:xlink="http://www.w3.org/1999/xlink" width="30px" height="26px" xmlns="http://www.w3.org/2000/svg">
  <g transform="matrix(1 0 0 1 -191 -786 )">
    <path d="M 0.0662251784975158 12.1253822785264  L 7.68211919236341 12.1253822785264  L 6.19205296719785 10.3363914528383  L 7.35099337748344 8.94495412844037  L 10.8278145695364 13.1192660550459  L 7.35099337748344 17.2935779816514  L 6.19205296719785 15.9021406572534  L 7.68211919236341 14.1131498315654  L 0.0662251784975158 14.1131498315654  L 0.0662251784975158 12.1253822785264  Z M 23.2450331125828 5.96330275229358  L 25.7284768211921 5.96330275229358  L 29.8675496818088 10.9327217280677  L 29.8675496818088 23.8532110091743  L 26.3907284897558 23.8532110091743  C 26.0596026748758 25.045871559633  25.0662251914321 25.8409786088016  24.0728476691846 25.8409786088016  C 23.0794701469371 25.8409786088016  22.0860927022972 25.045871559633  21.7549668874172 23.8532110091743  L 8.17880793408527 23.8532110091743  C 7.8476821192053 25.045871559633  6.85430463576159 25.8409786088016  5.86092715231788 25.8409786088016  C 4.86754966887417 25.8409786088016  3.87417218543046 25.045871559633  3.5430463705505 23.8532110091743  L 0.0662251784975158 23.8532110091743  L 0.0662251784975158 15.9021406572534  L 1.72185429170116 15.9021406572534  L 1.72185429170116 21.865443409547  L 21 21.865443409547  L 21 2  L 1.72185429170116 2  L 1.72185429170116 9.93883790495986  L 0.0662251784975158 9.93883790495986  L 0.0662251784975158 0  L 23.2450331125828 0  L 23.2450331125828 5.96330275229358  Z M 24.9006622645902 7.95107035192087  L 23 7.95107035192087  L 23 21.865443409547  L 28.2119205298013 21.865443409547  L 28.2119205298013 11.9266055045872  L 24.9006622645902 7.95107035192087  Z " fill-rule="nonzero" fill="#444444" stroke="none" transform="matrix(1 0 0 1 191 786 )" />
  </g>
</svg>