<?xml version="1.0" encoding="utf-8"?>
<svg version="1.1" xmlns:xlink="http://www.w3.org/1999/xlink" width="103px" height="105px" xmlns="http://www.w3.org/2000/svg">
  <g transform="matrix(1 0 0 1 -313 -400 )">
    <path d="M 1 1  L 1 50  L 49 50  L 49 1  L 1 1  Z M 13 38  L 13 13  L 37 13  L 37 38  L 13 38  Z M 103 1  L 54 1  L 54 50  L 103 50  L 103 1  Z M 90 13  L 90 38  L 66 38  L 66 13  L 90 13  Z M 19 19  L 19 32  L 31 32  L 31 19  L 19 19  Z M 1 55  L 1 104  L 49 104  L 49 55  L 1 55  Z M 13 92  L 13 68  L 37 68  L 37 92  L 13 92  Z M 84 18.9164452959481  L 84.8227207774769 19  L 72 19  L 72 32  L 84 32  L 84 18.9164452959481  Z M 54 92  L 54 104  L 66 104  L 66 92  L 54 92  Z M 78 68  L 66 68  L 66 92  L 78 92  L 78 68  Z M 90 80  L 90 92  L 78 92  L 78 104  L 103 104  L 103 80  L 90 80  Z M 90 55  L 90 68  L 103 68  L 103 55  L 90 55  Z M 66 55  L 54 55  L 54 68  L 66 68  L 66 55  Z M 19 74  L 19 86  L 31 86  L 31 74  L 19 74  Z " fill-rule="nonzero" fill="#2c2c2c" stroke="none" transform="matrix(1 0 0 1 313 400 )" />
  </g>
</svg>