<?xml version="1.0" encoding="utf-8"?>
<svg version="1.1" xmlns:xlink="http://www.w3.org/1999/xlink" width="20px" height="20px" xmlns="http://www.w3.org/2000/svg">
  <g transform="matrix(1 0 0 1 -128 -117 )">
    <path d="M 9.5 0.155737704918037  L 6.11812296533677 0.155737704918033  C 6.11812296533677 0.934426229508197  6.27184466019417 1.97267761590676  6.57928801388046 2.75136614049693  C 6.73300970873786 3.27049180327869  6.42556631902306 4.82786885245902  6.11812296533677 5.08743171426742  C 5.34951456310679 5.60655737704918  5.34951456310679 4.30874318967726  5.19579286824939 3.53005466508709  C 4.88834951456311 1.71311475409836  4.27346277116201 1.1939890913166  3.19741101524575 2.23224041688012  C 2.27508091815837 3.01092894147028  1.5064725159284 4.30874312884221  0.737864077669903 5.34699451524078  C -0.0307443245600722 6.64480870261271  -0.0307443245600722 9.5  0.891585772527304 10.7978141873719  C 1.5064725159284 11.8360655737705  2.12135922330097 12.6147540983607  2.88996762553095 13.3934426229508  C 4.42718446601941 14.9508196721311  5.96440127047937 14.6912568103227  7.34789645213895 12.6147540983607  C 7.65533980582524 12.0956284355789  7.96278319554005 11.5765027119621  8.42394820805522 11.0573770491803  C 9.03883495145631 10.2786885245902  9.5 10.5382513863986  9.80744335368628 11.8360655737705  C 10.5760517559163 14.9508196721311  11.9595469015473 15.9890710585297  13.8042071317506 15.4699453349129  C 15.0339805825243 15.2103824731045  16.2637540693265 15.9890709976947  17.3398058252427 17.54644810771  C 17.647249178929 18.0655737704918  18.1084142274727 18.3251366323002  18.5695792760164 18.844262295082  C 19.4919093731038 14.6912568103227  18.1084142274727 12.6147540983607  16.878640776699 10.5382513863986  C 14.8802588876669 7.42349728803791  12.7281553398058 4.82786885245902  10.4223300970874 2.23224041688013  C 9.80744335368628 1.45355189228996  9.5 0.934426229508197  9.5 0.155737704918037  Z " fill-rule="nonzero" fill="#f8f4e9" stroke="none" transform="matrix(1 0 0 1 128 117 )" />
  </g>
</svg>