<?xml version="1.0" encoding="utf-8"?>
<svg version="1.1" xmlns:xlink="http://www.w3.org/1999/xlink" width="32px" height="26px" xmlns="http://www.w3.org/2000/svg">
  <g transform="matrix(1 0 0 1 -116 -98 )">
    <path d="M 21.440119760479 18.9345991767207  L 18.0369261356194 18.9345991767207  C 18.0369261356194 18.1434599362144  18.1916167664671 17.0886075949367  18.5009979919068 16.2974683544304  C 18.6556886227545 15.7700422146954  18.3463073610591 14.1877637336827  18.0369261356194 13.9240506329114  C 17.2634730538922 13.3966244931764  17.2634730538922 14.7151898734177  17.1087824230445 15.506329113924  C 16.7994011976048 17.3523206957081  16.025948079622 17.879746835443  15.0978044033028 16.8248944941653  C 14.1696606907279 16.033755253659  13.3962076090007 14.7151898734177  12.622754491018 13.66033753214  C 11.8493014092908 12.3417721518987  12.0039920038829 9.44092822883703  12.7774451218656 8.12236284859573  C 13.3962076090007 7.06751050731804  14.1696606907279 6.27637126681171  14.7884231416074 5.48523208811313  C 16.3353293413174 3.90295360710047  17.8822355047717 4.16666670787184  19.2744511098896 6.27637132861946  C 19.5838323353293 6.80379746835443  19.8932135970247 7.33122366989715  20.3572854170565 7.85864980963212  C 20.9760479041916 8.64978905013846  21.440119760479 8.38607594936709  21.7495009859188 7.3312236080894  C 22.522954067646 4.16666664606409  23.9151696365082 3.1118143047864  25.7714570979136 3.63924050632911  C 27.0089820359281 3.90295360710047  28.2465070101984 3.11181436659414  29.3293413173653 1.52953588558149  C 29.638722542805 1.00210974584652  30.1027943990924 0.738396645075159  30.5668662553799 0.210970443532438  C 31.4950099679547 4.43037974683545  30.1027943990924 6.54008436758307  28.8652694610778 8.64978905013845  C 26.8542914050805 11.8143460121638  24.5339321236433 14.4514768344541  22.3682634730539 17.0886075949367  C 21.7495009859188 17.879746835443  21.440119760479 18.407172975178  21.440119760479 18.9345991767207  Z M 12.7774451218656 19.4620253164557  C 13.0868263473054 19.1983122156843  13.2415169781531 18.6708860759494  13.3962075727451 18.407172975178  C 13.3962075727451 17.879746835443  13.0868263473054 17.6160337346717  12.622754491018 17.3523206957081  C 12.3133732655782 16.8248945559731  11.3852295530034 16.0337553154668  10.9211576967159 14.7151898734177  C 10.6117764712762 13.66033753214  10.7664670658683 13.3966244931764  10.3023952095808 12.8691982916337  C 10.3023952095808 12.8691982916337  9.99301398414109 12.3417721518987  9.37425149700599 12.0780590511274  C 8.44610778443114 11.814345950356  4.73353293413174 14.187763671875  0.0928143712574857 18.407172975178  C 4.73353293413174 22.626582278481  8.44610778443114 25  9.37425149700599 24.7362868992286  C 9.99301398414109 24.7362868992286  10.4570858404285 23.9451476587223  10.4570858404285 23.9451476587223  C 10.9211576967159 23.4177215189873  10.7664670658683 22.8902953174446  11.075848291308 21.8354430379747  C 11.3852295167478 20.7805907585048  11.5399201475954 20.5168776577334  12.7774451218656 19.4620253164557  Z " fill-rule="nonzero" fill="#f8f4e9" stroke="none" transform="matrix(1 0 0 1 116 98 )" />
  </g>
</svg>