<?xml version="1.0" encoding="utf-8"?>
<svg version="1.1" xmlns:xlink="http://www.w3.org/1999/xlink" width="16px" height="15px" xmlns="http://www.w3.org/2000/svg">
  <g transform="matrix(1 0 0 1 -388 -527 )">
    <path d="M 9.53251609100877 6.54346508789063  L 15.5567396107456 0.0218034667968751  L 13.7545835526316 0.0218034667968751  L 7.98484380482456 6.26799025102095  L 2.15091474780702 0.0218034667968751  L 0.343959237938596 0.0218034667968751  L 6.43517875548246 6.54346508789062  L 0.120657922149123 6.54346508789062  L 0.120657922149123 7.36155528675426  L 7.08265712719298 7.36155528675426  L 7.08265712719298 9.84991294722124  L 0.120657922149123 9.84991294722124  L 0.120657922149123 10.6680031460849  L 7.08265712719298 10.6680031460849  L 7.08265712719298 14.9548298284357  L 8.90701419956141 14.9548298284357  L 8.90701419956141 10.6680031460849  L 15.9532145010965 10.6680031460849  L 15.9532145010965 9.84991294722124  L 8.90701419956141 9.84991294722124  L 8.90701419956141 7.36155528675426  L 15.9532145010965 7.36155528675426  L 15.9532145010965 6.54346508789063  L 9.53251609100877 6.54346508789063  Z " fill-rule="nonzero" fill="#f04f45" stroke="none" transform="matrix(1 0 0 1 388 527 )" />
  </g>
</svg>