<?xml version="1.0" encoding="utf-8"?>
<svg version="1.1" xmlns:xlink="http://www.w3.org/1999/xlink" width="31px" height="16px" xmlns="http://www.w3.org/2000/svg">
  <g transform="matrix(1 0 0 1 -404 -250 )">
    <path d="M 30.7885990466102 1.62399193548387  C 29.546875 1.45262096774194  28.4077727754237 0.903225806451617  27.5200940148305 0.0917338709677419  C 26.4425648834746 1.07963709677419  24.9955971927966 1.68447580645161  23.4100900423729 1.68447580645161  C 21.8245828919492 1.68447580645161  20.3776152012712 1.07963709677419  19.3000860699153 0.0917338709677383  C 18.2225569385593 1.07963709677419  16.7755892478813 1.68447580645161  15.1900820974576 1.68447580645161  C 13.6045749470339 1.68447580645161  12.1576072563559 1.07963709677419  11.080078125 0.0917338709677383  C 10.0025489936441 1.07963709677419  8.5555813029661 1.68447580645161  6.97007415254237 1.68447580645161  C 5.38456700211864 1.68447580645161  3.93759931144067 1.07963709677419  2.86007018008474 0.0917338709677383  C 2.10579978813559 0.787298387096767  1.16167902542372 1.28629032258065  0.120067531779655 1.52318548387096  L 0.120067531779655 7.2086693548387  L 1.30534957627118 15.9435483870968  L 4 15.9435483870968  L 4 4.37600806451613  L 12 4.37600806451613  L 12 16  L 30.7885990466102 16  L 30.7885990466102 1.62399193548387  Z M 27.5149629237288 12.445564516129  L 27.5200940148305 12.445564516129  L 15.4671610169492 12.445564516129  L 15.4671610169492 4.37600806451613  L 27.5149629237288 4.37600806451613  L 27.5149629237288 12.445564516129  Z " fill-rule="nonzero" fill="#9adccf" stroke="none" transform="matrix(1 0 0 1 404 250 )" />
  </g>
</svg>