<?xml version="1.0" encoding="utf-8"?>
<svg version="1.1" xmlns:xlink="http://www.w3.org/1999/xlink" width="37px" height="13px" xmlns="http://www.w3.org/2000/svg">
  <g transform="matrix(1 0 0 1 -401 -235 )">
    <path d="M 36.9423896416084 8.8828125  C 36.927229020979 8.7607421875  36.9019613199301 8.6484375  36.8514259178322 8.541015625  L 32.9854676573427 0.66015625  C 32.8540756118881 0.386718750000002  32.5660238199301 0.210937500000002  32.2527043269231 0.210937500000002  L 4.91810533216783 0.210937500000002  C 4.60478583916084 0.210937500000002  4.32178758741259 0.386718750000002  4.18534200174825 0.66015625  L 0.319383741258739 8.5458984375  C 0.268848339160837 8.6484375  0.243580638111886 8.765625  0.243580638111886 8.8828125  L 0.243580638111886 10.7919921875  C 0.243580638111886 11.94921875  1.1633249562937 12.935546875  2.29531796328671 12.984375  C 2.33069274475524 12.984375  2.36606752622377 12.9892578125  2.40144230769231 12.9892578125  C 3.58902425699301 12.9892578125  4.55930397727273 12.0517578125  4.55930397727273 10.904296875  C 4.55930397727273 9.8984375  5.40324519230769 9.078125  6.44932801573426 9.078125  C 7.49541083916083 9.078125  8.3393520541958 9.8935546875  8.3393520541958 10.904296875  C 8.3393520541958 12.0517578125  9.30963177447552 12.9892578125  10.4972137237762 12.9892578125  C 11.6847956730769 12.9892578125  12.6550753933566 12.0517578125  12.6550753933566 10.904296875  C 12.6550753933566 9.8984375  13.4990166083916 9.078125  14.5450994318182 9.078125  C 15.586128715035 9.078125  16.4351234702797 9.8935546875  16.4351234702797 10.904296875  C 16.4351234702797 12.0517578125  17.4054031905594 12.9892578125  18.5929851398601 12.9892578125  C 19.7805670891608 12.9892578125  20.7508468094406 12.0517578125  20.7508468094406 10.904296875  C 20.7508468094406 9.8984375  21.5947880244755 9.078125  22.6408708479021 9.078125  C 23.6869536713287 9.078125  24.5308948863636 9.8935546875  24.5308948863636 10.904296875  C 24.5308948863636 12.0517578125  25.5011746066434 12.9892578125  26.6887565559441 12.9892578125  C 27.8763385052448 12.9892578125  28.8466182255245 12.0517578125  28.8466182255245 10.904296875  C 28.8466182255245 9.8984375  29.6905594405594 9.078125  30.736642263986 9.078125  C 31.7827250874126 9.078125  32.6266663024476 9.8935546875  32.6266663024476 10.904296875  C 32.6266663024476 12.0517578125  33.5969460227273 12.9892578125  34.784527972028 12.9892578125  C 34.8653846153846 12.9892578125  34.951294798951 12.984375  35.0321514423077 12.974609375  C 36.1035019667832 12.8623046875  36.9423896416084 11.9052734375  36.9423896416084 10.7919921875  L 36.9423896416084 8.8828125  Z " fill-rule="nonzero" fill="#fff370" stroke="none" transform="matrix(1 0 0 1 401 235 )" />
  </g>
</svg>