<?xml version="1.0" encoding="utf-8"?>
<svg version="1.1" xmlns:xlink="http://www.w3.org/1999/xlink" width="17px" height="6px" xmlns="http://www.w3.org/2000/svg">
  <g transform="matrix(1 0 0 1 -410 -256 )">
    <path d="M 0.0684185606060606 5.01171875  C 0.0684185606060606 5.4462890625  0.43063446969697 5.79296875  0.873342803030303 5.79296875  C 1.31605113636364 5.79296875  1.67826704545455 5.44140625  1.67826704545455 5.01171875  L 1.67826704545455 3.9716796875  C 1.67826704545455 3.5419921875  1.31605113636364 3.1904296875  0.873342803030303 3.1904296875  C 0.43063446969697 3.1904296875  0.0684185606060606 3.5419921875  0.0684185606060606 3.9716796875  L 0.0684185606060606 5.01171875  Z M 16.9818892045455 0.841796875  C 16.9869199810606 0.412109375000004  16.6247040719697 0.060546875  16.1769649621212 0.060546875  C 15.7342566287879 0.060546875  15.372040719697 0.412109375000004  15.372040719697 0.841796875  L 15.372040719697 3.44921875  C 15.372040719697 3.87890625  15.7342566287879 4.23046875  16.1769649621212 4.23046875  C 16.6196732954545 4.23046875  16.9818892045455 3.87890625  16.9818892045455 3.44921875  L 16.9818892045455 0.841796875  Z " fill-rule="nonzero" fill="#4f3d3b" stroke="none" transform="matrix(1 0 0 1 410 256 )" />
  </g>
</svg>