<?xml version="1.0" encoding="utf-8"?>
<svg version="1.1" xmlns:xlink="http://www.w3.org/1999/xlink" width="23px" height="15px" xmlns="http://www.w3.org/2000/svg">
  <g transform="matrix(1 0 0 1 -406 -254 )">
    <path d="M 22.7516678370786 14.0166015625  C 22.7516678370786 13.5869140625  22.3882549157303 13.2353515625  21.9440835674157 13  L 11 13  L 11 0.989257812500004  C 11.2183549859551 0.559570312500004  10.8549420646067 0.208007812500004  10.4107707162921 0.208007812500004  L 2.32988061797753 0.208007812500004  C 1.88570926966292 0.208007812500004  1.5222963483146 0.559570312500004  1.5222963483146 0.989257812500004  L 1.5222963483146 13.2353515625  L 0.982224367977528 13.2353515625  C 0.53805301966292 13.2353515625  0.174640098314607 13.5869140625  0.174640098314607 14.0166015625  C 0.174640098314607 14.4462890625  0.53805301966292 14.7978515625  0.982224367977528 14.7978515625  L 21.9440835674157 14.7978515625  C 22.3882549157303 14.7978515625  22.7516678370786 14.4462890625  22.7516678370786 14.0166015625  Z M 10 1.7705078125  L 10 13.2353515625  L 3.13746488764045 13.2353515625  L 3.13746488764045 1.7705078125  L 10 1.7705078125  Z " fill-rule="nonzero" fill="#4f3d3b" stroke="none" transform="matrix(1 0 0 1 406 254 )" />
  </g>
</svg>