<?xml version="1.0" encoding="utf-8"?>
<svg version="1.1" xmlns:xlink="http://www.w3.org/1999/xlink" width="42px" height="37px" xmlns="http://www.w3.org/2000/svg">
  <g transform="matrix(1 0 0 1 -399 -232 )">
    <path d="M 41.7869188262195 11.7707058566434  C 41.7819169207317 11.2602982954545  41.6668730945122 10.7397836538462  41.4467892530488 10.2748579545455  L 37.620331554878 2.11339051573427  C 37.0501143292683 0.895487325174825  35.8196455792683 0.107135052447553  34.4841368140244 0.107135052447553  L 29.2621474847561 0.107135052447553  C 28.8219798018293 0.107135052447553  28.4618426067073 0.470989947552448  28.4618426067073 0.915701486013988  C 28.4618426067073 1.36041302447553  28.8219798018293 1.72426791958042  29.2621474847561 1.72426791958042  L 34.4891387195122 1.72426791958042  C 35.2094131097561 1.72426791958042  35.8696646341463 2.1487652972028  36.1797827743902 2.80572552447553  L 40.006240472561 10.9621394230769  C 40.1262862042683 11.2148164335664  40.186309070122 11.4927611451049  40.186309070122 11.7707058566434  L 40.186309070122 13.7466400786713  C 40.186309070122 15.4395760489511  38.9358326981707 16.9051027097902  37.3452267530488 17.0769230769231  C 36.4198742378049 17.1779938811189  35.5295350609756 16.8899420891608  34.8442740091463 16.2683566433566  C 34.1690167682927 15.656878277972  33.7788681402439 14.7775622814685  33.7788681402439 13.8578179632867  C 33.7788681402439 13.4131064248252  33.418730945122 13.0492515297203  32.9785632621951 13.0492515297203  C 32.5383955792683 13.0492515297203  32.1782583841463 13.4131064248252  32.1782583841463 13.8578179632867  C 32.1782583841463 15.6417176573427  30.7427115091463 17.0920836975525  28.9770388719512 17.0920836975525  C 27.2113662347561 17.0920836975525  25.7758193597561 15.6417176573427  25.7758193597561 13.8578179632867  C 25.7758193597561 13.4131064248252  25.4156821646341 13.0492515297203  24.9755144817073 13.0492515297203  C 24.5353467987805 13.0492515297203  24.1752096036585 13.4131064248252  24.1752096036585 13.8578179632867  C 24.1752096036585 15.6417176573427  22.7396627286585 17.0920836975525  20.9739900914634 17.0920836975525  C 19.2083174542683 17.0920836975525  17.7727705792683 15.6417176573427  17.7727705792683 13.8578179632867  C 17.7727705792683 13.4131064248252  17.4126333841463 13.0492515297203  16.9724657012195 13.0492515297203  C 16.5322980182927 13.0492515297203  16.1721608231707 13.4131064248252  16.1721608231707 13.8578179632867  C 16.1721608231707 15.6417176573427  14.7366139481707 17.0920836975525  12.9709413109756 17.0920836975525  C 11.2052686737805 17.0920836975525  9.76972179878049 15.6417176573427  9.76972179878049 13.8578179632867  C 9.76972179878049 13.4131064248252  9.40958460365854 13.0492515297203  8.96941692073171 13.0492515297203  C 8.52924923780488 13.0492515297203  8.16911204268293 13.4131064248252  8.16911204268293 13.8578179632867  C 8.16911204268293 14.7522945804196  7.81897865853659 15.5810751748252  7.17873475609756 16.2026606206294  C 6.53849085365854 16.8191925262238  5.69817073170732 17.1375655594406  4.81283346036586 17.0920836975525  C 3.13219321646342 17.0112270541958  1.76667301829268 15.5103256118881  1.76667301829268 13.7466400786713  L 1.76667301829268 11.7707058566434  C 1.76667301829268 11.4927611451049  1.82669588414634 11.2148164335664  1.94674161585366 10.9621394230769  L 5.77319931402439 2.80572552447552  C 6.08331745426829 2.1487652972028  6.74356897865854 1.72426791958042  7.46384336890244 2  L 25.0055259146341 2  C 25.445693597561 1.72426791958042  25.8058307926829 1.36041302447552  25.8058307926829 0.915701486013986  C 25.8058307926829 0.470989947552447  25.445693597561 0.107135052447552  25.0055259146341 0.107135052447552  L 7.4288300304878 0.107135052447552  C 6.0933212652439 0.107135052447552  4.8628525152439 0.895487325174825  4.29263528963415 2.11339051573427  L 0.466177591463414 10.2698044143357  C 0.246093749999999 10.7347301136364  0.131049923780487 11.2552447552448  0.131049923780487 11.7707058566434  L 0.131049923780487 13.7466400786713  C 0.131049923780487 16.0106260926573  1.58660442073171 17.920864291958  3.60237233231707 18.5171820367133  L 3.60237233231707 22.160784527972  C 3.60237233231707 22.6054960664336  3.96250952743902 22.9693509615385  4.40267721036585 22.9693509615385  C 4.84284489329268 22.9693509615385  5.20298208841463 22.6054960664336  5.20298208841463 22.160784527972  L 5.20298208841463 18.7092165646853  C 6.34341653963415 18.6485740821678  7.41382431402439 18.1887019230769  8.25414443597561 17.3801354895105  C 8.51924542682927 17.127458479021  8.74433117378049 16.8444602272727  8.94440739329268 16.5463013548951  C 9.80473513719512 17.8551682692308  11.2802972560976 18.7243771853147  12.9459317835366 18.7243771853147  C 14.6165682164634 18.7243771853147  16.087128429878 17.8602218094406  16.9524580792683 16.5463013548951  C 17.8127858231707 17.8551682692308  19.2883479420732 18.7243771853147  20.958984375 18.7243771853147  C 22.6296208079268 18.7243771853147  24.1001810213415 17.8602218094406  24.9655106707317 16.5463013548951  C 25.8258384146341 17.8551682692308  27.3014005335366 18.7243771853147  28.9720369664634 18.7243771853147  C 30.6426733993902 18.7243771853147  32.1182355182927 17.8551682692308  32.9785632621951 16.5412478146853  C 33.2036490091463 16.8848885489511  33.4637480945122 17.2032615821678  33.7738662347561 17.4812062937063  C 34.6592035060976 18.2847191870629  35.8096417682927 18.7193236451049  36.9950933689024 18.7193236451049  C 37.0801257621951 18.7193236451049  37.1651581554878 18.7092165646853  37 18.7041630244755  L 37 35.1736505681818  L 32.9785632621951 35.1736505681818  C 32.5383955792683 35.1736505681818  32.1782583841463 35.5375054632867  32.1782583841463 35.9822170017483  C 32.1782583841463 36.4269285402098  32.5383955792683 36.7907834353147  32.9785632621951 36.7907834353147  L 38.0504954268293 36.7907834353147  C 38.4906631097561 36.7907834353147  38.850800304878 36.4269285402098  38.850800304878 35.9822170017483  L 38.850800304878 18.3352545891608  C 40.5914634146341 17.5822770979021  41.7869188262195 15.8034309440559  41.7869188262195 13.7466400786713  L 41.7869188262195 11.7707058566434  Z " fill-rule="nonzero" fill="#4f3d3b" stroke="none" transform="matrix(1 0 0 1 399 232 )" />
  </g>
</svg>