<?xml version="1.0" encoding="utf-8"?>
<svg version="1.1" xmlns:xlink="http://www.w3.org/1999/xlink" width="37px" height="34px" xmlns="http://www.w3.org/2000/svg">
  <g transform="matrix(1 0 0 1 -396 -235 )">
    <path d="M 20.5850906905594 0.247375954198473  C 20.1454326923077 0.206822519083969  19.7462030157343 0.536319179389313  19.7108282342657 0.982406965648855  L 19.1700994318182 7.20735925572519  C 19.1296711101399 7.65344704198473  19.463204763986 8.04884303435115  19.9079163024476 8.08432729007634  C 19.9331840034965 8.08432729007634  19.9533981643357 8.08939646946565  19.9786658653846 8.08939646946565  C 20.3930561625874 8.08939646946565  20.7468039772727 7.77003816793894  20.7821787587413 7.34929627862595  L 21.3229075611888 1.12434398854962  C 21.3633358828671 0.678256202290076  21.029802229021 0.282860209923666  20.5850906905594 0.247375954198473  Z M 28.064330201049 0.946922709923662  C 28.0036877185315 0.505904103053433  27.5892974213287 0.191614980916029  27.1546929632867 0.247375954198473  C 26.7099814248252 0.303136927480916  26.3966619318182 0.713740458015267  26.4573044143357 1.1547590648855  L 27.2658708479021 7.37971135496183  C 27.3214597902098 7.79031488549618  27.6651005244755 8.08432729007634  28.0693837412587 8.08432729007634  C 28.1047585227273 8.08432729007634  28.1401333041958 8.08432729007634  28.1755080856643 8.07925811068702  C 28.6202196241259 8.02349713740458  28.9335391171329 7.61289360687023  28.8728966346154 7.171875  L 28.064330201049 0.946922709923662  Z M 14.3035402097902 0.287929389312977  C 13.8840963723776 0.140923187022901  13.4242242132867 0.363967080152672  13.2776715472028 0.789778148854962  L 11.1198098776224 7.0147304389313  C 10.9732572115385 7.43547232824428  11.1956129807692 7.90183683206107  11.6201103583916 8.04884303435115  C 11.706020541958 8.07925811068702  11.7969842657343 8.09446564885496  11.8879479895105 8.09446564885496  C 12.2214816433566 8.09446564885496  12.5348011363636 7.88662929389313  12.6510325611888 7.54699427480916  L 14.8038406905594 1.32204198473282  C 14.9503933566434 0.901300095419847  14.7280375874126 0.434935591603053  14.3035402097902 0.287929389312977  Z M 35.3970170454545 7.54192509541985  C 35.5081949300699 7.88156011450382  35.8215144230769 8.08939646946565  36.1601016171329 8.08939646946565  C 36.2460118006993 8.08939646946565  36.3369755244755 8.07418893129771  36.4279392482517 8.04377385496183  C 36.8524366258741 7.89676765267176  37.0747923951049 7.43547232824428  36.928239729021 7.00966125954199  L 34.7703780594406 0.784708969465651  C 34.6238253933566 0.358897900763361  34.1639532342657 0.13585400763359  33.7394558566434 0.282860209923666  C 33.314958479021 0.429866412213742  33.0926027097902 0.891161736641223  33.2391553758741 1.31697280534351  L 35.3970170454545 7.54192509541985  Z M 24.2893356643357 28  L 36.1601016171329 28  C 36.6048131555944 28.3813215648855  36.9686680506993 28.016340648855  36.9686680506993 27.5702528625954  L 36.9686680506993 19.4544966603053  C 36.9686680506993 19.0084088740458  36.6048131555944 18.6434279580153  36.1601016171329 18  L 24.2893356643357 18  C 23.8446241258741 18.6434279580153  23.4807692307692 19.0084088740458  23.4807692307692 19.4544966603053  L 23.4807692307692 27.5702528625954  C 23.4807692307692 28.016340648855  23.8446241258741 28.3813215648855  24.2893356643357 28  Z M 25.0979020979021 26.7591841603053  L 25.0979020979021 20  L 35.3464816433566 20  L 35.3464816433566 26.7591841603053  L 25.0979020979021 26.7591841603053  Z M 9.17419689685315 30.4394083969466  L 8.10284637237762 22.3185830152672  C 8.04725743006993 21.9130486641221  7.70867023601399 21.6139670801527  7.29933347902098 21.6139670801527  L 1.90215253496504 21.6139670801527  C 1.49786931818182 21.6139670801527  1.15422858391608 21.9130486641221  1.09863964160839 22.3185830152672  L 0.0222355769230769 30.4394083969466  C -0.00808566433566388 30.672590648855  0.0626638986013986 30.9057729007634  0.214270104895105 31.0831941793893  C 0.365876311188811 31.2606154580153  0.58823208041958 31.3619990458015  0.82069493006993 31.3619990458015  L 1.08853256118881 31.3619990458015  L 1.08853256118881 32.9841364503817  C 1.08853256118881 33.4302242366412  1.45238745629371 33.7952051526718  1.89709899475524 33.7952051526718  C 2.34181053321678 33.7952051526718  2.70566542832168 33.4302242366412  2.70566542832168 32.9841364503817  L 2.70566542832168 31.3619990458015  L 6.49076704545455 31.3619990458015  L 6.49076704545455 32.9841364503817  C 6.49076704545455 33.4302242366412  6.85462194055944 33.7952051526718  7.29933347902098 33.7952051526718  C 7.74404501748252 33.7952051526718  8.10789991258741 33.4302242366412  8.10789991258741 32.9841364503817  L 8.10789991258741 31.3619990458015  L 8.37573754370629 31.3619990458015  C 8.60820039335664 31.3619990458015  8.83055616258741 31.2606154580153  8.98216236888112 31.0831941793893  C 9.13376857517483 30.9057729007634  9.20451813811189 30.672590648855  9.17419689685315 30.4394083969466  Z M 1.75054632867133 29.7347924618321  L 2.61470170454546 23.2411736641221  L 6.59183784965035 23.2411736641221  L 7.45093968531469 29.7347924618321  L 1.75054632867133 29.7347924618321  Z " fill-rule="nonzero" fill="#4f3d3b" stroke="none" transform="matrix(1 0 0 1 396 235 )" />
  </g>
</svg>