<?xml version="1.0" encoding="utf-8"?>
<svg version="1.1" xmlns:xlink="http://www.w3.org/1999/xlink" width="20px" height="18px" xmlns="http://www.w3.org/2000/svg">
  <g transform="matrix(1 0 0 1 -152 -133 )">
    <path d="M 9.5 0.139344262295086  L 6.11812296533677 0.139344262295082  C 6.11812296533677 0.836065573770492  6.27184466019417 1.76502734054815  6.57928801388046 2.46174865202357  C 6.73300970873786 2.92622950819672  6.42556631902306 4.31967213114754  6.11812296533677 4.5519125864498  C 5.34951456310679 5.01639344262295  5.34951456310679 3.85519127497439  5.19579286824939 3.15846996349897  C 4.88834951456311 1.5327868852459  4.27346277116201 1.06830602907275  3.19741101524575 1.99726774141905  C 2.27508091815837 2.69398905289446  1.5064725159284 3.85519122054303  0.737864077669903 4.7841529873207  C -0.0307443245600722 5.94535515496927  -0.0307443245600722 8.5  0.891585772527304 9.66120216764856  C 1.5064725159284 10.5901639344262  2.12135922330097 11.2868852459016  2.88996762553095 11.983606557377  C 4.42718446601941 13.3770491803279  5.96440127047937 13.1448087250256  7.34789645213895 11.2868852459016  C 7.65533980582524 10.8224043897285  7.96278319554005 10.357923479124  8.42394820805522 9.89344262295082  C 9.03883495145631 9.19672131147541  9.5 9.42896176677766  9.80744335368628 10.5901639344262  C 10.5760517559163 13.3770491803279  11.9595469015473 14.3060109471055  13.8042071317506 13.841530036501  C 15.0339805825243 13.6092895811988  16.2637540693265 14.3060108926742  17.3398058252427 15.6994535700563  C 17.647249178929 16.1639344262295  18.1084142274727 16.3961748815318  18.5695792760164 16.8606557377049  C 19.4919093731038 13.1448087250256  18.1084142274727 11.2868852459016  16.878640776699 9.42896176677766  C 14.8802588876669 6.64207652087602  12.7281553398058 4.31967213114754  10.4223300970874 1.99726774141906  C 9.80744335368628 1.30054642994365  9.5 0.836065573770492  9.5 0.139344262295086  Z " fill-rule="nonzero" fill="#ffffff" stroke="none" transform="matrix(1 0 0 1 152 133 )" />
  </g>
</svg>