<?xml version="1.0" encoding="utf-8"?>
<svg version="1.1" xmlns:xlink="http://www.w3.org/1999/xlink" width="33px" height="23px" xmlns="http://www.w3.org/2000/svg">
  <g transform="matrix(1 0 0 1 -139 -118 )">
    <path d="M 22.1317365269461 16.6624472755142  L 18.6187624625749 16.6624472755142  C 18.6187624625749 15.9662447438687  18.7784431137725 15.0379746835443  19.0978043787425 14.3417721518987  C 19.2574850299401 13.877637148932  18.9381237275449 12.4852320856408  18.6187624625749 12.253164556962  C 17.8203592814371 11.7890295539953  17.8203592814371 12.9493670886076  17.6606786302395 13.6455696202532  C 17.3413173652695 15.2700422122231  16.5429141467066 15.7341772151899  15.5848303517964 14.8059071548655  C 14.6267465194611 14.1097046232199  13.8283433383234 12.9493670886076  13.0299401197605 12.0210970282832  C 12.2315369386228 10.8607594936709  12.3912175523952 8.30801684137658  13.1896207709581 7.14767930676424  C 13.8283433383234 6.21940924643988  14.6267465194611 5.52320671479431  15.2654690494012 4.82700423753956  C 16.8622754491018 3.43459917424842  18.4590818113772 3.66666670292722  19.8962075973054 5.52320676918513  C 20.2155688622754 5.9873417721519  20.5349301646707 6.4514768295095  21.0139720434132 6.91561183247627  C 21.6526946107784 7.61181436412184  22.1317365269461 7.37974683544304  22.4510977919162 6.45147677511867  C 23.2495009730539 3.6666666485364  24.6866267215569 2.73839658821203  26.6027944236527 3.20253164556962  C 27.8802395209581 3.43459917424842  29.1576846556886 2.73839664260285  30.2754491017964 1.34599157931171  C 30.5948103667665 0.881856576344938  31.0738522829341 0.64978904766614  31.5528941991018 0.185653990308545  C 32.5109780314371 3.89873417721519  31.0738522829341 5.7552742434731  29.7964071856287 7.61181436412184  C 27.7205588697605 10.3966244907041  25.3253492889222 12.7172996143196  23.0898203592814 15.0379746835443  C 22.4510977919162 15.7341772151899  22.1317365269461 16.1983122181566  22.1317365269461 16.6624472755142  Z M 13.1896207709581 17.126582278481  C 13.5089820359281 16.8945147498022  13.6686626871257 16.4303797468354  13.8283433008982 16.1983122181566  C 13.8283433008982 15.7341772151899  13.5089820359281 15.5021096865111  13.0299401197605 15.2700422122231  C 12.7105788547904 14.8059072092563  11.7524950224551 14.1097046776108  11.2734531062874 12.9493670886076  C 10.9540918413174 12.0210970282832  11.1137724550898 11.7890295539953  10.6347305389222 11.3248944966377  C 10.6347305389222 11.3248944966377  10.3153692739521 10.8607594936709  9.67664670658683 10.6286919649921  C 8.7185628742515 10.3966244363133  4.88622754491018 12.48523203125  0.0958083832335336 16.1983122181566  C 4.88622754491018 19.9113924050633  8.7185628742515 22  9.67664670658683 21.7679324713212  C 10.3153692739521 21.7679324713212  10.7944111901198 21.0717299396756  10.7944111901198 21.0717299396756  C 11.2734531062874 20.6075949367089  11.1137724550898 20.1434598793513  11.4331337200599 19.2151898734177  C 11.7524949850299 18.2869198674842  11.9121756362275 18.0548523388054  13.1896207709581 17.126582278481  Z " fill-rule="nonzero" fill="#ffffff" stroke="none" transform="matrix(1 0 0 1 139 118 )" />
  </g>
</svg>