<?xml version="1.0" encoding="utf-8"?>
<svg version="1.1" xmlns:xlink="http://www.w3.org/1999/xlink" width="38px" height="32px" xmlns="http://www.w3.org/2000/svg">
  <g transform="matrix(1 0 0 1 -236 -300 )">
    <path d="M 20.6549014136905 25.2225694444444  L 20.2943219866071 25.2225694444444  C 19.5450660342262 25.2225694444444  18.8941499255952 24.7256944444444  18.7068359375 24.0171875  C 18.5195219494048 23.3086805555556  18.842638578869 22.5587673611111  19.4935546875 22.2045138888889  L 28.3675548735119 17.3369791666667  C 28.6110630580357 17.2035590277778  28.8873511904762 17.1345486111111  29.168322172619 17.1345486111111  C 29.4492931547619 17.1345486111111  29.7255812872024 17.2035590277778  29.9690894717262 17.3369791666667  L 32.3058314732143 18.6159722222222  L 36.7966843377976 16.0671875  C 37.133849516369 15.8785590277778  37.2462379092262 15.4506944444444  37.0542410714286 15.1240451388889  L 35.2794410342262 12.1013888888889  C 33.1674758184524 12.5200520833333  30.9197079613095 11.5999131944444  29.7864583333333 9.66762152777778  C 28.6532087053571 7.73532986111111  28.9622767857143 5.36597222222222  30.3858630952381 3.77413194444445  L 28.6110630580357 0.756076388888889  C 28.4190662202381 0.42482638888889  27.9835611979167 0.31440972222222  27.6510788690476 0.503038194444444  L 0.429673549107142 15.94296875  C 0.0925083705357141 16.1315972222222  -0.0198800223214286 16.5594618055556  0.17211681547619 16.8861111111111  L 1.94691685267857 19.9087673611111  C 4.05888206845238 19.4901041666667  6.30664992559524 20.4102430555556  7.43989955357143 22.3425347222222  C 8.57314918154762 24.2748263888889  8.26408110119048 26.6441840277778  6.84049479166667 28.2360243055555  L 8.61529482886905 31.2586805555556  C 8.80729166666667 31.5899305555556  9.24279668898809 31.7003472222222  9.57527901785714 31.51171875  L 20.6549014136905 25.2225694444444  Z M 13.6727725074405 17.7418402777778  L 11.3266648065476 13.7484375  L 23.9235305059524 6.60355902777777  L 26.2696382068452 10.5969618055556  L 13.6727725074405 17.7418402777778  Z " fill-rule="nonzero" fill="#fff370" stroke="none" transform="matrix(1 0 0 1 236 300 )" />
  </g>
</svg>