<?xml version="1.0" encoding="utf-8"?>
<svg version="1.1" xmlns:xlink="http://www.w3.org/1999/xlink" width="20px" height="16px" xmlns="http://www.w3.org/2000/svg">
  <g transform="matrix(1 0 0 1 -256 -319 )">
    <path d="M 1.99109468005952 15  L 1.99109468005952 12.6821001838235  L 16.5360258556548 12.6821001838235  L 16.5360258556548 15  L 1.99109468005952 15  Z M 7.43256603422619 1.07312729779411  L 4.90382719494048 2.44775390625  L 0.389560081845243 5  L 18.1375604538691 5  L 9.26356026785714 0.0775505514705882  L 7.43256603422619 1.07312729779411  Z M 10.4342726934524 12.6821001838235  L 8.08816499255953 12.6821001838235  L 8.08816499255953 4.90472771139706  L 10.4342726934524 4.90472771139706  L 10.4342726934524 12.6821001838235  Z M 12.7803803943452 10.91015625  L 12.7803803943452 8.13806870404412  L 12.7803803943452 4.90472771139706  L 15.1264880952381 4.90472771139706  L 15.1264880952381 12.6821001838235  L 12.7803803943452 12.6821001838235  L 12.7803803943452 10.91015625  Z M 5.74674014136905 6.59446806066177  L 5.74674014136905 9.48072725183823  L 5.74674014136905 12.6821001838235  L 3.40063244047619 12.6821001838235  L 3.40063244047619 4.90472771139706  L 5.74674014136905 4.90472771139706  L 5.74674014136905 6.59446806066177  Z " fill-rule="nonzero" fill="#e6ebef" stroke="none" transform="matrix(1 0 0 1 256 319 )" />
  </g>
</svg>