<?xml version="1.0" encoding="utf-8"?>
<svg version="1.1" xmlns:xlink="http://www.w3.org/1999/xlink" width="29px" height="24px" xmlns="http://www.w3.org/2000/svg">
  <g transform="matrix(1 0 0 1 -245 -299 )">
    <path d="M 13.2926106770833 14.4951923076923  C 12.9651248816288 14.6958533653846  12.8514145359848 15.1353966346154  13.0424479166667 15.474609375  C 13.2289328835227 15.8185997596154  13.6473869554924 15.9380408653846  13.974872750947 15.7373798076923  L 16.1899502840909 14.3948617788462  C 16.5174360795455 14.1989783653846  16.6311464251894 13.7594350961538  16.4401130445076 13.4154447115385  L 14.161357717803 9.26844951923077  C 13.974872750947 8.92445913461538  13.5564186789773 8.80501802884615  13.2289328835227 9.00567908653846  L 0.993699692234853 16.4253605769231  C 0.834505208333338 16.5209134615385  0.720794862689398 16.6785757211538  0.675310724431823 16.8601262019231  C 0.629826586174247 17.0416766826923  0.652568655303035 17.2375600961538  0.743536931818186 17.4047776442308  L 3.02229225852273 21.5517728365385  C 3.14964784564394 21.7810997596154  3.37706853693182 21.9100961538461  3.61358605587122 21.9100961538461  C 3.72729640151516 21.9100961538461  3.84555516098485 21.8766526442308  3.95471709280303 21.8145432692308  L 11.4959872159091 17.2423377403846  C 11.8234730113636 17.0464543269231  11.9371833570076 16.6069110576923  11.7461499763258 16.2629206730769  C 11.5596650094697 15.9189302884615  11.1412109375 15.7994891826923  10.8137251420455 16.0001502403846  L 3.86374881628788 20.2140324519231  L 2.26725556344697 17.3140024038462  L 13.3153527462121 10.6109675480769  L 14.911845999053 13.5109975961538  L 13.2926106770833 14.4951923076923  Z M 28.5934747869318 19.6359375  C 28.7981534090909 18.8380709134615  28.6935398910985 17.9972055288462  28.2978278882576 17.27578125  L 25.9053622159091 12.9233473557692  C 25.8143939393939 12.7561298076923  25.6642962831439 12.6366887019231  25.4914565577651 12.5889122596154  C 25.3140684185606 12.5411358173077  25.1275834517045 12.5650240384615  24.9729373816288 12.6605769230769  C 24.3407078598485 13.0427884615385  23.6038648200758 13.1478966346154  22.8988606770833 12.9472355769231  C 22.1938565340909 12.7465745192308  21.6025627367424 12.2735877403846  21.2386896306818 11.6094951923077  C 20.4836529356061 10.2383112980769  20.9339459043561 8.48013822115385  22.2393406723485 7.68704927884615  C 22.39853515625 7.59149639423077  22.5122455018939 7.43383413461538  22.5577296401515 7.25228365384615  C 22.6032137784091 7.07073317307693  22.5804717092803 6.87484975961539  22.4895034327651 6.70763221153846  L 20.0970377604167 2.35519831730769  C 19.7013257575758 1.63377403846154  19.0645478219697 1.12256610576923  18.3004142992424 0.907572115384618  C 17.5362807765152 0.692578125000003  16.7357599431818 0.80246394230769  16.0534978693182 1.21811899038462  L 12.623993844697 3.29161658653846  C 12.2965080492424 3.4875  12.1827977035985 3.92704326923077  12.3738310842803 4.27103365384615  C 12.5603160511364 4.61502403846154  12.9787701231061 4.73446514423077  13.3062559185606 4.53380408653846  L 16.7312115293561 2.46030649038462  C 17.0996330492424 2.23575721153846  17.5317323626894 2.17842548076923  17.9410896070076 2.2930889423077  C 18.3504468513258 2.40775240384615  18.6961263020833 2.68485576923077  18.9099017518939 3.07184495192307  L 20.9885268702651 6.85573918269231  C 19.4739050662879 8.16959134615385  19.0372573390152 10.4819711538462  20.0515536221591 12.3309194711539  C 20.59736328125 13.3294471153846  21.4843039772727 14.0413161057692  22.5395359848485 14.3375300480769  C 23.3718957149621 14.5716346153846  24.2360943418561 14.5286358173077  25.0320667613636 14.2133112980769  L 27.1106918797348 17.9972055288462  C 27.3244673295455 18.3841947115385  27.3790482954545 18.8380709134615  27.2698863636364 19.2680588942308  C 27.1607244318182 19.698046875  26.8969164299242 20.0611478365385  26.5284949100379 20.2856971153846  L 24.0996419270833 21.7572115384615  C 23.7721561316288 21.9530949519231  23.6584457859848 22.3926382211538  23.8494791666667 22.7366286057692  C 23.9768347537879 22.9659555288461  24.2042554450758 23.0949519230769  24.4407729640151 23.0949519230769  C 24.5544833096591 23.0949519230769  24.6727420691288 23.0615084134615  24.781904000947 22.9993990384615  L 27.2153053977273 21.5231069711539  C 27.9021158854167 21.1074519230769  28.3887961647727 20.4385817307692  28.5934747869318 19.6359375  Z " fill-rule="nonzero" fill="#4f3d3b" stroke="none" transform="matrix(1 0 0 1 245 299 )" />
  </g>
</svg>