<?xml version="1.0" encoding="utf-8"?>
<svg version="1.1" xmlns:xlink="http://www.w3.org/1999/xlink" width="25px" height="33px" xmlns="http://www.w3.org/2000/svg">
  <g transform="matrix(1 0 0 1 -233 -302 )">
    <path d="M 23.90625 26.1921822212838  C 24.2513020833333 26.0121489653716  24.3663194444444 25.5874551309122  24.1698314525463 25.2550860430743  C 23.9733434606481 24.9227169552365  23.5324435763889 24.8073110219595  23.1873914930556 25.0011929898649  L 18.8838252314815 27.397020164696  L 18.2799840856481 26.3952966638514  C 18.08349609375 26.0629275760135  17.6425962094907 25.9475216427365  17.2975441261574 26.1414036106419  C 16.9524920428241 26.3306693412162  16.8326822916667 26.7553631756757  17.0339626736111 27.0877322635135  L 17.6330114293981 28.0894557643581  L 13.0610713252315 30.6330025337838  C 12.6728877314815 30.8499656883446  12.2224030671296 30.9053605363176  11.7862955729167 30.7945708403716  C 11.35498046875 30.6837811444257  10.9907588252315 30.416039379223  10.7655164930556 30.0421241554054  L 8.57539424189815 26.3860641891892  C 10.1712601273148 25.1165989231419  10.6313295717593 22.8823400548987  9.56262659143519 21.0958562077703  C 8.98753978587963 20.1310626055743  8.05302372685185 19.4432432432432  6.94118923611111 19.1570365287162  C 6.05938946759259 18.9308408994933  5.15362774884259 18.972387035473  4.31495949074074 19.2770586993243  L 2.12483723958333 15.6209987331081  C 1.89959490740741 15.2470835092905  1.84208622685185 14.8085409628378  1.95710358796296 14.3930796030405  C 2.07212094907407 13.9776182432432  2.35007957175926 13.6267842060811  2.73826316550926 13.4098210515203  L 7.31020326967593 10.8662742820946  L 7.90925202546296 11.8679977829392  C 8.04343894675926 12.0895771748311  8.28305844907407 12.2142155827703  8.53226273148148 12.2142155827703  C 8.65207248263889 12.2142155827703  8.77667462384259 12.1819019214527  8.8916919849537 12.1218908361486  C 9.23674406828703 11.9326251055743  9.35655381944444 11.5079312711149  9.1552734375 11.175562183277  L 8.55622468171296 10.1738386824324  L 23.90625 1.63841585726351  C 24.2513020833333 1.44915012668919  24.3711118344907 1.02445629222973  24.1698314525463 0.692087204391891  C 23.9733434606481 0.359718116554054  23.5324435763889 0.244312183277027  23.1873914930556 0.438194151182431  L 2.01461226851852 12.2095993454392  C 1.29096137152778 12.6112119932432  0.778175636574074 13.2574852195946  0.562518084490741 14.0330130912162  C 0.346860532407408 14.8085409628378  0.457085503472222 15.6209987331081  0.8740234375 16.3134343327703  L 3.39482060185185 20.5188265413851  C 3.49066840277778 20.680394847973  3.64881727430556 20.79580078125  3.83092809606482 20.8419631545608  C 4.01783130787037 20.8881255278716  4.21431929976852 20.8650443412162  4.37726056134259 20.7727195945946  C 5.04340277777778 20.4034206081081  5.81976996527778 20.3018633868243  6.5625904224537 20.4957453547297  C 7.30541087962963 20.6896273226351  7.92842158564815 21.1466348184122  8.31181278935185 21.7882918074324  C 9.10734953703704 23.1131519214527  8.6329029224537 24.8119272592905  7.25748697916667 25.57822265625  C 7.0897533275463 25.6705474028716  6.96994357638889 25.8228832347973  6.92201967592593 25.9983002533784  C 6.87409577546296 26.1737172719595  6.89805772569445 26.3629830025338  6.99390552662037 26.5245513091216  L 9.51470269097222 30.7299435177365  C 9.931640625 31.4269953547297  10.6025752314815 31.9209327491554  11.4076967592593 32.1286634290541  C 11.6760706018519 32.1979069890203  11.9492368344907 32.2302206503378  12.2224030671296 32.2302206503378  C 12.7639431423611 32.2302206503378  13.2958984375 32.0917335304054  13.7799298321759 31.8239917652027  L 23.90625 26.1921822212838  Z " fill-rule="nonzero" fill="#4f3d3b" stroke="none" transform="matrix(1 0 0 1 233 302 )" />
  </g>
</svg>