<?xml version="1.0" encoding="utf-8"?>
<svg version="1.1" xmlns:xlink="http://www.w3.org/1999/xlink" width="33px" height="20px" xmlns="http://www.w3.org/2000/svg">
  <g transform="matrix(1 0 0 1 -241 -317 )">
    <path d="M 5.17157939189189 7.06170099431818  C 4.98231366131757 6.72292258522727  4.55761982685811 6.60529119318182  4.22525073902027 6.80291193181818  C 3.89288165118243 6.99582741477273  3.77747571790541 7.4287109375  3.97135768581081 7.76748934659091  L 5.7301441089527 10.8682528409091  C 5.85939875422298 11.0941051136364  6.09021062077703 11.2211470170455  6.33025496199324 11.2211470170455  C 6.44566089527027 11.2211470170455  6.56568306587838 11.1882102272727  6.67647276182433 11.1270419034091  C 7.00884184966216 10.9341264204545  7.12424778293919 10.5012428977273  6.93036581503379 10.1624644886364  L 5.17157939189189 7.06170099431818  Z M 1.65862278293919 0.855468750000005  C 1.46474081503379 0.516690340909091  1.04466321790541 0.403764204545457  0.712294130067568 0.596679687499999  C 0.379925042229732 0.789595170454547  0.264519108952705 1.22247869318182  0.458401076858109 1.56125710227273  L 2.2171875 4.66202059659091  C 2.34644214527027 4.88787286931818  2.57725401182433 5.01491477272728  2.81729835304054 5.01491477272728  C 2.93270428631757 5.01491477272728  3.05272645692568 4.98197798295454  3.16351615287162 4.92080965909091  C 3.49588524070946 4.72789417613636  3.61129117398649 4.2950106534091  3.41740920608108 3.95623224431818  L 1.65862278293919 0.855468750000005  Z M 15.4103937922297 2.50701349431818  C 15.2165118243243 2.16823508522727  14.7964342271959 2.05060369318181  14.4640651393581 2.24822443181818  L 8.85533678209459 5.54660866477272  C 8.52296769425676 5.73952414772727  8.40756176097973 6.17240767045454  8.60144372888514 6.51118607954545  C 8.73069837415541 6.73703835227273  8.96151024070946 6.86408025568182  9.20155458192568 6.86408025568182  C 9.3169605152027 6.86408025568182  9.43698268581081 6.83114346590909  9.54777238175676 6.76997514204545  L 15.1565007390203 3.4715909090909  C 15.4888698268581 3.27867542613636  15.6042757601351 2.84579190340909  15.4103937922297 2.50701349431818  Z M 32.2181139146959 19.0553977272727  C 32.2181139146959 18.6648615056818  31.9088260135135 18.3543146306818  31.5256783150338 18.3543146306818  L 30.3716189822635 18.3543146306818  L 30.3716189822635 16.7027698863636  C 30.3716189822635 16.3122336647727  30.0623310810811 15.9969815340909  29.6791833826014 15.9969815340909  L 28.9867477829392 15.9969815340909  L 28.9867477829392 9.40021306818181  L 31.2625527871622 9.40021306818181  C 31.5764569256757 9.40021306818181  31.8534311655405 9.18377130681818  31.9319072001689 8.87322443181818  C 32.0103832347973 8.56267755681818  31.8765123521959 8.2333096590909  31.5995381123311 8.07803622159091  L 22.8471521326014 3.09987571022727  C 22.6394214527027 2.98224431818182  22.3809121621622 2.98224431818182  22.1731814822635 3.09987571022727  L 20.3728489231419 4.12562144886363  C 20.040479835304 4.31383167613636  19.920457664696 4.74671519886363  20.1051071579392 5.08549360795454  C 20.2897566511824 5.42427201704545  20.7144504856419 5.54660866477272  21.0468195734797 5.3583984375  L 22.5101668074324 4.52556818181817  L 28.5943676097973 8  L 16.4259660050676 8  L 18.5494351773649 6.77468039772726  C 18.8818042652027 6.58647017045453  19.0018264358108 6.15358664772726  18.8171769425676 5.81480823863635  C 18.6279112119932 5.47602982954544  18.2078336148649 5.35369318181818  17.875464527027 5.5419034090909  L 13.4254117398649 8.07333096590909  C 13.1484375 8.22860440340909  13.0145666173987 8.55797230113636  13.093042652027 8.86851917613636  C 13.1715186866554 9.17906605113637  13.4484929265203 9.39550781250001  13.7623970650338 9.39550781250001  L 16.0382020692568 9.39550781250001  L 16.0382020692568 15.9969815340909  L 15.3457664695946 15.9969815340909  C 14.9626187711149 15.9969815340909  14.6533308699324 16.3122336647727  14.6533308699324 16.7027698863636  L 14.6533308699324 18.3543146306818  L 13.4992715371622 18.3543146306818  C 13.1161238386824 18.3543146306818  12.8068359375 18.6695667613636  12.8068359375 19.0601029829545  C 12.8068359375 19.4506392045455  13.1161238386824 19.7658913352273  13.4992715371622 19.7658913352273  L 17.6631176097973 19.7658913352273  C 18.046265308277 19.7658913352273  18.3555532094595 19.4506392045455  18.3555532094595 19.0601029829545  C 18.3555532094595 18.6695667613636  18.046265308277 18.3543146306818  17.6631176097973 18.3543146306818  L 16.0428183065878 18.3543146306818  L 16.0428183065878 17.4132634943182  L 23.6734586148649 17.4132634943182  C 24.0566063133446 17.4132634943182  24.365894214527 17.0980113636364  24.365894214527 16.7074751420455  L 24.365894214527 9.40021306818181  L 25.2891416807432 9.40021306818181  L 25.2891416807432 12.0210404829545  C 25.2891416807432 12.4115767045454  25.5984295819257 12.7268288352273  25.9815772804054 12.7268288352273  C 26.3647249788851 12.7268288352273  26.6740128800676 12.4115767045454  26.6740128800676 12.0210404829545  L 26.6740128800676 9.40021306818181  L 27.5972603462838 9.40021306818181  L 27.5972603462838 15.9969815340909  L 26.6740128800676 15.9969815340909  L 26.6740128800676 14.8771306818182  C 26.6740128800676 14.4865944602273  26.3647249788851 14.1713423295455  25.9815772804054 14.1713423295455  C 25.5984295819257 14.1713423295455  25.2891416807432 14.4865944602273  25.2891416807432 14.8771306818182  L 25.2891416807432 16.7027698863636  C 25.2891416807432 17.0933061079545  25.5984295819257 17.4085582386364  25.9815772804054 17.4085582386364  L 28.9821315456081 17.4085582386364  L 28.9821315456081 18.349609375  L 20.4282437711149 18.349609375  C 20.0450960726351 18.349609375  19.7358081714527 18.6648615056818  19.7358081714527 19.0553977272727  C 19.7358081714527 19.4459339488636  20.0450960726351 19.7611860795455  20.4282437711149 19.7611860795455  L 31.5256783150338 19.7611860795455  C 31.9088260135135 19.7611860795455  32.2181139146959 19.4459339488636  32.2181139146959 19.0553977272727  Z M 20.6590556376689 9.40021306818181  L 20.6590556376689 15.9969815340909  L 19.7358081714527 15.9969815340909  L 19.7358081714527 13.4043856534091  C 19.7358081714527 13.0138494318182  19.4265202702703 12.6985973011364  19.0433725717905 12.6985973011364  C 18.6602248733108 12.6985973011364  18.3509369721284 13.0138494318182  18.3509369721284 13.4043856534091  L 18.3509369721284 15.9969815340909  L 17.4276895059122 15.9969815340909  L 17.4276895059122 9.40021306818181  L 18.3509369721284 9.40021306818181  L 18.3509369721284 10.4306640625  C 18.3509369721284 10.8212002840909  18.6602248733108 11.1364524147727  19.0433725717905 11.1364524147727  C 19.4265202702703 11.1364524147727  19.7358081714527 10.8212002840909  19.7358081714527 10.4306640625  L 19.7358081714527 9.40021306818181  L 20.6590556376689 9.40021306818181  Z M 22.9717905405405 9.40021306818181  L 22.9717905405405 15.9969815340909  L 22.0485430743243 15.9969815340909  L 22.0485430743243 9.40021306818181  L 22.9717905405405 9.40021306818181  Z " fill-rule="nonzero" fill="#4f3d3b" stroke="none" transform="matrix(1 0 0 1 241 317 )" />
  </g>
</svg>