<?xml version="1.0" encoding="utf-8"?>
<svg version="1.1" xmlns:xlink="http://www.w3.org/1999/xlink" width="17px" height="27px" xmlns="http://www.w3.org/2000/svg">
  <g transform="matrix(1 0 0 1 -342 -314 )">
    <path d="M 16.7517006835937 2.93389921356472  C 11.4115646484375 7.32255731644083  7.6020408203125 3.97417370886339  6.54761904296875 2.83637347379701  C 6.34353740234375 2.60881344545077  6.24149658203125 2.47877911020465  6.24149658203125 2.47877911020465  C 6.17346938476562 2.38125337043695  6.17346938476562 2.25121908185841  6.27551020507812 2.15369334209071  C 7.77210883789062 0.723315887721243  9.43877548828125 0.00812716053650483  11.2074830078125 0.00812716053650483  C 14.3707482910156 0.0731443048257747  16.6836734863281 2.47877915687224  16.7857143066406 2.57630484997235  C 16.8537415039062 2.64132199426162  16.8537415039062 2.67383058974005  16.8537415039062 2.77135632950775  C 16.8537415039062 2.86888206927545  16.8197278808594 2.90139066475387  16.7517006835937 2.93389921356472  Z M 11.2414965820313 0.560773003664267  C 9.64285712890625 0.528264408185839  8.1802720703125 1.14592744227046  6.85374150390625 2.38125337043695  C 7.56802719726563 3.19396783738938  11.1054421875 6.73740292450221  16.2074830078125 2.77135632950774  C 15.5952380859375 2.21871048637998  13.6224489746094 0.593281552475112  11.2414965820313 0.560773003664267  Z M 0.221088427734372 15.2546505530973  L 0.221088427734372 14.5069532304342  L 6.95578232421875 14.5069532304342  L 6.95578232421875 15.2546505530973  L 0.221088427734372 15.2546505530973  Z M 0.221088427734372 26.76268737901  L 0.221088427734372 26.0149900563468  L 6.95578232421875 26.0149900563468  L 6.95578232421875 26.76268737901  L 0.221088427734372 26.76268737901  Z " fill-rule="nonzero" fill="#000000" stroke="none" transform="matrix(1 0 0 1 342 314 )" />
  </g>
</svg>