<?xml version="1.0" encoding="utf-8"?>
<svg version="1.1" xmlns:xlink="http://www.w3.org/1999/xlink" width="14px" height="22px" xmlns="http://www.w3.org/2000/svg">
  <g transform="matrix(1 0 0 1 -342 -294 )">
    <path d="M 0.209846643273303 0.910833127520161  L 0.209846643273303 0.170580069724462  L 6.60209847722458 0.170580069724462  L 6.60209847722458 0.910833127520161  L 0.209846643273303 0.910833127520161  Z M 13.7691686970339 14.7181625420027  C 13.1234866856462 21.895399046539  7.79661019597458 22.0563236223118  6.21468926112288 21.9597688676075  C 5.92413234904661 21.9275839339718  5.73042774099576 21.895399046539  5.7304277873411 21.895399000336  C 5.60129136652542 21.8632140667003  5.50443910884534 21.766659311996  5.5044390625 21.6379196698589  C 5.53672317929025 19.4493453377016  6.21468926112288 17.7113597992272  7.50605328389831 16.4561480342742  C 9.86279260460806 14.2353887684812  13.3817594809322 14.4284982778898  13.5108959017479 14.4284982778898  C 13.6077482057733 14.4284982778898  13.6400323225636 14.4606832115255  13.7046004634534 14.5250530325941  C 13.7691686506886 14.5894228536626  13.7691686506886 14.6537927209341  13.7691686970339 14.7181625420027  Z M 7.89346245365467 16.8745519867271  C 6.73123485169492 17.9688391759073  6.11783695709746 19.4815302713374  6.05326876986229 21.3804403393817  C 7.21549637182204 21.5091800277218  12.4455206038136 21.6701046034946  13.1880548728814 14.9756418724798  C 12.3163841829979 15.0078268061156  9.66908795021186 15.1687513818884  7.89346245365467 16.8745519867271  Z " fill-rule="nonzero" fill="#000000" stroke="none" transform="matrix(1 0 0 1 342 294 )" />
  </g>
</svg>