<?xml version="1.0" encoding="utf-8"?>
<svg version="1.1" xmlns:xlink="http://www.w3.org/1999/xlink" width="8px" height="8px" xmlns="http://www.w3.org/2000/svg">
  <g transform="matrix(1 0 0 1 -325 -321 )">
    <path d="M 0.341647786458334 0.00164914772727281  C 7.11413454861111 -0.0643166193181817  7.74905520833333 5.34487736742424  7.809523828125 6.99402182765152  C 7.809523828125 7.29086785037879  7.77928949652778 7.48876519886364  7.77928949652778 7.48876519886364  C 7.74905516493056 7.62069678030303  7.68858654513889 7.75262831439394  7.53741497395833 7.75262831439394  C 5.48148151041667 7.95052566287878  3.81859409722222 7.42279943181818  2.51851853298611 6.2024324810606  C 0.250944835069444 4.02556174242424  0.0997732638888888 0.430426704545453  0.0997732638888888 0.298495170454544  C 0.0997732638888888 0.19954649621212  0.13000759548611 0.166563589015151  0.160241883680555 0.100597821969696  C 0.220710503472222 0.0346320549242419  0.31141345486111 0.00164914772727281  0.341647786458334 0.00164914772727281  Z M 2.91156462673611 5.77365492424242  C 4.03023433159722 6.86209029356061  5.48148146701389 7.32385075757576  7.29554045138889 7.19191917613636  C 7.29554045138889 6.00453513257576  6.99319730902778 0.661306912878782  0.674225260416667 0.562358285984849  C 0.764928211805557 1.45289630681819  1.15797430555556 4.12451041666667  2.91156462673611 5.77365492424242  Z " fill-rule="nonzero" fill="#000000" stroke="none" transform="matrix(1 0 0 1 325 321 )" />
  </g>
</svg>