<?xml version="1.0" encoding="utf-8"?>
<svg version="1.1" xmlns:xlink="http://www.w3.org/1999/xlink" width="28px" height="25px" xmlns="http://www.w3.org/2000/svg">
  <g transform="matrix(1 0 0 1 -414 -304 )">
    <path d="M 27 22  C 27.5053294936027 23.6446304314175  26.1279251665019 24.9786198424264  24.4276307692308 25  L 3.57236923076923 25  C 1.87207483349806 24.9786198424264  0.494670506397253 23.6446304314175  0.495384615384612 22  L 0.495384615384612 18.925  C 0.495384615384612 18.4417508438981  0.900394718614604 18.05  1.4 18.05  C 1.89960528138539 18.05  2.30461538461538 18.4417508438981  2.30461538461538 18.925  L 2.30461538461539 22  C 2.30603938714853 22.6764653646085  2.87300702676366 23.2243125359152  3.57236923076923 23  L 24.4276307692308 23  C 25.1269929732363 23.2243125359152  25.6939606128515 22.6764653646085  25.6953846153846 22  L 25.6953846153846 3  C 25.6939606128515 2.32353463539148  25.1269929732363 1.77568746408481  24.4276307692308 2  L 3.57236923076923 2  C 2.87300702676366 1.77568746408481  2.30603938714852 2.32353463539148  2.30461538461538 3  L 2.30461538461538 5.86125  C 2.30461538461538 6.34449915610194  1.89960528138539 6.73624999999999  1.39999999999999 6.73624999999999  C 0.9003947186146 6.73624999999999  0.495384615384609 6.34449915610194  0.495384615384609 5.86125  L 0.495384615384609 3  C 0.497522009564499 1.3573220201221  1.87409217123348 0.0263773639515315  3.57236923076923 0  L 24.4276307692308 0  C 26.1259078287665 0.0263773639515241  27.5024779904355 1.3573220201221  27 3  L 27 22  Z " fill-rule="nonzero" fill="#000000" stroke="none" transform="matrix(1 0 0 1 414 304 )" />
  </g>
</svg>