<?xml version="1.0" encoding="utf-8"?>
<svg version="1.1" xmlns:xlink="http://www.w3.org/1999/xlink" width="10px" height="10px" xmlns="http://www.w3.org/2000/svg">
  <g transform="matrix(1 0 0 1 -416 -313 )">
    <path d="M 9.52757894736842 5  C 9.52479428646706 7.69098559557428  7.4588284589651 9.8717273023819  4.90947368421052 9.87466666666667  C 2.3589645742551 9.87466666666667  0.291368421052629 7.6922040605085  0.291368421052629 5  C 0.291368421052629 2.30779593949149  2.3589645742551 0.125333333333329  4.90947368421052 0.125333333333329  C 7.45998279416595 0.125333333333329  9.52757894736842 2.30779593949149  9.52757894736842 5  Z M 7.75915789473684 5  C 7.75707033839624 3.33964106175751  6.48244530991393 1.99420353169286  4.90947368421053 1.992  C 3.33563655290324 1.992  2.05978947368421 3.33872747250897  2.05978947368421 5  C 2.05978947368421 6.66127252749102  3.33563655290324 8.00799999999999  4.90947368421053 8.00799999999999  C 6.48331081551781 8.00799999999999  7.75915789473684 6.66127252749102  7.75915789473684 5  C 7.75915789473684 2.99466666666667  7.75915789473684 7.00533333333334  7.75915789473684 5  Z " fill-rule="nonzero" fill="#000000" stroke="none" transform="matrix(1 0 0 1 416 313 )" />
  </g>
</svg>