<?xml version="1.0" encoding="utf-8"?>
<svg version="1.1" xmlns:xlink="http://www.w3.org/1999/xlink" width="23px" height="15px" xmlns="http://www.w3.org/2000/svg">
  <g transform="matrix(1 0 0 1 -414 -309 )">
    <path d="M 8.02753488372092 3.19928571428572  C 8.02753488372092 3.69634198913343  7.62521587752236 4.09928571428571  7.12893023255814 4.09928571428571  C 6.63264458759391 4.09928571428571  6.23032558139535 3.69634198913342  6.23032558139535 3.19928571428571  L 6.23032558139535 1.41342857142857  C 6.23032558139535 0.916372296580857  6.63264458759391 0.513428571428566  7.12893023255814 0.513428571428566  C 7.62521587752236 0.513428571428566  8.02753488372092 0.916372296580857  8.02753488372092 1.41342857142857  L 8.02753488372092 3.19928571428572  Z M 4.08651162790698 5.36571428571428  L 4.09293023255814 5.35928571428571  C 3.85330043365201 5.36272451860443  3.62222688193309 5.27015157397169  3.45106976744186 5.10214285714286  L 2.18917209302325 3.83957142857143  C 2.02064243329359 3.67078007682355  1.92596345631901 3.441849875996  1.92596345631901 3.20314285714286  C 1.92596345631901 2.70606122292803  2.32830298847387 2.30309693994684  2.82461395348837 2.30309693994684  C 3.06295088394019 2.30309693994684  3.29152615422382 2.39792293396641  3.46005581395349 2.56671428571429  L 4.72195348837209 3.82928571428571  C 4.89049438398043 3.99807109423953  4.98518111910761 4.22700353428652  4.98518111910761 4.46571428805723  C 4.98518111910761 4.96277056290494  4.58286211290904 5.36571428805723  4.08657646794482 5.36571428805723  Z M 2.83488372093024 8.4  L 1.05179534883721 8.4  C 0.555509703872978 8.4  0.153190697674419 7.99705627484771  0.153190697674419 7.5  C 0.153190697674419 7.00294372515228  0.555509703872978 6.6  1.05179534883721 6.6  L 2.83488372093024 6.6  C 3.33116936589446 6.6  3.73348837209303 7.00294372515228  3.73348837209303 7.5  C 3.73348837209303 7.99705627484771  3.33116936589446 8.4  2.83488372093024 8.4  Z M 3.46647441860465 12.4332857142857  C 3.29949211177977 12.6051510720871  3.07046647524917 12.7024643366209  2.83103255813953 12.7032857142857  C 2.8288412096231 12.7033017714272  2.82664980979158 12.7033098000786  2.82445840262872 12.7033098000786  C 2.3281727576645 12.7033098000786  1.92585375146593 12.3003660749263  1.92585375146593 11.8033098000786  C 1.92585375146593 11.5614188320536  2.02307284617784 11.3297103770749  2.19559069767442 11.1604285714286  L 3.45748837209302 9.89785714285714  C 3.62601803182269 9.72906579110925  3.85459330210632 9.63423979708969  4.09293023255814 9.63423979708969  C 4.58924119757264 9.63423979708969  4.9915807297275 10.0372040800709  4.9915807297275 10.5342857142857  C 4.9915807297275 10.7729927331389  4.89690175275292 11.0019229339664  4.72837209302325 11.1707142857143  L 3.46647441860465 12.4332857142857  Z M 8.02753488372092 13.5865714285714  C 8.02753488372092 14.0836277034191  7.62521587752236 14.4865714285714  7.12893023255814 14.4865714285714  C 6.63264458759391 14.4865714285714  6.23032558139535 14.0836277034191  6.23032558139535 13.5865714285714  L 6.23032558139535 11.8007142857143  C 6.23032558139535 11.3036580108666  6.63264458759391 10.9007142857143  7.12893023255814 10.9007142857143  C 7.62521587752236 10.9007142857143  8.02753488372092 11.3036580108666  8.02753488372092 11.8007142857143  L 8.02753488372092 13.5865714285714  Z M 11.4191255813953 12.7097142857143  L 11.4255441860465 12.7032857142857  C 11.1872128343548 12.7033029368686  10.9586366383817 12.6084930757965  10.7901023255814 12.4397142857143  L 9.52948837209302 11.1771428571429  C 9.36095871236335 11.008351505395  9.26627973538877 10.7794213045674  9.26627973538877 10.5407142857143  C 9.26627973538877 10.0436326514995  9.66861926754363 9.64066836851826  10.1649302325581 9.64066836851826  C 10.40326716301 9.64066836851826  10.6318424332936 9.73549436253783  10.8003720930233 9.90428571428571  L 12.0609860465116 11.1668571428571  C 12.2335480833963 11.3361440992219  12.3307954056529 11.5678832327607  12.3307954056529 11.8098094181199  C 12.3307954056529 12.3068656929676  11.9284763994543 12.7098094181199  11.4321907544901 12.7098094181199  C 11.4278355241562 12.7098094181199  11.4234803513698 12.70977770648  11.4191255813953 12.7097142857143  Z M 13.2060651162791 8.4  L 11.4216930232558 8.4  C 10.9254073782916 8.4  10.523088372093 7.99705627484771  10.523088372093 7.5  C 10.523088372093 7.00294372515228  10.9254073782916 6.6  11.4216930232558 6.6  L 13.2060651162791 6.6  C 13.7023507612433 6.6  14.1046697674419 7.00294372515228  14.1046697674419 7.5  C 14.1046697674419 7.99705627484771  13.7023507612433 8.4  13.2060651162791 8.4  Z M 10.8003720930232 5.09571428571428  C 10.6318377802229 5.26449307579653  10.4032615842498 5.35930293686857  10.1649302325581 5.35928571428571  C 9.66857974755606 5.35928571662866  9.2662607413575 4.95634199147637  9.2662607413575 4.45928571662866  C 9.2662607413575 4.22057496285796  9.36094747648468 3.99164252281096  9.52948837209302 3.82285714285714  L 10.7901023255814 2.56028571428572  C 10.9586319853111 2.39149436253784  11.1872072555947 2.29666836851827  11.4255441860465 2.29666836851827  C 11.921855151061 2.29666836851827  12.3241946832159 2.69963265149946  12.3241946832159 3.19671428571428  C 12.3241946832159 3.43542130456742  12.2295157062413 3.66435150539498  12.0609860465116 3.83314285714286  L 10.8003720930232 5.09571428571428  Z M 16.7517023255814 3.90257142857143  L 16.7517023255814 2.10257142857143  L 18.548911627907 2.10257142857143  L 18.548911627907 3.90257142857143  L 16.7517023255814 3.90257142857143  Z M 21.1548651162791 3.90257142857143  L 21.1548651162791 2.10257142857143  L 22.9520744186047 2.10257142857143  L 22.9520744186047 3.90257142857143  L 21.1548651162791 3.90257142857143  Z M 16.7517023255814 8.4  L 16.7517023255814 6.6  L 18.548911627907 6.6  L 18.548911627907 8.4  L 16.7517023255814 8.4  Z M 21.1548651162791 8.4  L 21.1548651162791 6.6  L 22.9520744186047 6.6  L 22.9520744186047 8.4  L 21.1548651162791 8.4  Z M 16.7517023255814 12.6994285714286  L 16.7517023255814 10.8994285714286  L 18.548911627907 10.8994285714286  L 18.548911627907 12.6994285714286  L 16.7517023255814 12.6994285714286  Z M 21.1548651162791 12.6994285714286  L 21.1548651162791 10.8994285714286  L 22.9520744186047 10.8994285714286  L 22.9520744186047 12.6994285714286  L 21.1548651162791 12.6994285714286  Z " fill-rule="nonzero" fill="#000000" stroke="none" transform="matrix(1 0 0 1 414 309 )" />
  </g>
</svg>