<?xml version="1.0" encoding="utf-8"?>
<svg version="1.1" xmlns:xlink="http://www.w3.org/1999/xlink" width="47px" height="40px" xmlns="http://www.w3.org/2000/svg">
  <g transform="matrix(1 0 0 1 -147 -297 )">
    <path d="M 46.9295 25.1909374871826  C 47.0568406367922 24.953471742723  47.0045933970215 24.6753973839603  46.7963333486328 24.4821874871826  C 46.5878686542801 24.2879598175379  46.2617633281402 24.215793806842  45.966 24.2984375128174  C 45.966 24.2984375128174  44.0703333486328 24.80375  42.9266666513672 23.9112499871826  C 41.5166666513672 22.8218750128174  40.2946666513672 21.6471874871826  39.95 21.3124999871826  L 39.95 17.3749999871826  C 41.0435990191168 17.3207635581215  42.1211174056307 17.1282743047421  43.146 16.8040624871826  C 44.2598666959476 16.3936328144435  45.2422192767147 15.7685266139043  46.013 14.9796875  C 46.1176804724176 14.8651657792616  46.1744069980345 14.7249405982736  46.1744069980345 14.5806973403527  C 46.1744069980345 14.2182604661974  45.8236967118855 13.9244473275353  45.3910736494017 13.9244473275353  C 45.3096928550146 13.9244473275353  45.2288090836667 13.935071506704  45.1513333486328 13.9559375  C 45.1513333486328 13.9559375  41.7595 14.8549999871826  40.2241666513672 13.1290625  C 37.8193333486328 10.4515625  34.404 6.40250001281737  33.6833333486328 5.5624999871826  L 33.6833333486328 3.5937499871826  C 33.6833333486328 3.23131311302734  33.3326230624838 2.93749997436521  32.9 2.93749997436521  C 32.4673769375162 2.93749997436521  32.1166666513672 3.23131311302734  32.1166666513672 3.5937499871826  L 32.1166666513672 4.99812500000002  L 10.34 2.37312498718262  L 10.34 0.968750012817395  C 10.3398952965564 0.606375183614148  9.98921568946628 0.312658852832442  9.5566666743164 0.312658852832442  C 9.12411765916653 0.312658852832442  8.77343805207644 0.606375183614148  8.7733333486328 0.968750012817395  L 8.7733333486328 2.83249999999998  C 8.44433334863282 3.68562501281735  6.00033334863281 9.9921874871826  4.5511666513672 13.030625  C 4.08891335807263 14.1063736762998  2.92557400027803 14.8609899614033  1.5666666513672 14.9665625128174  C 1.55121881732228 14.9657946694484  1.53574721554418 14.9654104948634  1.52027221581977 14.9654104948634  C 1.08764915333597 14.9654104948634  0.73693886718695 15.2592236335254  0.73693886718695 15.6216605076808  C 0.73693886718695 15.7846327512252  0.809322112830358 15.9417745578319  0.939999999999998 16.0625  C 1.6915619612121 16.6813893559042  2.67836393763696 17.0599106651068  3.72866665136718 17.1321875128174  C 4.17673148717404 17.1931088978858  4.6299059820156 17.2238323513097  5.08383334863282 17.2240625  L 5.48333334863281 17.2240625  L 5.48333334863281 21.1615625  C 4.5689816331595 22.3273474342531  3.5805583154721 23.4511532010387  2.5223333486328 24.528125  C 2.08834328975786 24.8345037675778  1.51474502069829 24.9642498628722  0.955666651367181 24.8825  C 0.917724901424776 24.8777992037323  0.879422280690733 24.8754392840255  0.841067868492132 24.8754392840255  C 0.408444806008362 24.8754392840255  0.0577345198593377 25.1692524226876  0.0577345198593377 25.5316892968428  C 0.0577345198593377 25.652261991608  0.0973848064713536 25.770504166136  0.172333348632804 25.8734375128174  C 0.893576787106326 26.6659249373738  1.99951811588457 27.1472340264837  4 27.1859375  L 4 39.0312499871826  C 3.1881666513672 39.3936868613379  3.53887693751622 39.6875  3.97149999999999 39  L 43.0833333486328 39  C 43.5159563931921 39.6874999787635  43.8666666513672 39.3936868463214  43 39.0312499871826  L 43 27.1203124871826  C 45.1896141597038 26.9101020067141  46.3211383595903 26.1973193461326  46.9295 25.1909374871826  Z M 14.1 15.5768750128174  L 14.1 19.4618749871826  L 7.05000000000001 20.6562500128174  L 7.05000000000001 16.9746875128174  L 14.1 15.5768750128174  Z M 15.6666666513672 19.3962500128174  L 15.6666666513672 15.471875  L 38.3833333486328 17.3749999871826  L 38.3833333486328 20.9187499871826  L 15.6666666513672 19.3962500128174  Z M 10.7395 3.7315624871826  L 18.0830893602942 4.6237659817541  L 28.4275911821065 5.88056292698155  L 32.4535 6.3696874871826  C 33.2838333486328 7.36062500000003  36.6208333486328 11.2915624871826  38.9551666513672 13.9099999871826  C 39.875600810622 14.8971781077734  41.2826794746693 15.4793326726049  42.7778333486328 15.4915625  L 42.5271666513672 15.59  C 41.3686528268407 15.9362369789688  40.1459405698107 16.1073317611701  38.916 16.0953124871826  L 38.8455 16.0953124871826  L 23.7455404615784 14.8252088666893  L 15.4395 14.1265624871826  L 10.7395 3.7315624871826  Z M 6.0865 15.8196874871826  C 5.38718286827859 15.9024045270231  4.67710507078777 15.8979816390732  3.97933334863282 15.8065625  L 3.68950000000001 15.7606249871826  C 4.76952049625379 15.2736070227407  5.60383429934905 14.4767929623909  6.0395 13.5162499871826  C 7.05000000000001 11.25875  9.42349999999999 8.69281248718261  10.34 6.3696874871826  L 13.8336666513672 14.2775000128174  L 6.0865 15.8196874871826  Z M 2.99233334863283 25.8603124871826  C 3.24235955510409 25.7382273303636  3.4672006486411 25.583103861538  3.6581666513672 25.4009375128174  C 4.70542353597514 24.3543767682546  5.68093658331827 23.258865207645  6.58000000000001 22.1196874871826  L 14.1 20.8071875  L 14.1 24.685625  L 4.22999999999999 25.8603124871826  C 3.81931036607881 25.9068003978962  3.40302298255401 25.9068003978962  2.99233334863283 25.8603124871826  Z M 5 38.3750000128174  L 5 27.1334375128174  L 14 26.0112500128174  L 14 38.3750000128174  L 5 38.3750000128174  Z M 16 38.3750000128174  L 16 25.945625  L 18 26.0571874871826  L 18 38.3750000128174  L 16 38.3750000128174  Z M 37 26.9628124871826  L 40 27.1071875  L 40 38.3750000128174  L 37 38.3750000128174  L 37 26.9628124871826  Z M 36 26.93  L 36 38.3750000128174  L 34 38.3750000128174  L 34 26.8184375128174  L 36 26.93  Z M 33 26.7856249871826  L 33 38.3750000128174  L 26 38.3750000128174  L 26 26.4509374871826  L 33 26.7856249871826  Z M 25 26.4115624871826  L 25 38.3750000128174  L 23 38.3750000128174  L 23 26.2868750128174  L 25 26.4115624871826  Z M 23 26.2540624871826  L 23 38.3750000128174  L 19 38.3750000128174  L 19 26.0900000128174  L 23 26.2540624871826  Z M 42 27.1859375  L 42 38.3750000128174  L 41 38.3750000128174  L 41 27.1465625  L 42 27.1859375  Z M 44.0703333486328 25.7224999871826  C 43.6465587243766 25.8497360567151  43.1950338572807 25.8989785905595  42.7465 25.866875  C 42.7021915845661 25.8637083331287  42.6576417640667 25.8637083331287  42.6133333486328 25.866875  L 15.6666666513672 24.6265625  L 15.6666666513672 20.6890625  L 27.2492245854438 21.4687473510846  L 38.869 22.2509375128174  C 39.339 22.6971875  40.5296666513672 23.7996875  41.8691666513672 24.8759374871826  C 42.4776973891439 25.3458698237718  43.2482761842623 25.6422322537744  44.0703333486328 25.7224999871826  Z " fill-rule="nonzero" fill="#3d3d59" stroke="none" transform="matrix(1 0 0 1 147 297 )" />
  </g>
</svg>