<?xml version="1.0" encoding="utf-8"?>
<svg version="1.1" xmlns:xlink="http://www.w3.org/1999/xlink" width="32px" height="12px" xmlns="http://www.w3.org/2000/svg">
  <g transform="matrix(1 0 0 1 -143 -182 )">
    <path d="M 0.190789473684215 10.0335553278689  C -0.185672514619879 10.2371926229508  1.1703216374269 11.9469774590164  3.18055555555555 11.8470799180328  L 28.6703216374269 11.8393954918033  C 28.6703216374269 11.8393954918033  31.3019005847953 11.8778176229508  31.9488304093567 9.47259221311475  C 32.0840643274854 8.96926229508196  31.3457602339181 10.0988729508197  29.3647660818713 7.04047131147541  L 26.2288011695906 1.88422131147541  C 26.2288011695906 1.88422131147541  25.3771929824561 0.055327868852459  24.1783625730994 0.055327868852459  C 23.4035087719298 0.055327868852459  21.2982456140351 1.88422131147541  21.2982456140351 2  L 10.9912280701754 2  C 10.9912280701754 1.88806352459016  9.01754385964913 0.0591700819672128  8.05263157894737 0.0591700819672128  C 7.20102339181287 0.0591700819672128  5.9327485380117 1.9264856557377  5.9327485380117 1.9264856557377  L 3.10745614035088 6.96746926229508  C 3.10745614035088 6.96746926229508  1.55043859649123 9.31890368852459  0.190789473684215 10.0335553278689  Z " fill-rule="nonzero" fill="#ff6a48" stroke="none" transform="matrix(1 0 0 1 143 182 )" />
  </g>
</svg>