<?xml version="1.0" encoding="utf-8"?>
<svg version="1.1" xmlns:xlink="http://www.w3.org/1999/xlink" width="33px" height="12px" xmlns="http://www.w3.org/2000/svg">
  <g transform="matrix(1 0 0 1 -143 -181 )">
    <path d="M 32.9359151785714 9.36346153846154  C 32.3687276785714 11.3177884615385  30.3725223214286 11.840625  29.33390625 11.8514423076923  L 29.2639285714286 11.8514423076923  L 3.59316964285714 11.8586538461538  C 1.75901785714286 11.9271634615385  0.333683035714286 10.7480769230769  0.156897321428571 10.0701923076923  C 0.0721875000000003 9.75288461538461  0.237924107142857 9.54735576923077  0.403660714285715 9.46442307692308  C 1.670625 8.84423076923077  3.18435267857143 6.72764423076923  3.20276785714286 6.70600961538461  L 6.03502232142857 1.996875  C 6.28178571428571 1.65072115384615  7.51191964285714 0.0605769230769231  8.49160714285714 0.0605769230769231  C 9.47129464285714 0.0605769230769231  11.1249776785714 1.38389423076923  11.5927232142857 2  L 21.7063392857143 2  C 22.2440625 1.34783653846154  23.9272098214286 0.0641826923076923  24.7374776785714 0.0569711538461538  L 24.74484375 0.0569711538461538  C 26.1701785714286 0.0569711538461538  27.1093526785714 1.89951923076923  27.1498660714286 1.97884615384615  L 30.2878125 6.78173076923077  C 31.5805580357143 8.64230769230769  32.2656026785714 8.71442307692308  32.4902678571429 8.73605769230769  C 32.5970758928571 8.746875  32.7775446428571 8.76490384615384  32.89171875 8.934375  C 33.0095758928571 9.10384615384615  32.9543303571429 9.29134615384615  32.9359151785714 9.36346153846154  Z M 3.57475446428572 11.1194711538462  L 3.5784375 11.1194711538462  C 3.58212053571429 11.1194711538462  3.58212053571429 11.1194711538462  3.5784375 11  L 29.2676116071429 11  C 29.3707366071429 11.1194711538462  31.4442857142857 11.1122596153846  32.1256473214286 9.41394230769231  C 31.5363616071429 9.25889423076923  30.7666071428571 8.77932692307692  29.6616964285714 7.18557692307692  L 26.49796875 2.33942307692308  C 26.2659375 1.88509615384615  25.5440625 0.792548076923075  24.7485267857143 0.792548076923075  L 24.74484375 0.792548076923075  C 24.3433928571429 0.796153846153844  23.0543303571429 1.64350961538461  22.0856919642857 2.42596153846154  C 22.0193973214286 2.48004807692308  21.9273214285714 2.51971153846154  21.8462946428571 2.50889423076923  L 11.4601339285714 2.5125  C 11.3680580357143 2.5125  11.2796651785714 2.48004807692308  11.2133705357143 2.41875  C 10.4841294642857 1.79134615384615  9.10299107142857 0.792548076923075  8.49897321428572 0.796153846153844  L 8.49529017857143 0.796153846153844  C 8.04227678571429 0.799759615384613  7.13625 1.75168269230769  6.66850446428572 2.39350961538461  L 3.83993303571429 7.09903846153846  C 3.76258928571429 7.21081730769231  2.33357142857143 9.20841346153846  0.956116071428573 10.0088942307692  C 1.21761160714286 10.3802884615385  2.20834821428572 11.1879807692308  3.57475446428572 11.1194711538462  Z " fill-rule="nonzero" fill="#7f0518" stroke="none" transform="matrix(1 0 0 1 143 181 )" />
  </g>
</svg>