<?xml version="1.0" encoding="utf-8"?>
<svg version="1.1" xmlns:xlink="http://www.w3.org/1999/xlink" width="16px" height="10px" xmlns="http://www.w3.org/2000/svg">
  <g transform="matrix(1 0 0 1 -154 -183 )">
    <path d="M 15.734011627907 9.81096540178572  C 15.6795058139535 9.84235491071429  15.6213662790698 9.85630580357143  15.5595930232558 9.85630580357143  C 15.4287790697674 9.85630580357143  15.2979651162791 9.7900390625  15.2289244186047 9.67145647321429  L 10.3088662790698 1.06375558035714  C 10.2107558139535 0.892857142857143  10.2761627906977 0.676618303571429  10.4542151162791 0.582449776785714  C 10.6322674418605 0.48828125  10.8575581395349 0.551060267857143  10.9556686046512 0.721958705357143  L 15.8793604651163 9.32965959821429  C 15.9774709302326 9.50055803571429  15.9120639534884 9.716796875  15.734011627907 9.81096540178572  Z M 0.832122093023258 9.67494419642857  C 0.766715116279072 9.7900390625  0.639534883720933 9.85630580357143  0.508720930232558 9.85979352678571  C 0.446947674418605 9.85979352678571  0.385174418604651 9.84584263392857  0.32703488372093 9.81794084821429  C 0.148982558139535 9.72377232142857  0.0799418604651163 9.50753348214286  0.178052325581393 9.33663504464286  L 5.30886627906977 0.299944196428571  C 5.37427325581395 0.181361607142857  5.50508720930233 0.115094866071429  5.63953488372093 0.115094866071429  C 5.77761627906977 0.118582589285714  5.90116279069768 0.191824776785714  5.96293604651163 0.310407366071429  L 10.4723837209302 8.90764508928571  C 10.563226744186 9.08203125  10.4905523255814 9.29827008928571  10.3088662790698 9.38546316964286  C 10.1271802325581 9.47614397321429  9.90188953488372 9.40290178571429  9.81104651162791 9.228515625  L 5.625 1.23465401785714  L 0.832122093023258 9.67494419642857  Z " fill-rule="nonzero" fill="#7f0518" stroke="none" transform="matrix(1 0 0 1 154 183 )" />
  </g>
</svg>