<?xml version="1.0" encoding="utf-8"?>
<svg version="1.1" xmlns:xlink="http://www.w3.org/1999/xlink" width="25px" height="14px" xmlns="http://www.w3.org/2000/svg">
  <g transform="matrix(1 0 0 1 -147 -193 )">
    <path d="M 24.8610276442308 13.8763912671233  C 24.7896634615385 13.9475599315068  24.6957632211538 13.9887628424658  24.5943509615385 14  L 0.529597355769229 14  C 0.428185096153845 13.9925085616438  0.330528846153843 13.9513056506849  0.259164663461537 13.8801369863014  C 0.187800480769229 13.8089683219178  0.146484374999999 13.7115796232877  0.146484374999999 13.6104452054795  L 0.142728365384614 0.399293664383562  C 0.142728365384614 0.189533390410959  0.315504807692306 0.0172303082191781  0.525841346153845 0  L 24.5868389423077 0  C 24.7971754807692 0.0134845890410959  24.9699519230769 0.185787671232877  25 0.395547945205479  L 25 13.6066994863014  C 24.9737079326923 13.7078339041096  24.9323918269231 13.8052226027397  24.8610276442308 13.8763912671233  Z M 1 1  L 1 13  L 24 13  L 24 1  L 1 1  Z " fill-rule="nonzero" fill="#7f0518" stroke="none" transform="matrix(1 0 0 1 147 193 )" />
  </g>
</svg>