<?xml version="1.0" encoding="utf-8"?>
<svg version="1.1" xmlns:xlink="http://www.w3.org/1999/xlink" width="25px" height="7px" xmlns="http://www.w3.org/2000/svg">
  <g transform="matrix(1 0 0 1 -147 -206 )">
    <path d="M 24.8647836538462 6.85523897058824  C 24.7934194711538 6.931640625  24.6957632211538 6.97587316176471  24.5981069711538 6.97587316176471  C 24.5943509615385 6.97587316176471  24.5943509615385 6.97587316176471  24.5981069711538 7  L 0.533353365384614 7  C 0.323016826923077 6.97989430147059  0.150240384615385 6.794921875  0.150240384615385 6.56973805147059  L 0.150240384615385 0.489774816176471  C 0.150240384615385 0.381204044117647  0.191556490384615 0.276654411764706  0.262920673076923 0.200252757352941  C 0.334284855769231 0.123851102941176  0.439453124999999 0.0916819852941177  0.533353365384614 0  L 24.5943509615385 0  C 24.8046875 0.0755974264705882  24.9774639423077 0.260569852941176  24.9774639423077 0.485753676470588  L 24.9774639423077 6.56571691176471  C 24.9774639423077 6.67428768382354  24.9361478365385 6.77883731617647  24.8647836538462 6.85523897058824  Z M 0.916466346153848 1  L 0.916466346153848 6.16360294117647  L 24.2112379807692 6.15958180147058  L 24.2112379807692 1  L 0.916466346153848 1  Z " fill-rule="nonzero" fill="#7f0518" stroke="none" transform="matrix(1 0 0 1 147 206 )" />
  </g>
</svg>