<?xml version="1.0" encoding="utf-8"?>
<svg version="1.1" xmlns:xlink="http://www.w3.org/1999/xlink" width="10px" height="11px" xmlns="http://www.w3.org/2000/svg">
  <g transform="matrix(1 0 0 1 -154 -196 )">
    <path d="M 9.84006485849057 10.8062764830508  L 9.4862912735849 10.8791048728814  L 0.0891804245282992 10.8827462923729  L 0.074439858490566 10.5258871822034  C 0.0670695754716981 10.4275688559322  0.0633844339622641 10.3838718220339  0.0633844339622641 10.3401747881356  L 0.0633844339622641 5.01641949152543  C 0.0633844339622641 2.34361758474577  2.2376179245283 0.155124470338986  4.96462264150943 0.169690148305085  C 6.27284787735849 0.169690148305085  7.50737028301887 0.672206038135593  8.43234080188679 1.58620233050847  C 9.35731132075471 2.50019862288136  9.86954599056604 3.71643273305085  9.86954599056604 5.0127780720339  L 9.84006485849057 10.8062764830508  Z M 0.811468160377359 5.02006091101695  L 0.815153301886792 10.1398967161017  L 9.11409198113208 10.1398967161017  L 9.11777712264151 5.01641949152543  C 9.11777712264151 2.75509798728814  7.25309551886793 0.916181144067796  4.96462264150943 0.916181144067796  L 4.92408608490566 0.916181144067796  C 2.65403891509434 0.938029661016952  0.811468160377359 2.76966366525424  0.811468160377359 5.02006091101695  Z " fill-rule="nonzero" fill="#7f0518" stroke="none" transform="matrix(1 0 0 1 154 196 )" />
  </g>
</svg>