<?xml version="1.0" encoding="utf-8"?>
<svg version="1.1" xmlns:xlink="http://www.w3.org/1999/xlink" width="5px" height="5px" xmlns="http://www.w3.org/2000/svg">
  <g transform="matrix(1 0 0 1 -164 -196 )">
    <path d="M 4.2140625 4.134375  C 3.76875 4.58359375  3.1828125 4.8296875  2.55390625 4.8375  L 2.53046875 4.8375  C 1.21796875 4.8375  0.14765625 3.7671875  0.14765625 2.4546875  C 0.14765625 1.15  1.20234375 0.08359375  2.50703125 0.071875  L 2.53046875 0.071875  C 3.1671875 0.071875  3.76484375 0.31796875  4.2140625 0.7671875  C 4.66328125 1.21640625  4.91328125 1.8140625  4.91328125 2.45078125  C 4.91328125 3.0875  4.6671875 3.68515625  4.2140625 4.134375  Z M 2.53046875 0.86875  L 2.51484375 0.868749999999997  C 1.64765625 0.876562499999997  0.94453125 1.58359375  0.94453125 2.4546875  C 0.94453125 3.3296875  1.65546875 4.040625  2.53046875 4.040625  C 2.95625 4.03671875  3.35078125 3.8765625  3.6515625 3.57578125  C 3.95234375000001 3.275  4.11640625 2.8765625  4.11640625 2.4546875  L 4.51484375 2.4546875  L 4.11640625 2.4546875  C 4.11640625 2.0328125  3.95234375 1.634375  3.6515625 1.33359375  C 3.35078125 1.0328125  2.95234375 0.86875  2.53046875 0.86875  Z " fill-rule="nonzero" fill="#7f0518" stroke="none" transform="matrix(1 0 0 1 164 196 )" />
  </g>
</svg>