<?xml version="1.0" encoding="utf-8"?>
<svg version="1.1" xmlns:xlink="http://www.w3.org/1999/xlink" width="5px" height="5px" xmlns="http://www.w3.org/2000/svg">
  <g transform="matrix(1 0 0 1 -149 -196 )">
    <path d="M 4.1140625 4.13828125  C 3.67265625 4.5796875  3.0828125 4.82578125  2.45390625 4.83359375  L 2.43046875 4.83359375  C 1.79375 4.83359375  1.19609375 4.5875  0.746875 4.13828125  C 0.29765625 3.6890625  0.04765625 3.09140625  0.04765625 2.4546875  C 0.04765625 1.15  1.10234375 0.08359375  2.40703125 0.071875  L 2.43046875 0.071875  C 3.74296875 0.071875  4.81328125 1.1421875  4.81328125 2.4546875  C 4.81328125 3.09140625  4.5671875 3.6890625  4.1140625 4.13828125  Z M 2.43046875 0.864843749999997  L 2.41484375 0.864843749999997  C 1.54765625 0.872656249999997  0.844531250000001 1.5796875  0.844531250000001 2.45078125  C 0.844531250000001 2.87265625  1.00859375 3.27109375  1.309375 3.571875  C 1.61015625 3.87265625  2.00859375 4.03671875  2.43046875 4.03671875  C 2.85234375 4.03671875  3.25078125 3.87265625  3.5515625 3.571875  C 3.85234375 3.27109375  4.01640625 2.87265625  4.01640625 2.45078125  C 4.01640625 1.57578125  3.30546875 0.864843749999997  2.43046875 0.864843749999997  Z " fill-rule="nonzero" fill="#7f0518" stroke="none" transform="matrix(1 0 0 1 149 196 )" />
  </g>
</svg>