<?xml version="1.0" encoding="utf-8"?>
<svg version="1.1" xmlns:xlink="http://www.w3.org/1999/xlink" width="9px" height="6px" xmlns="http://www.w3.org/2000/svg">
  <g transform="matrix(1 0 0 1 -143 -207 )">
    <path d="M 8.994375 5.55217633928571  C 8.994375 5.79073660714286  8.836171875 5.97907366071429  8.639296875 5.98325892857143  C 8.639296875 5.98325892857143  8.63578125 5.98325892857143  8.639296875 5.98325892857143  L 0.483046875 5.98325892857143  C 0.286171875000001 5.98325892857143  0.124453125 5.79073660714286  0.124453125 5.55636160714286  L 0.124453125 0.437779017857143  C 0.124453125 0.203404017857143  0.314296875000001 -0.0226004464285714  0.483046875 0.0108816964285714  L 8.63578125 0.00669642857142857  C 8.730703125 0.00669642857142857  8.822109375 0.052734375  8.88890625 0.132254464285714  C 8.955703125 0.211774553571429  8.994375 0.320591517857143  8.994375 0.43359375  L 8.994375 5.55217633928571  Z M 0.841640625 0.864676339285714  L 0.841640625 5.12946428571429  L 8.2771875 5.12946428571429  L 8.2771875 0.864676339285714  L 0.841640625 0.864676339285714  Z " fill-rule="nonzero" fill="#7f0518" stroke="none" transform="matrix(1 0 0 1 143 207 )" />
  </g>
</svg>