<?xml version="1.0" encoding="utf-8"?>
<svg version="1.1" xmlns:xlink="http://www.w3.org/1999/xlink" width="9px" height="6px" xmlns="http://www.w3.org/2000/svg">
  <g transform="matrix(1 0 0 1 -167 -207 )">
    <path d="M 8.91703125 5.54799107142857  C 8.91703125 5.77818080357143  8.758828125 5.970703125  8.561953125 5.970703125  L 0.405703125 5.97488839285714  C 0.31078125 5.97488839285714  0.219375 5.92885044642857  0.152578125 5.84933035714286  C 0.08578125 5.76981026785714  0.047109375 5.66099330357143  0.047109375 5.54799107142857  L 0.047109375 0.429408482142857  C 0.047109375 0.31640625  0.08578125 0.207589285714286  0.152578125 0.128069196428571  C 0.219375 0.0485491071428572  0.335390625 0.0108816964285714  0.405703125 0.00251116071428571  L 8.5584375 0.00251116071428571  C 8.7553125 0.00251116071428571  8.91703125 0.195033482142857  8.91703125 0.429408482142857  L 8.91703125 5.54799107142857  Z M 0.764296875 0.856305803571429  L 0.764296875 5.12109375  L 8.19984375 5.12109375  L 8.19984375 0.856305803571429  L 0.764296875 0.856305803571429  Z " fill-rule="nonzero" fill="#7f0518" stroke="none" transform="matrix(1 0 0 1 167 207 )" />
  </g>
</svg>