<?xml version="1.0" encoding="utf-8"?>
<svg version="1.1" xmlns:xlink="http://www.w3.org/1999/xlink" width="15px" height="17px" xmlns="http://www.w3.org/2000/svg">
  <g transform="matrix(1 0 0 1 -275 -184 )">
    <path d="M 13.0183184267241 5.78476602916151  C 13.285426252694 5.80579511331993  13.6386979054418 5.63335659034654  13.8110255253233 5.41044823251856  L 14.7631356748384 4.17814360496596  C 15.0043943628772 3.86691309367265  14.9311551050647 3.59353493386448  14.5864998653017 3.5935349009901  C 14.9311551387392 3.5935349009901  15.0043943628772 3.32436255801361  14.7631356748384 3.00892622988861  L 13.8110255253233 1.77662160233601  C 13.7507108701509 1.70091686649134  13.668855233028 1.62941798035272  13.5783832165948 1.57053651183478  L 14.2590773504849 0.687314747060642  C 14.5003360385237 0.376084235767326  14.4270967807112 0.102706075959157  14.0824415409483 0.102706075959157  L 1.52837375404095 0.102706075959157  C 1.18371848060345 0.102706075959157  1.11047925646552 0.371878418935642  1.35173791082974 0.687314747060642  L 1.89456994207974 1.38968635519802  C 1.64038668507543 1.4191270730198  1.33881334186423 1.57894814549814  1.18371848060345 1.77662160233601  L 0.231608331088361 3.00892622988861  C -0.00965035695043218 3.32015674118193  0.0635889008620683 3.5935349009901  0.408244140624999 3.5935349009901  C 0.063588867187499 3.5935349009901  -0.00965035695042973 3.86270724396658  0.231608331088361 4.17814360496596  L 1.18371848060345 5.41044823251856  C 1.35604610048491 5.63335659034654  1.70931775323276 5.80579511331992  1.97642557920259 5.80579511331992  C 1.70931775323276 5.80579511331992  1.35604610048491 5.97823363629332  1.18371848060345 6.20114199412129  L 0.231608331088361 7.43344665454827  C -0.00965035695043218 7.74467716584158  0.0635889008620683 8.01805532564975  0.408244140624999 8.01805532564975  C 0.063588867187499 8.01805532564975  -0.00965035695042973 8.28722766862623  0.231608331088361 8.60266402962562  L 1.18371848060345 9.83496865717822  C 1.35604610048491 10.0578770150062  1.70931775323276 10.2303155379796  1.97642557920259 10.2303155379796  C 1.70931775323276 10.2303155379796  1.35604610048491 10.402754060953  1.18371848060345 10.6256624187809  L 0.231608331088361 11.8579670463335  C -0.00965035695043218 12.1691975576269  0.0635889008620683 12.442575717435  0.408244140624999 12.4425757503094  C 0.063588867187499 12.4425757503094  -0.00965035695042973 12.7117480932859  0.231608331088361 13.0271844214109  L 1.18371848060345 14.2594890818379  C 1.35604610048491 14.4823974396658  1.70931775323276 14.6548359626392  1.97642557920259 14.6548359626392  C 1.70931775323276 14.6548359626392  1.35604610048491 14.8272744856126  1.18371848060345 15.0501828434406  L 0.231608331088361 16.2824874709932  C -0.00965035695043218 16.5937179822865  0.0635889008620683 16.8670961420947  0.408244140624999 16.8670961420947  L 14.5864998653017 16.8670961420947  C 14.9311551387392 16.8670961420947  15.0043943628772 16.5979237991182  14.7631356748384 16.2824874709932  L 13.8110255253233 15.0291537264078  C 13.6386979054418 14.8062453685798  13.285426252694 14.6338068456064  13.0183184267241 14.6338068456064  C 13.285426252694 14.6338068456064  13.6386979054418 14.461368322633  13.8110255253233 14.2384599648051  L 14.7631356748384 13.0061553372525  C 15.0043943628772 12.6949248259592  14.9311551050647 12.421546666151  14.5864998653017 12.421546666151  C 14.9311551387392 12.421546666151  15.0043943628772 12.1523743231745  14.7631356748384 11.8369379621751  L 13.8110255253233 10.6046333346225  C 13.6386979054418 10.3817249767946  13.285426252694 10.2092864538212  13.0183184267241 10.2092864538212  C 13.285426252694 10.2092864538212  13.6386979054418 10.0368479308478  13.8110255253233 9.8139395730198  L 14.7631356748384 8.58163491259282  C 15.0043943628772 8.27040440129951  14.9311551050647 7.99702624149134  14.5864998653017 7.99702624149134  C 14.9311551387392 7.99702624149134  15.0043943628772 7.72785389851485  14.7631356748384 7.41241753751547  L 13.8110255253233 6.18011290996287  C 13.6386979054418 5.9572045521349  13.285426252694 5.78476602916151  13.0183184267241 5.78476602916151  Z " fill-rule="nonzero" fill="#ffff00" stroke="none" fill-opacity="0.874509803921569" transform="matrix(1 0 0 1 275 184 )" />
  </g>
</svg>