<?xml version="1.0" encoding="utf-8"?>
<svg version="1.1" xmlns:xlink="http://www.w3.org/1999/xlink" width="17px" height="33px" xmlns="http://www.w3.org/2000/svg">
  <defs>
    <mask fill="white" id="clip349">
      <path d="M 10.1824920898437 25.8755622275391  C 10.1824921223958 25.6281859453125  9.97842744140625 25.4302848808594  9.73271695963541 25.4302848486328  L 7.26728304036459 25.4302848486328  C 7.01740797526043 25.4302848486328  6.81750794270833 25.6281859130859  6.81750791015624 25.8755622275391  C 6.81750787760416 26.1229385419922  7.01740797526043 26.3208395742188  7.26728304036459 26.3208395742188  L 9.73271695963541 26.3208395742188  C 9.98259202473957 26.3208395742188  10.1824920572917 26.1229385097656  10.1824920898437 25.8755622275391  Z M 7.78369147135417 27.0835832050781  C 7.78369147135417 26.836206890625  7.58379140625 26.6383058583984  7.33391637369793 26.6383058583984  C 7.08404130859374 26.6383058583984  6.88414127604167 26.8362069228516  6.88414127604167 27.0835832050781  L 6.88414127604167 32.5547226533203  C 6.88414127604167 32.8020989677734  7.08404134114583 33  7.33391637369793 33  C 7.58379140625 33  7.78369147135417 32.8020989355469  7.78369147135417 32.5547226533203  L 7.78369147135417 27.0835832050781  Z M 8.97892721354166 27.0835832050781  C 8.97476263020834 26.836206890625  8.77486256510417 26.6383058583984  8.52915208333333 26.6383058583984  C 8.27927701822917 26.6383058583984  8.07937698567707 26.8362069228516  8.07937698567707 27.0835832050781  L 8.07937698567707 32.5547226533203  C 8.07937698567707 32.8020989677734  8.27927705078126 33  8.52915208333333 33  C 8.77902711588541 33  8.97892718098958 32.8020989355469  8.97892721354166 32.5547226533203  L 8.97892721354166 27.0835832050781  Z M 10.1158587239583 27.0835832050781  C 10.1158587239583 26.836206890625  9.91179407552083 26.6383058583984  9.66608362630207 26.6383058583984  C 9.41620856119791 26.6383058583984  9.21630852864583 26.8362069228516  9.21630852864583 27.0835832050781  L 9.21630852864583 32.5547226533203  C 9.21630852864583 32.8020989677734  9.41620859374999 33  9.66608362630207 33  C 9.91595865885417 33  10.1158587239583 32.8020989355469  10.1158587239583 32.5547226533203  L 10.1158587239583 27.0835832050781  Z M 16.9457771158854 8.3118440625  C 17.0498917317708 8.04797599804687  16.9707646158854 7.73463268359374  16.7292187174479 7.45427286914063  L 15.6964017903646 6.246251859375  C 15.6672497070313 6.21326835937501  15.6339330403646 6.18028482714843  15.6006163736979 6.147301359375  C 15.6339330403646 6.11431785937499  15.6672497395833 6.08133432714843  15.6964017903646 6.04835082714844  L 16.7292187174479 4.84032984960938  C 16.9832583658854 4.54347828515624  17.0582208984375 4.21776612597655  16.9291187825521 3.94152924902343  C 16.8708146158854 3.81784109179688  16.6875728841146 3.53748127734375  16.1961519205729 3.53748124511718  L 13.2268032552083 3.53748124511718  L 13.2268032552083 2.53973014453126  C 13.2268032552083 1.966641703125  12.7562052083333 1.50074963671875  12.1773279947917 1.50074963671875  L 9.77852740885417 1.50074963671875  C 9.78685657552084 1.45127438671876  9.79102115885416 1.40179910449219  9.79102115885416 1.35232382226563  L 9.79102115885416 1.0389805078125  C 9.79102115885416 0.465892066406242  9.32042311197917 0  8.74154589843751 0  L 8.26261868489583 0  C 7.68374147135417 0  7.21314342447916 0.465892066406242  7.21314342447916 1.0389805078125  L 7.21314342447916 1.35232382226563  C 7.21314342447916 1.40179907226563  7.21730800781251 1.45127435449219  7.22563717447918 1.50074963671875  L 4.82683658854167 1.50074963671875  C 4.24795937500001 1.50074963671875  3.777361328125 1.966641703125  3.777361328125 2.53973014453126  L 3.777361328125 3.53748124511718  L 0.808012662760423 3.53748124511718  C 0.316591699218748 3.53748124511718  0.133350000000007 3.82196399707031  0.075045800781254 3.94152924902343  C -0.0540563151041624 4.21776612597655  0.020906217447911 4.54347828515626  0.274945865885419 4.84032984960938  L 1.30776279296875 6.04835082714844  C 1.33691487630208 6.08133432714843  1.37023154296874 6.11431785937499  1.40354820963542 6.147301359375  C 1.37023154296874 6.18028485937499  1.33691484375 6.21326839160157  1.30776279296875 6.246251859375  L 0.274945865885419 7.45427286914063  C 0.0333999674479249 7.73875562109375  -0.0457271158854079 8.04797603027343  0.0583874674479148 8.3118440625  C -0.0457271484374928 8.57571212695312  0.0292353841145806 8.88905544140625  0.274945865885419 9.16941528808595  L 1.30776279296875 10.3774362978516  C 1.33691487630208 10.4104197978516  1.37023154296874 10.4434033300781  1.40354820963542 10.4763867978516  C 1.37023154296874 10.5093702978516  1.33691484375 10.5423538300781  1.30776279296875 10.5753373300781  L 0.274945865885419 11.7833583076172  C 0.0333999674479249 12.0678410595703  -0.0457271158854079 12.37706146875  0.0583874674479148 12.6409295332031  C -0.0457271484374928 12.9047975976563  0.0292353841145806 13.2181409121094  0.274945865885419 13.4985007587891  L 1.30776279296875 14.7065217363281  C 1.33691487630208 14.7395052363281  1.37023154296874 14.7724887685547  1.40354820963542 14.8054722685547  C 1.37023154296874 14.8384557685547  1.33691484375 14.8714393007812  1.30776279296875 14.9044228007813  L 0.274945865885419 16.1124437783203  C 0.0333999674479249 16.3969265302734  -0.0457271158854079 16.7061469394531  0.0583874674479148 16.9700150039063  C -0.0457271484374928 17.2338830683594  0.0292353841145806 17.5472263828125  0.274945865885419 17.8275861972656  L 1.30776279296875 19.0356072070312  C 1.33691487630208 19.0685907070313  1.37023154296874 19.1015742392578  1.40354820963542 19.1345577070312  C 1.37023154296874 19.1675412070313  1.33691484375 19.2005247392578  1.30776279296875 19.2335082392578  L 0.274945865885419 20.4415292490235  C 0.020906217447911 20.7383808134766  -0.0540563151041624 21.0640929726563  0.075045800781254 21.3403298496094  C 0.133349967447922 21.4640180068359  0.316591699218748 21.7443778212891  0.808012662760423 21.7443778212891  L 3.777361328125 21.7443778212891  L 3.777361328125 22.742128921875  C 3.777361328125 23.3152173632812  4.24795937500001 23.7811094296875  4.82683658854167 23.7811094296875  L 7.22563717447918 23.7811094296875  C 7.21730800781251 23.8305846796875  7.21314342447916 23.8800599619141  7.21314342447916 23.9295352441406  L 7.21314342447916 24.2428785585937  C 7.21314342447916 24.815967  7.68374147135417 25.2818590664062  8.26261868489583 25.2818590664062  L 8.74154589843749 25.2818590664062  C 9.32042311197917 25.2818590664062  9.79102115885416 24.815967  9.79102115885416 24.2428785585937  L 9.79102115885416 23.9295352441406  C 9.79102115885416 23.8800599941406  9.78685657552084 23.8305847119141  9.77852740885417 23.7811094296875  L 12.1773279947917 23.7811094296875  C 12.7562052083333 23.7811094296875  13.2268032552083 23.3152173632812  13.2268032552083 22.742128921875  L 13.2268032552083 21.7443778212891  L 16.1961519205729 21.7443778212891  C 16.6875728841146 21.7443778212891  16.8708145833333 21.4598950693359  16.9291187825521 21.3403298496094  C 17.0582208984375 21.0640929726563  16.9832583658854 20.7383808134765  16.7292187174479 20.4415292490234  L 15.6964017903646 19.2335082392578  C 15.6672497070313 19.2005247392578  15.6339330403646 19.1675412070313  15.6006163736979 19.1345577070312  C 15.6339330403646 19.1015742070313  15.6672497395833 19.0685906748047  15.6964017903646 19.0356072070312  L 16.7292187174479 17.8275861972656  C 16.9707646158854 17.5431034453125  17.0498916992188 17.2338830361328  16.9457771158854 16.9700150039063  C 17.0498917317708 16.7061469394531  16.9749291992187 16.392803625  16.7292187174479 16.1124437783203  L 15.6964017903646 14.9044228007813  C 15.6672497070313 14.8714393007812  15.6339330403646 14.8384557685547  15.6006163736979 14.8054722685547  C 15.6339330403646 14.7724887685547  15.6672497395833 14.7395052363281  15.6964017903646 14.7065217363281  L 16.7292187174479 13.4985007587891  C 16.9707646158854 13.2140180068359  17.0498916992188 12.9047975976563  16.9457771158854 12.6409295332031  C 17.0498917317708 12.37706146875  16.9749291992187 12.0637181542969  16.7292187174479 11.7833583076172  L 15.6964017903646 10.5753373300781  C 15.6672497070313 10.5423538300781  15.6339330403646 10.5093702978516  15.6006163736979 10.4763867978516  C 15.6339330403646 10.4434032978516  15.6672497395833 10.410419765625  15.6964017903646 10.3774362978516  L 16.7292187174479 9.16941528808593  C 16.9707646158854 8.88493253613282  17.0498916992188 8.57571212695312  16.9457771158854 8.3118440625  Z M 8.25845410156251 1.50074963671875  C 8.17932698567709 1.50074963671875  8.10852906901043 1.43478260449219  8.10852906901043 1.35232382226563  L 8.10852906901043 1.0389805078125  C 8.10852906901043 0.95652172558593  8.17516243489583 0.890554725585944  8.25845410156251 0.890554725585944  L 8.73738131510417 0.890554725585944  C 8.82067301432291 0.890554725585944  8.88730634765625 0.956521757812493  8.88730634765625 1.0389805078125  L 8.88730634765625 1.35232382226563  C 8.88730634765625 1.43478260449219  8.82067298177083 1.50074960449219  8.73738131510417 1.50074963671875  L 8.25845410156251 1.50074963671875  Z M 4.67274697265625 3.53748124511718  L 4.67274697265625 2.53973014453126  C 4.67274697265625 2.45727136230468  4.73938033854167 2.39130436230468  4.82267200520833 2.39130436230468  L 12.181492578125 2.39130436230468  C 12.2647842773437 2.39130436230468  12.3314176106771 2.45727139453125  12.3314176106771 2.53973014453126  L 12.3314176106771 3.53748124511718  L 4.67274697265625 3.53748124511718  Z M 2.5071630859375 6  C 2.34474430338543 5.70202398046876  2.09070465494792 5.59070463574218  1.99075462239584 5.47526235351563  L 1.09536897786459 5  L 15.9046310221354 5  L 15.0092453776042 5.47113941601562  C 14.9092953450521 5.58658169824219  14.6552556966146 5.70202398046876  14.4886723307292 6  L 2.5071630859375 6  Z M 1.09536897786459 8  L 1.99075462239584 6.82346327050782  C 2.09070465494792 6.70802098828125  2.34474430338543 6.59257870605468  2.51132766927083 7  L 14.4928369140625 7  C 14.6552556966146 6.59257870605468  14.9134599283854 6.70802098828125  15.0134099609375 6.82346327050782  L 15.9087956054688 8  L 1.09536897786459 8  Z M 8.74154589843749 23.7811094296875  C 8.82067301432291 23.7811094296875  8.89147093098957 23.8470764619141  8.89147093098957 23.9295352441406  L 8.89147093098957 24.2428785585937  C 8.89147093098957 24.3253373408203  8.82483756510417 24.3913043408203  8.74154589843749 24.3913043408203  L 8.26261868489583 24.3913043408203  C 8.17932698567709 24.3913043408203  8.11269365234375 24.3253373085938  8.11269365234375 24.2428785585937  L 8.11269365234375 23.9295352441406  C 8.11269365234375 23.8470764619141  8.17932701822917 23.7811094619141  8.26261868489583 23.7811094296875  L 8.74154589843749 23.7811094296875  Z M 12.3230884440104 22.742128921875  L 12.3272530273438 22.742128921875  C 12.3272530273438 22.8245877041016  12.2606196614583 22.8905547041016  12.1773279947917 22.8905547363281  L 4.818507421875 22.8905547363281  C 4.73521572265626 22.8905547363281  4.66858238932292 22.8245877041016  4.66858238932292 22.742128921875  L 4.66858238932292 21.7443778212891  L 12.3230884440104 21.7443778212891  L 12.3230884440104 22.742128921875  Z M 14.4928369140625 19  C 14.6552556966146 19.5798350859375  14.9092953450521 19.6911544306641  15.0092453776042 19.8065967128906  L 15.9046310221354 20.8497001582031  L 1.09536897786459 20.8497001582031  L 1.99075462239584 19.8065967128906  C 2.09070465494792 19.6911544306641  2.34474430338543 19.5757121484375  2.51132766927083 19  L 14.4928369140625 19  Z M 15.9046310221354 17  L 15.0092453776042 18.4583957958984  C 14.9092953450521 18.573838078125  14.6552556966146 18.6892803603516  14.4886723307292 18.6892803603516  L 2.5071630859375 18.6892803603516  C 2.34474430338543 18.6892803603516  2.08654007161459 18.573838078125  1.98659003906251 18.4583957958984  L 1.09536897786459 17  L 15.9046310221354 17  Z M 14.4928369140625 15.2466266777344  C 14.6552556966146 15.2507496152344  14.9092953450521 15.3620689599609  15.0092453776042 15.4775112421875  L 15.9046310221354 16  L 1.09536897786459 16  L 1.99075462239584 15.4775112421875  C 2.09070465494792 15.3620689599609  2.34474430338543 15.2466266777344  2.51132766927083 15.2466266777344  L 14.4928369140625 15.2466266777344  Z M 15.9046310221354 13  L 15.0092453776042 14.1293103574219  C 14.9092953450521 14.2447526396484  14.6552556966146 14.360194921875  14.4886723307292 14.3601948896484  L 11.7000000000001 14.3601948896484  L 2.5071630859375 14.3601948896484  C 2.34474430338543 14.3601948896484  2.08654007161459 14.2447526074219  1.98659003906251 14.1293103574219  L 1.09536897786459 13  L 15.9046310221354 13  Z M 14.4928369140625 11  C 14.6552556966146 10.9216641767578  14.9092953450521 11.0371064589844  15.0092453776042 11.1525487412109  L 15.9046310221354 12.1956521865234  L 1.09536897786459 12.1956521865234  L 1.99075462239584 11.1525487412109  C 2.09070465494792 11.0371064589844  2.34474430338543 10.9216641767578  2.51132766927083 11  L 14.4928369140625 11  Z M 15.9046310221354 9  L 15.0092453776042 9.80022488671875  C 14.9092953450521 9.9156671689453  14.6552556966146 10.0311094511719  14.4886723307292 10  L 2.5071630859375 10  C 2.34474430338543 10.0311094511719  2.08654007161459 9.91566716894532  1.98659003906251 9.80022488671875  L 1.09536897786459 9  L 15.9046310221354 9  Z " fill-rule="evenodd" />
    </mask>
  </defs>
  <g transform="matrix(1 0 0 1 -273 -180 )">
    <path d="M 10.1824920898437 25.8755622275391  C 10.1824921223958 25.6281859453125  9.97842744140625 25.4302848808594  9.73271695963541 25.4302848486328  L 7.26728304036459 25.4302848486328  C 7.01740797526043 25.4302848486328  6.81750794270833 25.6281859130859  6.81750791015624 25.8755622275391  C 6.81750787760416 26.1229385419922  7.01740797526043 26.3208395742188  7.26728304036459 26.3208395742188  L 9.73271695963541 26.3208395742188  C 9.98259202473957 26.3208395742188  10.1824920572917 26.1229385097656  10.1824920898437 25.8755622275391  Z M 7.78369147135417 27.0835832050781  C 7.78369147135417 26.836206890625  7.58379140625 26.6383058583984  7.33391637369793 26.6383058583984  C 7.08404130859374 26.6383058583984  6.88414127604167 26.8362069228516  6.88414127604167 27.0835832050781  L 6.88414127604167 32.5547226533203  C 6.88414127604167 32.8020989677734  7.08404134114583 33  7.33391637369793 33  C 7.58379140625 33  7.78369147135417 32.8020989355469  7.78369147135417 32.5547226533203  L 7.78369147135417 27.0835832050781  Z M 8.97892721354166 27.0835832050781  C 8.97476263020834 26.836206890625  8.77486256510417 26.6383058583984  8.52915208333333 26.6383058583984  C 8.27927701822917 26.6383058583984  8.07937698567707 26.8362069228516  8.07937698567707 27.0835832050781  L 8.07937698567707 32.5547226533203  C 8.07937698567707 32.8020989677734  8.27927705078126 33  8.52915208333333 33  C 8.77902711588541 33  8.97892718098958 32.8020989355469  8.97892721354166 32.5547226533203  L 8.97892721354166 27.0835832050781  Z M 10.1158587239583 27.0835832050781  C 10.1158587239583 26.836206890625  9.91179407552083 26.6383058583984  9.66608362630207 26.6383058583984  C 9.41620856119791 26.6383058583984  9.21630852864583 26.8362069228516  9.21630852864583 27.0835832050781  L 9.21630852864583 32.5547226533203  C 9.21630852864583 32.8020989677734  9.41620859374999 33  9.66608362630207 33  C 9.91595865885417 33  10.1158587239583 32.8020989355469  10.1158587239583 32.5547226533203  L 10.1158587239583 27.0835832050781  Z M 16.9457771158854 8.3118440625  C 17.0498917317708 8.04797599804687  16.9707646158854 7.73463268359374  16.7292187174479 7.45427286914063  L 15.6964017903646 6.246251859375  C 15.6672497070313 6.21326835937501  15.6339330403646 6.18028482714843  15.6006163736979 6.147301359375  C 15.6339330403646 6.11431785937499  15.6672497395833 6.08133432714843  15.6964017903646 6.04835082714844  L 16.7292187174479 4.84032984960938  C 16.9832583658854 4.54347828515624  17.0582208984375 4.21776612597655  16.9291187825521 3.94152924902343  C 16.8708146158854 3.81784109179688  16.6875728841146 3.53748127734375  16.1961519205729 3.53748124511718  L 13.2268032552083 3.53748124511718  L 13.2268032552083 2.53973014453126  C 13.2268032552083 1.966641703125  12.7562052083333 1.50074963671875  12.1773279947917 1.50074963671875  L 9.77852740885417 1.50074963671875  C 9.78685657552084 1.45127438671876  9.79102115885416 1.40179910449219  9.79102115885416 1.35232382226563  L 9.79102115885416 1.0389805078125  C 9.79102115885416 0.465892066406242  9.32042311197917 0  8.74154589843751 0  L 8.26261868489583 0  C 7.68374147135417 0  7.21314342447916 0.465892066406242  7.21314342447916 1.0389805078125  L 7.21314342447916 1.35232382226563  C 7.21314342447916 1.40179907226563  7.21730800781251 1.45127435449219  7.22563717447918 1.50074963671875  L 4.82683658854167 1.50074963671875  C 4.24795937500001 1.50074963671875  3.777361328125 1.966641703125  3.777361328125 2.53973014453126  L 3.777361328125 3.53748124511718  L 0.808012662760423 3.53748124511718  C 0.316591699218748 3.53748124511718  0.133350000000007 3.82196399707031  0.075045800781254 3.94152924902343  C -0.0540563151041624 4.21776612597655  0.020906217447911 4.54347828515626  0.274945865885419 4.84032984960938  L 1.30776279296875 6.04835082714844  C 1.33691487630208 6.08133432714843  1.37023154296874 6.11431785937499  1.40354820963542 6.147301359375  C 1.37023154296874 6.18028485937499  1.33691484375 6.21326839160157  1.30776279296875 6.246251859375  L 0.274945865885419 7.45427286914063  C 0.0333999674479249 7.73875562109375  -0.0457271158854079 8.04797603027343  0.0583874674479148 8.3118440625  C -0.0457271484374928 8.57571212695312  0.0292353841145806 8.88905544140625  0.274945865885419 9.16941528808595  L 1.30776279296875 10.3774362978516  C 1.33691487630208 10.4104197978516  1.37023154296874 10.4434033300781  1.40354820963542 10.4763867978516  C 1.37023154296874 10.5093702978516  1.33691484375 10.5423538300781  1.30776279296875 10.5753373300781  L 0.274945865885419 11.7833583076172  C 0.0333999674479249 12.0678410595703  -0.0457271158854079 12.37706146875  0.0583874674479148 12.6409295332031  C -0.0457271484374928 12.9047975976563  0.0292353841145806 13.2181409121094  0.274945865885419 13.4985007587891  L 1.30776279296875 14.7065217363281  C 1.33691487630208 14.7395052363281  1.37023154296874 14.7724887685547  1.40354820963542 14.8054722685547  C 1.37023154296874 14.8384557685547  1.33691484375 14.8714393007812  1.30776279296875 14.9044228007813  L 0.274945865885419 16.1124437783203  C 0.0333999674479249 16.3969265302734  -0.0457271158854079 16.7061469394531  0.0583874674479148 16.9700150039063  C -0.0457271484374928 17.2338830683594  0.0292353841145806 17.5472263828125  0.274945865885419 17.8275861972656  L 1.30776279296875 19.0356072070312  C 1.33691487630208 19.0685907070313  1.37023154296874 19.1015742392578  1.40354820963542 19.1345577070312  C 1.37023154296874 19.1675412070313  1.33691484375 19.2005247392578  1.30776279296875 19.2335082392578  L 0.274945865885419 20.4415292490235  C 0.020906217447911 20.7383808134766  -0.0540563151041624 21.0640929726563  0.075045800781254 21.3403298496094  C 0.133349967447922 21.4640180068359  0.316591699218748 21.7443778212891  0.808012662760423 21.7443778212891  L 3.777361328125 21.7443778212891  L 3.777361328125 22.742128921875  C 3.777361328125 23.3152173632812  4.24795937500001 23.7811094296875  4.82683658854167 23.7811094296875  L 7.22563717447918 23.7811094296875  C 7.21730800781251 23.8305846796875  7.21314342447916 23.8800599619141  7.21314342447916 23.9295352441406  L 7.21314342447916 24.2428785585937  C 7.21314342447916 24.815967  7.68374147135417 25.2818590664062  8.26261868489583 25.2818590664062  L 8.74154589843749 25.2818590664062  C 9.32042311197917 25.2818590664062  9.79102115885416 24.815967  9.79102115885416 24.2428785585937  L 9.79102115885416 23.9295352441406  C 9.79102115885416 23.8800599941406  9.78685657552084 23.8305847119141  9.77852740885417 23.7811094296875  L 12.1773279947917 23.7811094296875  C 12.7562052083333 23.7811094296875  13.2268032552083 23.3152173632812  13.2268032552083 22.742128921875  L 13.2268032552083 21.7443778212891  L 16.1961519205729 21.7443778212891  C 16.6875728841146 21.7443778212891  16.8708145833333 21.4598950693359  16.9291187825521 21.3403298496094  C 17.0582208984375 21.0640929726563  16.9832583658854 20.7383808134765  16.7292187174479 20.4415292490234  L 15.6964017903646 19.2335082392578  C 15.6672497070313 19.2005247392578  15.6339330403646 19.1675412070313  15.6006163736979 19.1345577070312  C 15.6339330403646 19.1015742070313  15.6672497395833 19.0685906748047  15.6964017903646 19.0356072070312  L 16.7292187174479 17.8275861972656  C 16.9707646158854 17.5431034453125  17.0498916992188 17.2338830361328  16.9457771158854 16.9700150039063  C 17.0498917317708 16.7061469394531  16.9749291992187 16.392803625  16.7292187174479 16.1124437783203  L 15.6964017903646 14.9044228007813  C 15.6672497070313 14.8714393007812  15.6339330403646 14.8384557685547  15.6006163736979 14.8054722685547  C 15.6339330403646 14.7724887685547  15.6672497395833 14.7395052363281  15.6964017903646 14.7065217363281  L 16.7292187174479 13.4985007587891  C 16.9707646158854 13.2140180068359  17.0498916992188 12.9047975976563  16.9457771158854 12.6409295332031  C 17.0498917317708 12.37706146875  16.9749291992187 12.0637181542969  16.7292187174479 11.7833583076172  L 15.6964017903646 10.5753373300781  C 15.6672497070313 10.5423538300781  15.6339330403646 10.5093702978516  15.6006163736979 10.4763867978516  C 15.6339330403646 10.4434032978516  15.6672497395833 10.410419765625  15.6964017903646 10.3774362978516  L 16.7292187174479 9.16941528808593  C 16.9707646158854 8.88493253613282  17.0498916992188 8.57571212695312  16.9457771158854 8.3118440625  Z M 8.25845410156251 1.50074963671875  C 8.17932698567709 1.50074963671875  8.10852906901043 1.43478260449219  8.10852906901043 1.35232382226563  L 8.10852906901043 1.0389805078125  C 8.10852906901043 0.95652172558593  8.17516243489583 0.890554725585944  8.25845410156251 0.890554725585944  L 8.73738131510417 0.890554725585944  C 8.82067301432291 0.890554725585944  8.88730634765625 0.956521757812493  8.88730634765625 1.0389805078125  L 8.88730634765625 1.35232382226563  C 8.88730634765625 1.43478260449219  8.82067298177083 1.50074960449219  8.73738131510417 1.50074963671875  L 8.25845410156251 1.50074963671875  Z M 4.67274697265625 3.53748124511718  L 4.67274697265625 2.53973014453126  C 4.67274697265625 2.45727136230468  4.73938033854167 2.39130436230468  4.82267200520833 2.39130436230468  L 12.181492578125 2.39130436230468  C 12.2647842773437 2.39130436230468  12.3314176106771 2.45727139453125  12.3314176106771 2.53973014453126  L 12.3314176106771 3.53748124511718  L 4.67274697265625 3.53748124511718  Z M 2.5071630859375 6  C 2.34474430338543 5.70202398046876  2.09070465494792 5.59070463574218  1.99075462239584 5.47526235351563  L 1.09536897786459 5  L 15.9046310221354 5  L 15.0092453776042 5.47113941601562  C 14.9092953450521 5.58658169824219  14.6552556966146 5.70202398046876  14.4886723307292 6  L 2.5071630859375 6  Z M 1.09536897786459 8  L 1.99075462239584 6.82346327050782  C 2.09070465494792 6.70802098828125  2.34474430338543 6.59257870605468  2.51132766927083 7  L 14.4928369140625 7  C 14.6552556966146 6.59257870605468  14.9134599283854 6.70802098828125  15.0134099609375 6.82346327050782  L 15.9087956054688 8  L 1.09536897786459 8  Z M 8.74154589843749 23.7811094296875  C 8.82067301432291 23.7811094296875  8.89147093098957 23.8470764619141  8.89147093098957 23.9295352441406  L 8.89147093098957 24.2428785585937  C 8.89147093098957 24.3253373408203  8.82483756510417 24.3913043408203  8.74154589843749 24.3913043408203  L 8.26261868489583 24.3913043408203  C 8.17932698567709 24.3913043408203  8.11269365234375 24.3253373085938  8.11269365234375 24.2428785585937  L 8.11269365234375 23.9295352441406  C 8.11269365234375 23.8470764619141  8.17932701822917 23.7811094619141  8.26261868489583 23.7811094296875  L 8.74154589843749 23.7811094296875  Z M 12.3230884440104 22.742128921875  L 12.3272530273438 22.742128921875  C 12.3272530273438 22.8245877041016  12.2606196614583 22.8905547041016  12.1773279947917 22.8905547363281  L 4.818507421875 22.8905547363281  C 4.73521572265626 22.8905547363281  4.66858238932292 22.8245877041016  4.66858238932292 22.742128921875  L 4.66858238932292 21.7443778212891  L 12.3230884440104 21.7443778212891  L 12.3230884440104 22.742128921875  Z M 14.4928369140625 19  C 14.6552556966146 19.5798350859375  14.9092953450521 19.6911544306641  15.0092453776042 19.8065967128906  L 15.9046310221354 20.8497001582031  L 1.09536897786459 20.8497001582031  L 1.99075462239584 19.8065967128906  C 2.09070465494792 19.6911544306641  2.34474430338543 19.5757121484375  2.51132766927083 19  L 14.4928369140625 19  Z M 15.9046310221354 17  L 15.0092453776042 18.4583957958984  C 14.9092953450521 18.573838078125  14.6552556966146 18.6892803603516  14.4886723307292 18.6892803603516  L 2.5071630859375 18.6892803603516  C 2.34474430338543 18.6892803603516  2.08654007161459 18.573838078125  1.98659003906251 18.4583957958984  L 1.09536897786459 17  L 15.9046310221354 17  Z M 14.4928369140625 15.2466266777344  C 14.6552556966146 15.2507496152344  14.9092953450521 15.3620689599609  15.0092453776042 15.4775112421875  L 15.9046310221354 16  L 1.09536897786459 16  L 1.99075462239584 15.4775112421875  C 2.09070465494792 15.3620689599609  2.34474430338543 15.2466266777344  2.51132766927083 15.2466266777344  L 14.4928369140625 15.2466266777344  Z M 15.9046310221354 13  L 15.0092453776042 14.1293103574219  C 14.9092953450521 14.2447526396484  14.6552556966146 14.360194921875  14.4886723307292 14.3601948896484  L 11.7000000000001 14.3601948896484  L 2.5071630859375 14.3601948896484  C 2.34474430338543 14.3601948896484  2.08654007161459 14.2447526074219  1.98659003906251 14.1293103574219  L 1.09536897786459 13  L 15.9046310221354 13  Z M 14.4928369140625 11  C 14.6552556966146 10.9216641767578  14.9092953450521 11.0371064589844  15.0092453776042 11.1525487412109  L 15.9046310221354 12.1956521865234  L 1.09536897786459 12.1956521865234  L 1.99075462239584 11.1525487412109  C 2.09070465494792 11.0371064589844  2.34474430338543 10.9216641767578  2.51132766927083 11  L 14.4928369140625 11  Z M 15.9046310221354 9  L 15.0092453776042 9.80022488671875  C 14.9092953450521 9.9156671689453  14.6552556966146 10.0311094511719  14.4886723307292 10  L 2.5071630859375 10  C 2.34474430338543 10.0311094511719  2.08654007161459 9.91566716894532  1.98659003906251 9.80022488671875  L 1.09536897786459 9  L 15.9046310221354 9  Z " fill-rule="nonzero" fill="#d9001b" stroke="none" transform="matrix(1 0 0 1 273 180 )" />
    <path d="M 10.1824920898437 25.8755622275391  C 10.1824921223958 25.6281859453125  9.97842744140625 25.4302848808594  9.73271695963541 25.4302848486328  L 7.26728304036459 25.4302848486328  C 7.01740797526043 25.4302848486328  6.81750794270833 25.6281859130859  6.81750791015624 25.8755622275391  C 6.81750787760416 26.1229385419922  7.01740797526043 26.3208395742188  7.26728304036459 26.3208395742188  L 9.73271695963541 26.3208395742188  C 9.98259202473957 26.3208395742188  10.1824920572917 26.1229385097656  10.1824920898437 25.8755622275391  Z " stroke-width="2" stroke="#000000" fill="none" stroke-opacity="0.105882352941176" transform="matrix(1 0 0 1 273 180 )" mask="url(#clip349)" />
    <path d="M 7.78369147135417 27.0835832050781  C 7.78369147135417 26.836206890625  7.58379140625 26.6383058583984  7.33391637369793 26.6383058583984  C 7.08404130859374 26.6383058583984  6.88414127604167 26.8362069228516  6.88414127604167 27.0835832050781  L 6.88414127604167 32.5547226533203  C 6.88414127604167 32.8020989677734  7.08404134114583 33  7.33391637369793 33  C 7.58379140625 33  7.78369147135417 32.8020989355469  7.78369147135417 32.5547226533203  L 7.78369147135417 27.0835832050781  Z " stroke-width="2" stroke="#000000" fill="none" stroke-opacity="0.105882352941176" transform="matrix(1 0 0 1 273 180 )" mask="url(#clip349)" />
    <path d="M 8.97892721354166 27.0835832050781  C 8.97476263020834 26.836206890625  8.77486256510417 26.6383058583984  8.52915208333333 26.6383058583984  C 8.27927701822917 26.6383058583984  8.07937698567707 26.8362069228516  8.07937698567707 27.0835832050781  L 8.07937698567707 32.5547226533203  C 8.07937698567707 32.8020989677734  8.27927705078126 33  8.52915208333333 33  C 8.77902711588541 33  8.97892718098958 32.8020989355469  8.97892721354166 32.5547226533203  L 8.97892721354166 27.0835832050781  Z " stroke-width="2" stroke="#000000" fill="none" stroke-opacity="0.105882352941176" transform="matrix(1 0 0 1 273 180 )" mask="url(#clip349)" />
    <path d="M 10.1158587239583 27.0835832050781  C 10.1158587239583 26.836206890625  9.91179407552083 26.6383058583984  9.66608362630207 26.6383058583984  C 9.41620856119791 26.6383058583984  9.21630852864583 26.8362069228516  9.21630852864583 27.0835832050781  L 9.21630852864583 32.5547226533203  C 9.21630852864583 32.8020989677734  9.41620859374999 33  9.66608362630207 33  C 9.91595865885417 33  10.1158587239583 32.8020989355469  10.1158587239583 32.5547226533203  L 10.1158587239583 27.0835832050781  Z " stroke-width="2" stroke="#000000" fill="none" stroke-opacity="0.105882352941176" transform="matrix(1 0 0 1 273 180 )" mask="url(#clip349)" />
    <path d="M 16.9457771158854 8.3118440625  C 17.0498917317708 8.04797599804687  16.9707646158854 7.73463268359374  16.7292187174479 7.45427286914063  L 15.6964017903646 6.246251859375  C 15.6672497070313 6.21326835937501  15.6339330403646 6.18028482714843  15.6006163736979 6.147301359375  C 15.6339330403646 6.11431785937499  15.6672497395833 6.08133432714843  15.6964017903646 6.04835082714844  L 16.7292187174479 4.84032984960938  C 16.9832583658854 4.54347828515624  17.0582208984375 4.21776612597655  16.9291187825521 3.94152924902343  C 16.8708146158854 3.81784109179688  16.6875728841146 3.53748127734375  16.1961519205729 3.53748124511718  L 13.2268032552083 3.53748124511718  L 13.2268032552083 2.53973014453126  C 13.2268032552083 1.966641703125  12.7562052083333 1.50074963671875  12.1773279947917 1.50074963671875  L 9.77852740885417 1.50074963671875  C 9.78685657552084 1.45127438671876  9.79102115885416 1.40179910449219  9.79102115885416 1.35232382226563  L 9.79102115885416 1.0389805078125  C 9.79102115885416 0.465892066406242  9.32042311197917 0  8.74154589843751 0  L 8.26261868489583 0  C 7.68374147135417 0  7.21314342447916 0.465892066406242  7.21314342447916 1.0389805078125  L 7.21314342447916 1.35232382226563  C 7.21314342447916 1.40179907226563  7.21730800781251 1.45127435449219  7.22563717447918 1.50074963671875  L 4.82683658854167 1.50074963671875  C 4.24795937500001 1.50074963671875  3.777361328125 1.966641703125  3.777361328125 2.53973014453126  L 3.777361328125 3.53748124511718  L 0.808012662760423 3.53748124511718  C 0.316591699218748 3.53748124511718  0.133350000000007 3.82196399707031  0.075045800781254 3.94152924902343  C -0.0540563151041624 4.21776612597655  0.020906217447911 4.54347828515626  0.274945865885419 4.84032984960938  L 1.30776279296875 6.04835082714844  C 1.33691487630208 6.08133432714843  1.37023154296874 6.11431785937499  1.40354820963542 6.147301359375  C 1.37023154296874 6.18028485937499  1.33691484375 6.21326839160157  1.30776279296875 6.246251859375  L 0.274945865885419 7.45427286914063  C 0.0333999674479249 7.73875562109375  -0.0457271158854079 8.04797603027343  0.0583874674479148 8.3118440625  C -0.0457271484374928 8.57571212695312  0.0292353841145806 8.88905544140625  0.274945865885419 9.16941528808595  L 1.30776279296875 10.3774362978516  C 1.33691487630208 10.4104197978516  1.37023154296874 10.4434033300781  1.40354820963542 10.4763867978516  C 1.37023154296874 10.5093702978516  1.33691484375 10.5423538300781  1.30776279296875 10.5753373300781  L 0.274945865885419 11.7833583076172  C 0.0333999674479249 12.0678410595703  -0.0457271158854079 12.37706146875  0.0583874674479148 12.6409295332031  C -0.0457271484374928 12.9047975976563  0.0292353841145806 13.2181409121094  0.274945865885419 13.4985007587891  L 1.30776279296875 14.7065217363281  C 1.33691487630208 14.7395052363281  1.37023154296874 14.7724887685547  1.40354820963542 14.8054722685547  C 1.37023154296874 14.8384557685547  1.33691484375 14.8714393007812  1.30776279296875 14.9044228007813  L 0.274945865885419 16.1124437783203  C 0.0333999674479249 16.3969265302734  -0.0457271158854079 16.7061469394531  0.0583874674479148 16.9700150039063  C -0.0457271484374928 17.2338830683594  0.0292353841145806 17.5472263828125  0.274945865885419 17.8275861972656  L 1.30776279296875 19.0356072070312  C 1.33691487630208 19.0685907070313  1.37023154296874 19.1015742392578  1.40354820963542 19.1345577070312  C 1.37023154296874 19.1675412070313  1.33691484375 19.2005247392578  1.30776279296875 19.2335082392578  L 0.274945865885419 20.4415292490235  C 0.020906217447911 20.7383808134766  -0.0540563151041624 21.0640929726563  0.075045800781254 21.3403298496094  C 0.133349967447922 21.4640180068359  0.316591699218748 21.7443778212891  0.808012662760423 21.7443778212891  L 3.777361328125 21.7443778212891  L 3.777361328125 22.742128921875  C 3.777361328125 23.3152173632812  4.24795937500001 23.7811094296875  4.82683658854167 23.7811094296875  L 7.22563717447918 23.7811094296875  C 7.21730800781251 23.8305846796875  7.21314342447916 23.8800599619141  7.21314342447916 23.9295352441406  L 7.21314342447916 24.2428785585937  C 7.21314342447916 24.815967  7.68374147135417 25.2818590664062  8.26261868489583 25.2818590664062  L 8.74154589843749 25.2818590664062  C 9.32042311197917 25.2818590664062  9.79102115885416 24.815967  9.79102115885416 24.2428785585937  L 9.79102115885416 23.9295352441406  C 9.79102115885416 23.8800599941406  9.78685657552084 23.8305847119141  9.77852740885417 23.7811094296875  L 12.1773279947917 23.7811094296875  C 12.7562052083333 23.7811094296875  13.2268032552083 23.3152173632812  13.2268032552083 22.742128921875  L 13.2268032552083 21.7443778212891  L 16.1961519205729 21.7443778212891  C 16.6875728841146 21.7443778212891  16.8708145833333 21.4598950693359  16.9291187825521 21.3403298496094  C 17.0582208984375 21.0640929726563  16.9832583658854 20.7383808134765  16.7292187174479 20.4415292490234  L 15.6964017903646 19.2335082392578  C 15.6672497070313 19.2005247392578  15.6339330403646 19.1675412070313  15.6006163736979 19.1345577070312  C 15.6339330403646 19.1015742070313  15.6672497395833 19.0685906748047  15.6964017903646 19.0356072070312  L 16.7292187174479 17.8275861972656  C 16.9707646158854 17.5431034453125  17.0498916992188 17.2338830361328  16.9457771158854 16.9700150039063  C 17.0498917317708 16.7061469394531  16.9749291992187 16.392803625  16.7292187174479 16.1124437783203  L 15.6964017903646 14.9044228007813  C 15.6672497070313 14.8714393007812  15.6339330403646 14.8384557685547  15.6006163736979 14.8054722685547  C 15.6339330403646 14.7724887685547  15.6672497395833 14.7395052363281  15.6964017903646 14.7065217363281  L 16.7292187174479 13.4985007587891  C 16.9707646158854 13.2140180068359  17.0498916992188 12.9047975976563  16.9457771158854 12.6409295332031  C 17.0498917317708 12.37706146875  16.9749291992187 12.0637181542969  16.7292187174479 11.7833583076172  L 15.6964017903646 10.5753373300781  C 15.6672497070313 10.5423538300781  15.6339330403646 10.5093702978516  15.6006163736979 10.4763867978516  C 15.6339330403646 10.4434032978516  15.6672497395833 10.410419765625  15.6964017903646 10.3774362978516  L 16.7292187174479 9.16941528808593  C 16.9707646158854 8.88493253613282  17.0498916992188 8.57571212695312  16.9457771158854 8.3118440625  Z " stroke-width="2" stroke="#000000" fill="none" stroke-opacity="0.105882352941176" transform="matrix(1 0 0 1 273 180 )" mask="url(#clip349)" />
    <path d="M 8.25845410156251 1.50074963671875  C 8.17932698567709 1.50074963671875  8.10852906901043 1.43478260449219  8.10852906901043 1.35232382226563  L 8.10852906901043 1.0389805078125  C 8.10852906901043 0.95652172558593  8.17516243489583 0.890554725585944  8.25845410156251 0.890554725585944  L 8.73738131510417 0.890554725585944  C 8.82067301432291 0.890554725585944  8.88730634765625 0.956521757812493  8.88730634765625 1.0389805078125  L 8.88730634765625 1.35232382226563  C 8.88730634765625 1.43478260449219  8.82067298177083 1.50074960449219  8.73738131510417 1.50074963671875  L 8.25845410156251 1.50074963671875  Z " stroke-width="2" stroke="#000000" fill="none" stroke-opacity="0.105882352941176" transform="matrix(1 0 0 1 273 180 )" mask="url(#clip349)" />
    <path d="M 4.67274697265625 3.53748124511718  L 4.67274697265625 2.53973014453126  C 4.67274697265625 2.45727136230468  4.73938033854167 2.39130436230468  4.82267200520833 2.39130436230468  L 12.181492578125 2.39130436230468  C 12.2647842773437 2.39130436230468  12.3314176106771 2.45727139453125  12.3314176106771 2.53973014453126  L 12.3314176106771 3.53748124511718  L 4.67274697265625 3.53748124511718  Z " stroke-width="2" stroke="#000000" fill="none" stroke-opacity="0.105882352941176" transform="matrix(1 0 0 1 273 180 )" mask="url(#clip349)" />
    <path d="M 2.5071630859375 6  C 2.34474430338543 5.70202398046876  2.09070465494792 5.59070463574218  1.99075462239584 5.47526235351563  L 1.09536897786459 5  L 15.9046310221354 5  L 15.0092453776042 5.47113941601562  C 14.9092953450521 5.58658169824219  14.6552556966146 5.70202398046876  14.4886723307292 6  L 2.5071630859375 6  Z " stroke-width="2" stroke="#000000" fill="none" stroke-opacity="0.105882352941176" transform="matrix(1 0 0 1 273 180 )" mask="url(#clip349)" />
    <path d="M 1.09536897786459 8  L 1.99075462239584 6.82346327050782  C 2.09070465494792 6.70802098828125  2.34474430338543 6.59257870605468  2.51132766927083 7  L 14.4928369140625 7  C 14.6552556966146 6.59257870605468  14.9134599283854 6.70802098828125  15.0134099609375 6.82346327050782  L 15.9087956054688 8  L 1.09536897786459 8  Z " stroke-width="2" stroke="#000000" fill="none" stroke-opacity="0.105882352941176" transform="matrix(1 0 0 1 273 180 )" mask="url(#clip349)" />
    <path d="M 8.74154589843749 23.7811094296875  C 8.82067301432291 23.7811094296875  8.89147093098957 23.8470764619141  8.89147093098957 23.9295352441406  L 8.89147093098957 24.2428785585937  C 8.89147093098957 24.3253373408203  8.82483756510417 24.3913043408203  8.74154589843749 24.3913043408203  L 8.26261868489583 24.3913043408203  C 8.17932698567709 24.3913043408203  8.11269365234375 24.3253373085938  8.11269365234375 24.2428785585937  L 8.11269365234375 23.9295352441406  C 8.11269365234375 23.8470764619141  8.17932701822917 23.7811094619141  8.26261868489583 23.7811094296875  L 8.74154589843749 23.7811094296875  Z " stroke-width="2" stroke="#000000" fill="none" stroke-opacity="0.105882352941176" transform="matrix(1 0 0 1 273 180 )" mask="url(#clip349)" />
    <path d="M 12.3230884440104 22.742128921875  L 12.3272530273438 22.742128921875  C 12.3272530273438 22.8245877041016  12.2606196614583 22.8905547041016  12.1773279947917 22.8905547363281  L 4.818507421875 22.8905547363281  C 4.73521572265626 22.8905547363281  4.66858238932292 22.8245877041016  4.66858238932292 22.742128921875  L 4.66858238932292 21.7443778212891  L 12.3230884440104 21.7443778212891  L 12.3230884440104 22.742128921875  Z " stroke-width="2" stroke="#000000" fill="none" stroke-opacity="0.105882352941176" transform="matrix(1 0 0 1 273 180 )" mask="url(#clip349)" />
    <path d="M 14.4928369140625 19  C 14.6552556966146 19.5798350859375  14.9092953450521 19.6911544306641  15.0092453776042 19.8065967128906  L 15.9046310221354 20.8497001582031  L 1.09536897786459 20.8497001582031  L 1.99075462239584 19.8065967128906  C 2.09070465494792 19.6911544306641  2.34474430338543 19.5757121484375  2.51132766927083 19  L 14.4928369140625 19  Z " stroke-width="2" stroke="#000000" fill="none" stroke-opacity="0.105882352941176" transform="matrix(1 0 0 1 273 180 )" mask="url(#clip349)" />
    <path d="M 15.9046310221354 17  L 15.0092453776042 18.4583957958984  C 14.9092953450521 18.573838078125  14.6552556966146 18.6892803603516  14.4886723307292 18.6892803603516  L 2.5071630859375 18.6892803603516  C 2.34474430338543 18.6892803603516  2.08654007161459 18.573838078125  1.98659003906251 18.4583957958984  L 1.09536897786459 17  L 15.9046310221354 17  Z " stroke-width="2" stroke="#000000" fill="none" stroke-opacity="0.105882352941176" transform="matrix(1 0 0 1 273 180 )" mask="url(#clip349)" />
    <path d="M 14.4928369140625 15.2466266777344  C 14.6552556966146 15.2507496152344  14.9092953450521 15.3620689599609  15.0092453776042 15.4775112421875  L 15.9046310221354 16  L 1.09536897786459 16  L 1.99075462239584 15.4775112421875  C 2.09070465494792 15.3620689599609  2.34474430338543 15.2466266777344  2.51132766927083 15.2466266777344  L 14.4928369140625 15.2466266777344  Z " stroke-width="2" stroke="#000000" fill="none" stroke-opacity="0.105882352941176" transform="matrix(1 0 0 1 273 180 )" mask="url(#clip349)" />
    <path d="M 15.9046310221354 13  L 15.0092453776042 14.1293103574219  C 14.9092953450521 14.2447526396484  14.6552556966146 14.360194921875  14.4886723307292 14.3601948896484  L 11.7000000000001 14.3601948896484  L 2.5071630859375 14.3601948896484  C 2.34474430338543 14.3601948896484  2.08654007161459 14.2447526074219  1.98659003906251 14.1293103574219  L 1.09536897786459 13  L 15.9046310221354 13  Z " stroke-width="2" stroke="#000000" fill="none" stroke-opacity="0.105882352941176" transform="matrix(1 0 0 1 273 180 )" mask="url(#clip349)" />
    <path d="M 14.4928369140625 11  C 14.6552556966146 10.9216641767578  14.9092953450521 11.0371064589844  15.0092453776042 11.1525487412109  L 15.9046310221354 12.1956521865234  L 1.09536897786459 12.1956521865234  L 1.99075462239584 11.1525487412109  C 2.09070465494792 11.0371064589844  2.34474430338543 10.9216641767578  2.51132766927083 11  L 14.4928369140625 11  Z " stroke-width="2" stroke="#000000" fill="none" stroke-opacity="0.105882352941176" transform="matrix(1 0 0 1 273 180 )" mask="url(#clip349)" />
    <path d="M 15.9046310221354 9  L 15.0092453776042 9.80022488671875  C 14.9092953450521 9.9156671689453  14.6552556966146 10.0311094511719  14.4886723307292 10  L 2.5071630859375 10  C 2.34474430338543 10.0311094511719  2.08654007161459 9.91566716894532  1.98659003906251 9.80022488671875  L 1.09536897786459 9  L 15.9046310221354 9  Z " stroke-width="2" stroke="#000000" fill="none" stroke-opacity="0.105882352941176" transform="matrix(1 0 0 1 273 180 )" mask="url(#clip349)" />
  </g>
</svg>