<?xml version="1.0" encoding="utf-8"?>
<svg version="1.1" xmlns:xlink="http://www.w3.org/1999/xlink" width="9px" height="15px" xmlns="http://www.w3.org/2000/svg">
  <g transform="matrix(1 0 0 1 -220 -198 )">
    <path d="M 4.41150323275862 14.8111007462687  C 4.41150323275862 14.8198460820896  4.40544181034482 14.8198460820896  4.39331896551724 14.8198460820896  C 1.45352909482758 14.8198460820896  0.43521012931034 14.1726912313433  0.386718749999996 14.1420825559702  L 0.247306034482754 14.0502565298507  L 2.73248922413793 7.05836054104478  L 6.50875538793103 7.05836054104478  L 9 14.0764925373134  L 8.80603448275862 14.1639458955224  C 8.74542025862069 14.1901819029851  7.33917025862068 14.8111007462687  4.41150323275862 14.8111007462687  Z M 3.22346443965516 7.51749067164179  L 0.96255387931034 13.8840951492537  C 1.31411637931034 14.032765858209  2.3203125 14.3694612873134  4.39938038793103 14.3694612873134  L 4.4236260775862 14.3694612873134  C 6.56330818965517 14.365088619403  7.83620689655172 14.0152751865672  8.2908135775862 13.8622318097015  L 6.03596443965516 7.51749067164179  L 3.22346443965516 7.51749067164179  Z M 4.93278556034483 4.58343050373134  L 4.30845905172414 4.5703125  L 4.32664331896552 0.0927005597014925  L 4.95096982758621 0.105818563432833  L 4.93278556034483 4.58343050373134  Z " fill-rule="nonzero" fill="#333333" stroke="none" transform="matrix(1 0 0 1 220 198 )" />
  </g>
</svg>