<?xml version="1.0" encoding="utf-8"?>
<svg version="1.1" xmlns:xlink="http://www.w3.org/1999/xlink" width="3px" height="6px" xmlns="http://www.w3.org/2000/svg">
  <g transform="matrix(1 0 0 1 -223 -207 )">
    <path d="M 0.709517045454545 5.74888392857143  C 0.698863636363636 5.853515625  0.576349431818182 5.93303571428571  0.437855113636364 5.93303571428571  L 0.400568181818182 5.93303571428571  C 0.251420454545455 5.91629464285714  0.144886363636364 5.81166294642857  0.166193181818182 5.69029017857143  L 1.07173295454545 0.328962053571429  C 1.09303977272727 0.211774553571435  1.22620738636364 0.128069196428578  1.38068181818182 0.144810267857143  C 1.52982954545455 0.161551339285714  1.63636363636364 0.266183035714286  1.61505681818182 0.387555803571429  L 0.709517045454545 5.74888392857143  Z M 2.67507102272727 4.43052455357143  L 2.65909090909091 4.43052455357143  C 2.51526988636364 4.43052455357143  2.39808238636364 4.34263392857143  2.38210227272727 4.22963169642858  L 2.16370738636364 1.46316964285714  C 2.15305397727272 1.34598214285715  2.27024147727273 1.24135044642858  2.41938920454545 1.23297991071429  C 2.56853693181817 1.224609375  2.70170454545454 1.31668526785714  2.71235795454545 1.43387276785714  L 2.93075284090909 4.20033482142857  C 2.94140625 4.31752232142857  2.82421875 4.42215401785714  2.67507102272727 4.43052455357143  Z " fill-rule="nonzero" fill="#333333" stroke="none" transform="matrix(1 0 0 1 223 207 )" />
  </g>
</svg>