<?xml version="1.0" encoding="utf-8"?>
<svg version="1.1" xmlns:xlink="http://www.w3.org/1999/xlink" width="3px" height="10px" xmlns="http://www.w3.org/2000/svg">
  <g transform="matrix(1 0 0 1 -223 -176 )">
    <path d="M 1.57670454545455 3.9485012755102  C 1.57137784090909 3.95647321428571  1.56072443181819 3.95647321428571  1.55539772727273 3.95647321428571  C 1.21981534090909 3.95647321428571  0.969460227272727 3.73325892857143  0.942826704545455 3.70535714285714  L 0.92151988636364 3.68542729591837  L 0.910866477272731 3.66549744897959  C 0.86292613636364 3.56983418367347  -0.282315340909087 1.36160714285714  0.527343750000004 0.460778061224489  C 0.761718750000004 0.205676020408162  1.11328125 0.0741390306122438  1.58203125 0.0701530612244887  L 1.59268465909091 0.0701530612244887  C 2.27982954545455 0.0701530612244887  2.61541193181819 0.32924107142857  2.77521306818183 0.544483418367346  C 3.12677556818183 1.02678571428571  2.98295454545455 1.78411989795918  2.79651988636364 2.33019770408163  C 2.58345170454546 2.95200892857143  2.25852272727273 3.51004464285714  2.10404829545455 3.68542729591837  C 1.9229403409091 3.89668367346939  1.71519886363637 3.94451530612245  1.57670454545455 3.9485012755102  Z M 0.873579545454549 0.632174744897958  C 0.308948863636368 1.25797193877551  0.969460227272731 2.90816326530612  1.2890625 3.52598852040816  C 1.34765625 3.57382015306122  1.47017045454545 3.64955357142857  1.56605113636364 3.64556760204082  C 1.64595170454546 3.64158163265306  1.72052556818182 3.57780612244898  1.76313920454546 3.52200255102041  C 2.04545454545455 3.19515306122449  2.96164772727274 1.43734056122449  2.41832386363637 0.69595025510204  C 2.26384943181819 0.48469387755102  1.9921875 0.381058673469387  1.58735795454546 0.381058673469387  C 1.25710227272728 0.385044642857141  1.02805397727273 0.464764030612243  0.873579545454549 0.632174744897958  Z M 1.86024502840909 9.82258450255102  L 1.32752130681818 9.81899713010204  L 1.36912286931818 6.39106345663265  L 1.90179332386363 6.39465082908163  L 1.86024502840909 9.82258450255102  Z " fill-rule="nonzero" fill="#333333" stroke="none" transform="matrix(1 0 0 1 223 176 )" />
  </g>
</svg>