<?xml version="1.0" encoding="utf-8"?>
<svg version="1.1" xmlns:xlink="http://www.w3.org/1999/xlink" width="9px" height="7px" xmlns="http://www.w3.org/2000/svg">
  <g transform="matrix(1 0 0 1 -225 -183 )">
    <path d="M 5.47870463709677 6.7615966796875  C 5.41633064516129 6.8043212890625  5.34261592741936 6.82568359375  5.26890120967742 6.82568359375  C 5.19518649193548 6.82568359375  5.12147177419354 6.8043212890625  5.07043850806451 6.7615966796875  L 0.2109375 3.10009765625  C 0.0975302419354839 3.0146484375  0.0975302419354839 2.8822021484375  0.2109375 2.7967529296875  L 2.64352318548387 0.968139648437498  C 3.34664818548387 0.438354492187498  4.28225806451613 0.147827148437498  5.27457157258065 0.147827148437498  C 6.26688508064516 0.147827148437498  7.20249495967742 0.438354492187498  7.90561995967742 0.968139648437498  C 9.35723286290323 2.0618896484375  9.35723286290323 3.8392333984375  7.90561995967742 4.9329833984375  L 5.47870463709677 6.7615966796875  Z M 3.04044858870968 1.271484375  L 0.811995967741931 2.9505615234375  L 5.26890120967742 6.3087158203125  L 7.49735383064516 4.629638671875  C 8.72782258064516 3.7025146484375  8.72782258064516 2.1943359375  7.49735383064516 1.271484375  C 6.90196572580645 0.822875976562498  6.10811491935483 0.575073242187498  5.26890120967742 0.575073242187498  C 4.4296875 0.575073242187498  3.63583669354839 0.822875976562498  3.04044858870968 1.271484375  Z " fill-rule="nonzero" fill="#333333" stroke="none" transform="matrix(1 0 0 1 225 183 )" />
  </g>
</svg>