<?xml version="1.0" encoding="utf-8"?>
<svg version="1.1" xmlns:xlink="http://www.w3.org/1999/xlink" width="9px" height="6px" xmlns="http://www.w3.org/2000/svg">
  <g transform="matrix(1 0 0 1 -234 -191 )">
    <path d="M 7.80358886718749 5.0967548076923  C 7.10595703124999 5.67367788461538  6.18310546874999 5.96213942307692  5.26025390625 5.96213942307692  C 4.33740234375 5.96213942307692  3.41455078125 5.67367788461538  2.71142578125 5.0967548076923  L 0.3548583984375 3.16766826923077  C 0.2449951171875 3.07752403846154  0.2449951171875 2.93780048076923  0.3548583984375 2.84765625  L 2.70593261718749 0.9140625  C 4.1121826171875 -0.239783653846154  6.3973388671875 -0.239783653846154  7.80358886718749 0.9140625  C 9.20983886718748 2.06790865384615  9.20983886718749 3.94290865384615  7.80358886718749 5.0967548076923  Z M 0.937133789062508 3.00991586538461  L 3.095947265625 4.78125  C 4.28796386718751 5.75931490384615  6.22705078125 5.75931490384615  7.41357421875 4.78125  C 7.9903564453125 4.30799278846154  8.3089599609375 3.67698317307692  8.3089599609375 3.00991586538461  C 8.3089599609375 2.3428485576923  7.9903564453125 1.71183894230769  7.41357421875 1.23858173076923  C 6.2215576171875 0.260516826923074  4.282470703125 0.260516826923074  3.095947265625 1.23858173076923  L 0.937133789062508 3.00991586538461  Z " fill-rule="nonzero" fill="#333333" stroke="none" transform="matrix(1 0 0 1 234 191 )" />
  </g>
</svg>