<?xml version="1.0" encoding="utf-8"?>
<svg version="1.1" xmlns:xlink="http://www.w3.org/1999/xlink" width="9px" height="7px" xmlns="http://www.w3.org/2000/svg">
  <g transform="matrix(1 0 0 1 -216 -183 )">
    <path d="M 3.9851310483871 6.90473790322581  C 3.92842741935484 6.94443044354839  3.8547127016129 6.96648185483871  3.78099798387097 6.96648185483871  C 3.70728326612903 6.96648185483871  3.6335685483871 6.94443044354839  3.58253528225806 6.90032762096774  L 1.15561995967742 5.01272681451613  C -0.295992943548391 3.88369455645161  -0.295992943548391 2.04901713709678  1.15561995967742 0.919984879032258  C 2.60723286290323 -0.209047379032258  4.96610383064516 -0.209047379032258  6.41771673387097 0.919984879032258  L 8.84463205645161 2.81199596774193  C 8.95803931451613 2.90020161290322  8.95803931451613 3.03692036290323  8.84463205645161 3.12512600806452  L 3.9851310483871 6.90473790322581  Z M 6.00945060483871 1.23311491935484  C 5.41855495558439 0.773168404410573  4.61697877646867 0.514588132889216  3.78099798387097 0.514238911290323  C 2.9758064516129 0.514238911290323  2.16494455645161 0.752394153225806  1.55254536290323 1.23311491935484  C 0.322076612903226 2.19014616935484  0.322076612903226 3.74697580645161  1.55254536290323 4.69959677419355  L 3.78099798387097 6.43283770161291  L 8.23790322580645 2.9663558467742  L 6.00945060483871 1.23311491935484  Z " fill-rule="nonzero" fill="#333333" stroke="none" transform="matrix(1 0 0 1 216 183 )" />
  </g>
</svg>