<?xml version="1.0" encoding="utf-8"?>
<svg version="1.1" xmlns:xlink="http://www.w3.org/1999/xlink" width="11px" height="8px" xmlns="http://www.w3.org/2000/svg">
  <g transform="matrix(1 0 0 1 -219 -186 )">
    <path d="M 5.64203559027778 7.84809027777778  C 5.58235677083333 7.88715277777778  5.50477430555556 7.90885416666667  5.42719184027778 7.90885416666667  C 5.349609375 7.90885416666667  5.27202690972222 7.88715277777778  5.21831597222222 7.84375  L 0.103841145833333 4.12413194444444  C 0.0501302083333333 4.08506944444445  0.0143229166666667 4.02864583333333  0.0143229166666667 3.97222222222222  C 0.0143229166666667 3.91579861111111  0.0441623263888889 3.859375  0.103841145833333 3.8203125  L 5.21831597222222 0.100694444444446  C 5.33767361111111 0.0138888888888905  5.52267795138889 0.0138888888888905  5.64203559027778 0.100694444444446  L 10.7565104166667 3.8203125  C 10.8758680555556 3.90711805555556  10.8758680555556 4.04166666666667  10.7565104166667 4.12847222222223  L 5.64203559027778 7.84809027777778  Z M 5.42719184027778 0.560763888888889  L 0.73643663194444 3.97222222222222  L 5.42719184027778 7.38368055555556  L 10.1179470486111 3.97222222222222  L 5.42719184027778 0.560763888888889  Z " fill-rule="nonzero" fill="#333333" stroke="none" transform="matrix(1 0 0 1 219 186 )" />
  </g>
</svg>