<?xml version="1.0" encoding="utf-8"?>
<svg version="1.1" xmlns:xlink="http://www.w3.org/1999/xlink" width="11px" height="8px" xmlns="http://www.w3.org/2000/svg">
  <g transform="matrix(1 0 0 1 -225 -190 )">
    <path d="M 5.70323057432432 7.78716216216216  C 5.65097128378379 7.83361486486486  5.57548564189189 7.85472972972973  5.5 7.85472972972973  C 5.42451435810811 7.85472972972973  5.34902871621622 7.83361486486486  5.29676942567568 7.79138513513514  L 0.320523648648649 4.1722972972973  C 0.204391891891892 4.08783783783784  0.204391891891892 3.95692567567568  0.320523648648649 3.87246621621622  L 5.29676942567568 0.253378378378378  C 5.34902871621622 0.215371621621622  5.42451435810811 0.190033783783784  5.5 0.190033783783784  C 5.57548564189189 0.190033783783784  5.65097128378379 0.211148648648649  5.70323057432432 0.253378378378378  L 10.6794763513514 3.87246621621622  C 10.7317356418919 3.91047297297297  10.7665751689189 3.96537162162162  10.7665751689189 4.02027027027027  C 10.7665751689189 4.07516891891892  10.7375422297297 4.13006756756757  10.6794763513514 4.16807432432432  L 5.70323057432432 7.78716216216216  Z M 5.5 0.705236486486483  L 0.936021959459459 4.02449324324324  L 5.5 7.34375  L 10.0639780405405 4.02449324324324  L 5.5 0.705236486486483  Z " fill-rule="nonzero" fill="#333333" stroke="none" transform="matrix(1 0 0 1 225 190 )" />
  </g>
</svg>