<?xml version="1.0" encoding="utf-8"?>
<svg version="1.1" xmlns:xlink="http://www.w3.org/1999/xlink" width="11px" height="8px" xmlns="http://www.w3.org/2000/svg">
  <g transform="matrix(1 0 0 1 -213 -190 )">
    <path d="M 5.79361979166667 7.73648648648649  C 5.73990885416667 7.77871621621622  5.66232638888889 7.79983108108108  5.58474392361111 7.79983108108108  C 5.50716145833333 7.79983108108108  5.42957899305556 7.77871621621622  5.37586805555556 7.73648648648649  L 0.261393229166667 4.11739864864865  C 0.142035590277778 4.03293918918919  0.142035590277778 3.90202702702703  0.261393229166667 3.81756756756757  L 5.37586805555556 0.198479729729733  C 5.42957899305556 0.160472972972976  5.50716145833333 0.135135135135138  5.58474392361111 0.135135135135138  C 5.66232638888889 0.135135135135138  5.73990885416667 0.156250000000003  5.79361979166667 0.198479729729733  L 10.9080946180556 3.81756756756757  C 11.0274522569444 3.90202702702703  11.0274522569444 4.03293918918919  10.9080946180556 4.11739864864865  L 5.79361979166667 7.73648648648649  Z M 5.58474392361111 0.650337837837838  L 0.893988715277778 3.96959459459459  L 5.58474392361111 7.28885135135135  L 10.2754991319444 3.96959459459459  L 5.58474392361111 0.650337837837838  Z " fill-rule="nonzero" fill="#333333" stroke="none" transform="matrix(1 0 0 1 213 190 )" />
  </g>
</svg>