<?xml version="1.0" encoding="utf-8"?>
<svg version="1.1" xmlns:xlink="http://www.w3.org/1999/xlink" width="11px" height="8px" xmlns="http://www.w3.org/2000/svg">
  <g transform="matrix(1 0 0 1 -219 -193 )">
    <path d="M 5.71365017361112 7.88888888888889  C 5.65993923611112 7.93663194444445  5.58235677083333 7.95833333333334  5.50477430555556 7.95833333333333  C 5.42719184027778 7.95833333333333  5.349609375 7.93663194444444  5.2958984375 7.89322916666667  L 0.181423611111111 4.17361111111111  C 0.0620659722222222 4.08680555555556  0.0620659722222222 3.95225694444444  0.181423611111111 3.86545138888889  L 5.2958984375 0.145833333333333  C 5.349609375 0.106770833333336  5.42719184027778 0.0807291666666667  5.50477430555556 0.0807291666666667  C 5.58235677083333 0.0807291666666667  5.65993923611112 0.102430555555556  5.71365017361112 0.145833333333333  L 10.828125 3.86545138888889  C 10.8818359375 3.90451388888889  10.9176432291667 3.9609375  10.9176432291667 4.01736111111111  C 10.9176432291667 4.07378472222222  10.8878038194445 4.13020833333334  10.828125 4.16927083333333  L 5.71365017361112 7.88888888888889  Z M 5.50477430555556 0.610243055555552  L 0.814019097222222 4.02170138888889  L 5.50477430555556 7.43315972222222  L 10.1955295138889 4.02170138888889  L 5.50477430555556 0.610243055555552  Z " fill-rule="nonzero" fill="#333333" stroke="none" transform="matrix(1 0 0 1 219 193 )" />
  </g>
</svg>