<?xml version="1.0" encoding="utf-8"?>
<svg version="1.1" xmlns:xlink="http://www.w3.org/1999/xlink" width="9px" height="7px" xmlns="http://www.w3.org/2000/svg">
  <g transform="matrix(1 0 0 1 -225 -197 )">
    <path d="M 7.79674899193548 6.08707157258064  C 7.08228326612903 6.65158770161289  6.1296622983871 6.93384576612903  5.17704133064516 6.93384576612903  C 4.22442036290323 6.93384576612903  3.27179939516129 6.6515877016129  2.54599294354839 6.08707157258064  L 0.113407258064516 4.19947076612903  C 0 4.11126512096774  0 3.97454637096774  0.113407258064516 3.88634072580645  L 4.97290826612904 0.106728830645155  C 5.02394153225806 0.0670362903225774  5.09765625 0.0405745967741871  5.17137096774194 0.0405745967741871  C 5.24508568548387 0.0405745967741871  5.31880040322581 0.0626260080645097  5.36983366935484 0.106728830645155  L 7.79674899193548 1.99432963709677  C 9.24836189516129 3.12336189516128  9.24836189516129 4.95803931451612  7.79674899193548 6.08707157258064  Z M 5.17137096774193 0.578629032258061  L 0.714465725806448 4.04511088709677  L 2.94291834677419 5.77835181451612  C 4.17338709677419 6.73538306451613  6.1750252016129 6.73538306451613  7.39982358870967 5.77835181451612  C 8.63029233870968 4.82132056451612  8.63029233870968 3.26449092741935  7.39982358870967 2.31186995967741  L 5.17137096774193 0.578629032258061  Z " fill-rule="nonzero" fill="#333333" stroke="none" transform="matrix(1 0 0 1 225 197 )" />
  </g>
</svg>