<?xml version="1.0" encoding="utf-8"?>
<svg version="1.1" xmlns:xlink="http://www.w3.org/1999/xlink" width="9px" height="6px" xmlns="http://www.w3.org/2000/svg">
  <g transform="matrix(1 0 0 1 -206 -191 )">
    <path d="M 6.44380040322581 5.09314903846154  C 5.7179939516129 5.67457932692307  4.76537298387097 5.96304086538461  3.81275201612903 5.96304086538462  C 2.8601310483871 5.96304086538462  1.90751008064516 5.67457932692308  1.18170362903226 5.09765625  C -0.269909274193548 3.94381009615384  -0.269909274193548 2.06881009615384  1.18170362903226 0.914963942307689  C 1.88482862903226 0.356069711538458  2.82043850806452 0.0495793269230736  3.81275201612903 0.0495793269230736  C 4.80506552419355 0.0495793269230736  5.74067540322581 0.356069711538458  6.44380040322581 0.914963942307689  L 8.87071572580645 2.84405048076923  C 8.98412298387097 2.93419471153846  8.98412298387097 3.07391826923077  8.87071572580645 3.1640625  L 6.44380040322581 5.09314903846154  Z M 1.58429939516129 1.23497596153846  C 0.353830645161292 2.21304086538462  0.353830645161292 3.80408653846154  1.58429939516129 4.77764423076923  C 2.81476814516129 5.75570913461539  4.81640625 5.75570913461539  6.04120463709678 4.77764423076923  L 8.26965725806452 3.00631009615385  L 6.04120463709678 1.23497596153846  C 4.81073588709678 0.256911057692308  2.80909778225807 0.256911057692308  1.58429939516129 1.23497596153846  Z " fill-rule="nonzero" fill="#333333" stroke="none" transform="matrix(1 0 0 1 206 191 )" />
  </g>
</svg>