<?xml version="1.0" encoding="utf-8"?>
<svg version="1.1" xmlns:xlink="http://www.w3.org/1999/xlink" width="9px" height="7px" xmlns="http://www.w3.org/2000/svg">
  <g transform="matrix(1 0 0 1 -216 -196 )">
    <path d="M 6.3819580078125 6.0301513671875  C 5.67333984375 6.5770263671875  4.75048828125 6.8504638671875  3.82763671875 6.8504638671875  C 2.90478515625 6.8504638671875  1.98193359375 6.5770263671875  1.27880859375 6.03015136718749  C -0.12744140625 4.93640136718749  -0.12744140625 3.15905761718749  1.27880859375 2.0653076171875  L 3.6353759765625 0.2366943359375  C 3.7452392578125 0.1512451171875  3.91552734375 0.1512451171875  4.025390625 0.2366943359375  L 8.7330322265625 3.898193359375  C 8.8428955078125 3.983642578125  8.8428955078125 4.1160888671875  8.7330322265625 4.2015380859375  L 6.3819580078125 6.0301513671875  Z M 1.6688232421875 2.36865234375  C 0.476806640625004 3.2957763671875  0.476806640625004 4.803955078125  1.6688232421875 5.726806640625  C 2.86083984375 6.6539306640625  4.7999267578125 6.6539306640625  5.9864501953125 5.726806640625  L 8.145263671875 4.0477294921875  L 3.82763671875 0.6895751953125  L 1.6688232421875 2.36865234375  Z " fill-rule="nonzero" fill="#333333" stroke="none" transform="matrix(1 0 0 1 216 196 )" />
  </g>
</svg>