<?xml version="1.0" encoding="utf-8"?>
<svg version="1.1" xmlns:xlink="http://www.w3.org/1999/xlink" width="9px" height="6px" xmlns="http://www.w3.org/2000/svg">
  <g transform="matrix(1 0 0 1 -220 -178 )">
    <path d="M 4.84792564655173 5.73976293103448  C 4.78125 5.77613146551724  4.70851293103449 5.79633620689655  4.62971443965518 5.79633620689655  C 4.55091594827587 5.79633620689655  4.47211745689655 5.77613146551724  4.41756465517242 5.73572198275862  L 0.392780172413798 3.05253232758621  C 0.33822737068966 3.01616379310345  0.301858836206901 2.96363146551724  0.301858836206901 2.91109913793103  C 0.301858836206901 2.85856681034483  0.332165948275866 2.80603448275862  0.392780172413798 2.76966594827586  L 4.41756465517242 0.0864762931034475  C 4.53879310344828 0.00565732758620616  4.72669719827587 0.00565732758620616  4.84792564655173 0.0864762931034475  L 8.87271012931035 2.76966594827586  C 8.99393857758621 2.8504849137931  8.99393857758621 2.97575431034483  8.87271012931035 3.05657327586207  L 4.84792564655173 5.73976293103448  Z M 4.62971443965518 0.518857758620688  L 1.03529094827586 2.9151400862069  L 4.62971443965518 5.3114224137931  L 8.22413793103448 2.9151400862069  L 4.62971443965518 0.518857758620688  Z " fill-rule="nonzero" fill="#333333" stroke="none" transform="matrix(1 0 0 1 220 178 )" />
  </g>
</svg>