<?xml version="1.0" encoding="utf-8"?>
<svg version="1.1" xmlns:xlink="http://www.w3.org/1999/xlink" width="5px" height="6px" xmlns="http://www.w3.org/2000/svg">
  <g transform="matrix(1 0 0 1 -330 -191 )">
    <path d="M 4.8328 2.99279999121094  C 4.81840000878906 1.75439998242187  3.81039999121094 0.731999999999999  2.55759999121094 0.731999999999999  C 1.30479999121094 0.731999999999999  0.282399982421875 1.73999999121094  0.282400008789063 2.99279999121094  C 0.28240003515625 4.24559999121094  1.30480001757812 5.268  2.55759999121094 5.268  C 3.81039996484375 5.268  4.8328 4.24559999121094  4.8328 2.99279999121094  Z M 4.55920000878906 3.00720000878906  C 4.55920003515624 4.11600001757813  3.65200000878906 5.0088  2.55759999121094 5.0088  C 1.44879998242187 5.0088  0.555999999999999 4.11599999121094  0.555999999999999 3.00720000878906  C 0.555999999999999 1.89840002636719  1.44880000878906 1.00560001757813  2.55759999121094 1.00559999121094  C 3.66639997363281 1.00559996484375  4.55919998242188 1.8984  4.55920000878906 3.00720000878906  Z " fill-rule="nonzero" fill="#000000" stroke="none" transform="matrix(1 0 0 1 330 191 )" />
  </g>
</svg>