<?xml version="1.0" encoding="utf-8"?>
<svg version="1.1" xmlns:xlink="http://www.w3.org/1999/xlink" width="23px" height="24px" xmlns="http://www.w3.org/2000/svg">
  <defs>
    <mask fill="white" id="clip350">
      <path d="M 11.6854838709677 23.728  C 17.9177419354839 23.632  22.9629032258065 18.448  22.9629032258065 12.048  C 22.9629032258065 5.584  17.8287096774194 0.368000000000001  11.5370967741936 0.368000000000001  C 5.2158064516129 0.368000000000001  0.111290322580649 5.616  0.111290322580649 12.048  L 0.111290322580649 23.728  L 11.6854838709677 23.728  Z " fill-rule="evenodd" />
    </mask>
  </defs>
  <g transform="matrix(1 0 0 1 -374 -765 )">
    <path d="M 11.6854838709677 23.728  C 17.9177419354839 23.632  22.9629032258065 18.448  22.9629032258065 12.048  C 22.9629032258065 5.584  17.8287096774194 0.368000000000001  11.5370967741936 0.368000000000001  C 5.2158064516129 0.368000000000001  0.111290322580649 5.616  0.111290322580649 12.048  L 0.111290322580649 23.728  L 11.6854838709677 23.728  Z " fill-rule="nonzero" fill="#cccccc" stroke="none" transform="matrix(1 0 0 1 374 765 )" />
    <path d="M 11.6854838709677 23.728  C 17.9177419354839 23.632  22.9629032258065 18.448  22.9629032258065 12.048  C 22.9629032258065 5.584  17.8287096774194 0.368000000000001  11.5370967741936 0.368000000000001  C 5.2158064516129 0.368000000000001  0.111290322580649 5.616  0.111290322580649 12.048  L 0.111290322580649 23.728  L 11.6854838709677 23.728  Z " stroke-width="2" stroke="#cccccc" fill="none" transform="matrix(1 0 0 1 374 765 )" mask="url(#clip350)" />
  </g>
</svg>