<?xml version="1.0" encoding="utf-8"?>
<svg version="1.1" xmlns:xlink="http://www.w3.org/1999/xlink" width="43px" height="36px" xmlns="http://www.w3.org/2000/svg">
  <g transform="matrix(1 0 0 1 -347 -753 )">
    <path d="M 31.5160344827586 35.7218181818182  C 37.6068821872523 35.4394111375915  42.4166569215602 29.9150119307984  42.4291379310345 23.1872727272727  C 42.4291379310345 19.3909090909091  40.8870689655172 15.9872727272727  38.4256896551724 13.6636363636364  C 38.4553448275862 13.3036363636364  38.485 12.9436363636364  38.485 12.5836363636364  C 38.4665994034247 5.64385484873814  33.356115251245 0.0332529728496132  27.0677586206897 0.049090909090908  C 20.7808620689655 0.049090909090908  15.6208620689655 5.67818181818182  15.6208620689655 12.6163636363636  C 15.6208620689655 12.7472727272727  15.6208620689655 12.8454545454545  15.6505172413793 12.9763636363636  C 14.1751129133486 12.1729985246539  12.5508930758063 11.7584876638943  10.9056896551724 11.7654545454545  C 10.8957910425574 11.7654245753256  10.8858923973452 11.7654095902399  10.875993747478 11.7654095902399  C 4.89798743810257 11.7654095902399  0.0518558164434694 17.113571760443  0.0518558164434694 23.7108641356945  C 0.0518558164434694 23.7217882270914  0.0518693948831354 23.7327123133509  0.0518965517241355 23.7436363636364  C 0.06608663019685 30.2008695015252  4.70245576771069 35.4909854608442  10.5498275862069 35.7218181818182  L 10.5498275862069 35.7545454545454  L 31.5160344827586 35.7545454545454  L 31.5160344827586 35.7218181818182  Z " fill-rule="nonzero" fill="#d8effc" stroke="none" transform="matrix(1 0 0 1 347 753 )" />
  </g>
</svg>