<?xml version="1.0" encoding="utf-8"?>
<svg version="1.1" xmlns:xlink="http://www.w3.org/1999/xlink" width="55px" height="53px" xmlns="http://www.w3.org/2000/svg">
  <g transform="matrix(1 0 0 1 -628 -753 )">
    <path d="M 29.3212329382184 9.12246318247126  C 29.3212329382184 10.0862293462644  28.5001346982759 10.8715202945402  27.5 10.8715202945402  L 27.475305316092 10.8715202945402  C 26.4751706178161 10.8715202945402  25.6540723778736 10.0802801724138  25.6540723778736 9.11651400862069  L 25.6540723778736 2.02509877873563  C 25.6540723778736 1.06133261494253  26.4751706178161 0.270092492816091  27.475305316092 0.270092492816091  L 27.5 0.270092492816091  C 28.5001346982759 0.270092492816091  29.3212329382184 1.06133261494253  29.3212329382184 2.02509877873563  L 29.3212329382184 9.12246318247126  Z M 16.0416666666667 12.9537311422414  C 16.751638829023 13.6378861350575  16.751638829023 14.7503816451149  16.0416666666667 15.434536637931  L 16.0231456537356 15.4523841594828  C 15.3131734913793 16.1365391522988  14.1586970186782 16.1365391522988  13.4487248563218 15.4523841594828  L 8.24432022270115 10.4372306034483  C 7.53434806034483 9.75307561063218  7.53434806034483 8.64058010057471  8.24432022270115 7.95642510775862  L 8.26284123563218 7.9385775862069  C 8.97281339798851 7.2544225933908  10.1272898706897 7.2544225933908  10.837262033046 7.9385775862069  L 16.0416666666667 12.9537311422414  Z M 9.47288074712644 24.7152478448276  C 10.4730154454023 24.7152478448276  11.2879400143678 25.506487966954  11.2879400143678 26.4702541307471  L 11.2879400143678 26.4940508261494  C 11.2879400143678 27.4578169899425  10.4668417744253 28.249057112069  9.46670707614943 28.249057112069  L 2.10769127155172 28.249057112069  C 1.10755657327586 28.249057112069  0.286458333333333 27.4578169899425  0.286458333333333 26.4940508261494  L 0.286458333333333 26.4702541307471  C 0.286458333333333 25.506487966954  1.10755657327586 24.7152478448276  2.10769127155172 24.7152478448276  L 9.47288074712644 24.7152478448276  Z M 13.4487248563218 37.5119207974138  C 14.1586970186782 36.8277658045977  15.3131734913793 36.8277658045977  16.0231456537356 37.5119207974138  L 16.0416666666667 37.5297683189655  C 16.751638829023 38.2139233117816  16.751638829023 39.3264188218391  16.0416666666667 40.0105738146552  L 10.837262033046 45.0257273706897  C 10.1272898706897 45.7098823635057  8.97281339798851 45.7098823635057  8.26284123563219 45.0257273706897  L 8.24432022270115 45.0078798491379  C 7.53434806034483 44.3237248563218  7.53434806034483 43.2112293462644  8.24432022270115 42.5270743534483  L 13.4487248563218 37.5119207974138  Z M 25.6540723778736 43.8477909482759  C 25.6540723778736 42.8780756106322  26.4751706178161 42.0927846623563  27.475305316092 42.0927846623563  L 27.5 42.0927846623563  C 28.5001346982759 42.0927846623563  29.3212329382184 42.8840247844828  29.3212329382184 43.8477909482759  L 29.3212329382184 50.9451553520115  C 29.3212329382184 51.9089215158046  28.5001346982759 52.700161637931  27.5 52.700161637931  L 27.475305316092 52.700161637931  C 26.4751706178161 52.700161637931  25.6540723778736 51.9089215158046  25.6540723778736 50.9451553520115  L 25.6540723778736 43.8477909482759  Z M 38.9336386494253 40.0105738146552  C 38.223666487069 39.3264188218391  38.223666487069 38.2139233117816  38.9336386494253 37.5297683189655  L 38.9521596623563 37.5119207974138  C 39.6621318247126 36.8277658045977  40.8166082974138 36.8277658045977  41.5265804597701 37.5119207974138  L 46.7309850933908 42.5270743534483  C 47.4409572557471 43.2112293462644  47.4409572557471 44.3237248563218  46.7309850933908 45.0078798491379  L 46.7124640804598 45.0257273706897  C 46.0024919181034 45.7098823635057  44.8480154454023 45.7098823635057  44.138043283046 45.0257273706897  L 38.9336386494253 40.0105738146552  Z M 45.5085982399425 28.249057112069  C 44.5022898706897 28.249057112069  43.6873653017241 27.4578169899425  43.6873653017241 26.4940508261494  L 43.6873653017241 26.4702541307471  C 43.6873653017241 25.506487966954  44.5084635416667 24.7152478448276  45.5085982399425 24.7152478448276  L 52.8737877155172 24.7152478448276  C 53.8739224137931 24.7152478448276  54.6950206537356 25.506487966954  54.6950206537356 26.4702541307471  L 54.6950206537356 26.4940508261494  C 54.6950206537356 27.4578169899425  53.8739224137931 28.249057112069  52.8737877155172 28.249057112069  L 45.5085982399425 28.249057112069  Z M 41.5265804597701 15.4523841594828  C 40.8166082974138 16.1365391522988  39.6621318247126 16.1365391522988  38.9521596623563 15.4523841594828  L 38.9336386494253 15.434536637931  C 38.223666487069 14.7503816451149  38.223666487069 13.6378861350575  38.9336386494253 12.9537311422414  L 44.138043283046 7.9385775862069  C 44.8480154454023 7.2544225933908  46.0024919181034 7.2544225933908  46.7124640804598 7.9385775862069  L 46.7309850933908 7.95642510775862  C 47.4409572557471 8.64058010057471  47.4409572557471 9.75307561063218  46.7309850933908 10.4372306034483  L 41.5265804597701 15.4523841594828  Z " fill-rule="nonzero" fill="#ffe02c" stroke="none" transform="matrix(1 0 0 1 628 753 )" />
  </g>
</svg>