<?xml version="1.0" encoding="utf-8"?>
<svg version="1.1" xmlns:xlink="http://www.w3.org/1999/xlink" width="8px" height="10px" xmlns="http://www.w3.org/2000/svg">
  <g transform="matrix(1 0 0 1 -469 -789 )">
    <path d="M 5.56481481481481 8.33639705882353  C 5.00925925925926 9.20955882352941  4.17592592592593 9.80698529411765  3.01851851851852 9.80698529411765  C 2.60185185185185 9.80698529411765  2 9.66911764705882  1.58333333333334 9.34742647058824  C 0.888888888888893 8.88786764705882  0.42592592592593 8.33639705882353  0.287037037037041 7.60110294117647  C 0.148148148148152 6.86580882352942  0.148148148148152 5.99264705882353  0.564814814814815 5.39522058823529  L 2.69444444444444 1.58088235294118  C 3.25 0.707720588235294  4.12962962962963 0.110294117647059  5.10185185185185 0.110294117647059  C 5.51851851851852 0.110294117647059  6.12037037037037 0.248161764705882  6.53703703703704 0.569852941176471  C 7.23148148148148 1.02941176470588  7.69444444444444 1.58088235294118  7.83333333333333 2.31617647058824  C 7.97222222222221 3.05147058823529  7.97222222222221 3.92463235294118  7.55555555555556 4.52205882352941  L 5.56481481481481 8.33639705882353  Z " fill-rule="nonzero" fill="#128cc6" stroke="none" transform="matrix(1 0 0 1 469 789 )" />
  </g>
</svg>