<?xml version="1.0" encoding="utf-8"?>
<svg version="1.1" xmlns:xlink="http://www.w3.org/1999/xlink" width="11px" height="11px" xmlns="http://www.w3.org/2000/svg">
  <g transform="matrix(1 0 0 1 -469 -788 )">
    <path d="M 4.58333333333333 2.62660256410256  C 4.89583333333333 2.09775641025641  5.67708333333333 1.65705128205128  6.66666666666667 1.65705128205128  C 7.13541666666667 1.65705128205128  7.44791666666667 1.78926282051282  7.8125 1.92147435897436  C 8.95833333333333 2.49439102564103  9.42708333333333 3.7724358974359  8.59375 4.74198717948718  L 6.19791666666667 8.39983974358974  C 5.72916666666667 9.10496794871795  4.89583333333334 9.36939102564103  4.11458333333334 9.36939102564103  C 3.64583333333333 9.36939102564103  3.33333333333334 9.23717948717949  2.96875 9.10496794871795  C 1.82291666666667 8.53205128205129  1.35416666666667 7.25400641025641  2.1875 6.28445512820513  L 4.58333333333333 2.62660256410256  Z M 8.59375 0.6875  C 7.91666666666667 0.37900641025641  7.29166666666667 0.246794871794872  6.66666666666667 0.246794871794872  C 5.20833333333333 0.246794871794872  3.95833333333333 0.951923076923077  3.125 1.92147435897436  L 0.729166666666671 5.57932692307692  C 0.260416666666667 6.41666666666667  0.104166666666671 7.43028846153846  0.416666666666676 8.2676282051282  C 0.729166666666676 9.10496794871794  1.35416666666667 9.94230769230768  2.34375000000001 10.3830128205128  C 2.96875000000001 10.6474358974359  3.64583333333334 10.8237179487179  4.27083333333334 10.8237179487179  C 5.72916666666668 10.8237179487179  6.97916666666668 10.1185897435897  7.81250000000001 9.14903846153845  L 10.2083333333333 5.4911858974359  C 10.6770833333333 4.65384615384615  10.8333333333333 3.64022435897435  10.5208333333333 2.80288461538462  C 10.2083333333333 1.96554487179487  9.53125 1.12820512820513  8.59375 0.6875  Z " fill-rule="nonzero" fill="#f9fafc" stroke="none" transform="matrix(1 0 0 1 469 788 )" />
  </g>
</svg>