<?xml version="1.0" encoding="utf-8"?>
<svg version="1.1" xmlns:xlink="http://www.w3.org/1999/xlink" width="8px" height="10px" xmlns="http://www.w3.org/2000/svg">
  <g transform="matrix(1 0 0 1 -455 -789 )">
    <path d="M 5.46296296296297 8.33639705882353  C 4.90740740740741 9.20955882352941  4.07407407407408 9.80698529411765  2.91666666666667 9.80698529411765  C 2.5 9.80698529411765  1.89814814814815 9.66911764705882  1.48148148148148 9.34742647058824  C 0.787037037037037 8.88786764705882  0.324074074074074 8.33639705882353  0.185185185185187 7.60110294117647  C 0.0462962962963005 6.86580882352942  0.0462962962963005 5.99264705882353  0.462962962962965 5.39522058823529  L 2.5925925925926 1.58088235294118  C 3.14814814814815 0.707720588235294  4.02777777777778 0.110294117647059  5 0.110294117647059  C 5.41666666666667 0.110294117647059  6.01851851851852 0.248161764705882  6.43518518518519 0.569852941176471  C 7.12962962962963 1.02941176470588  7.5925925925926 1.58088235294118  7.73148148148149 2.31617647058824  C 7.87037037037037 3.05147058823529  7.87037037037037 3.92463235294118  7.45370370370371 4.52205882352941  L 5.46296296296297 8.33639705882353  Z " fill-rule="nonzero" fill="#128cc6" stroke="none" transform="matrix(1 0 0 1 455 789 )" />
  </g>
</svg>