<?xml version="1.0" encoding="utf-8"?>
<svg version="1.1" xmlns:xlink="http://www.w3.org/1999/xlink" width="10px" height="11px" xmlns="http://www.w3.org/2000/svg">
  <g transform="matrix(1 0 0 1 -454 -788 )">
    <path d="M 4.189453125 2.62660256410256  C 4.482421875 2.09775641025641  5.21484375 1.65705128205128  6.142578125 1.65705128205128  C 6.58203125 1.65705128205128  6.875 1.78926282051282  7.216796875 1.92147435897436  C 8.291015625 2.49439102564103  8.73046875 3.7724358974359  7.94921875 4.74198717948718  L 5.703125 8.39983974358974  C 5.263671875 9.10496794871795  4.482421875 9.36939102564103  3.75 9.36939102564103  C 3.310546875 9.36939102564103  3.017578125 9.23717948717949  2.67578125 9.10496794871795  C 1.6015625 8.53205128205129  1.162109375 7.25400641025641  1.943359375 6.28445512820513  L 4.189453125 2.62660256410256  Z M 7.94921875 0.6875  C 7.314453125 0.37900641025641  6.728515625 0.246794871794872  6.142578125 0.246794871794872  C 4.775390625 0.246794871794872  3.603515625 0.951923076923077  2.822265625 1.92147435897436  L 0.576171875000002 5.57932692307692  C 0.136718750000002 6.41666666666667  -0.009765625 7.43028846153846  0.283203125000002 8.2676282051282  C 0.576171875000002 9.10496794871795  1.162109375 9.94230769230768  2.08984375 10.3830128205128  C 2.67578125 10.6474358974359  3.310546875 10.8237179487179  3.896484375 10.8237179487179  C 5.263671875 10.8237179487179  6.435546875 10.1185897435897  7.216796875 9.14903846153845  L 9.462890625 5.4911858974359  C 9.90234375 4.65384615384615  10.048828125 3.64022435897435  9.755859375 2.80288461538462  C 9.462890625 1.96554487179487  8.876953125 1.12820512820513  7.94921875 0.6875  Z " fill-rule="nonzero" fill="#f9fafc" stroke="none" transform="matrix(1 0 0 1 454 788 )" />
  </g>
</svg>