<?xml version="1.0" encoding="utf-8"?>
<svg version="1.1" xmlns:xlink="http://www.w3.org/1999/xlink" width="59px" height="41px" xmlns="http://www.w3.org/2000/svg">
  <g transform="matrix(1 0 0 1 -155 -753 )">
    <path d="M 41.7276475694444 18.2536705280172  C 43.3921440972222 17.2043709590517  45.3319227430556 16.3828798491379  47.4125434027778 16.3828798491379  C 53.6544053819444 16.3828798491379  58.7183159722222 21.9952518857759  58.7183159722222 28.691439924569  C 58.7183159722222 34.9734307650862  54.2113715277778 40.2130253232759  48.5200737847222 40  L 11.1969401041667 40  C 4.82063802083333 39.8333445581897  0.275282118055556 33.8136786099138  0.275282118055556 26.7032933728448  C 0.275282118055556 20.0485250538793  4.53895399305556 14.470669450431  10.3006727430556 12.9795595366379  C 12.1764322916667 5.68278556034483  18.5591362847222 0.111833243534485  25.9085286458333 0.111833243534485  C 34.7879774305556 0.111833243534485  41.7596571180556 8.11274245689655  41.7596571180556 17.5771484375  C 41.7596571180556 17.8049568965517  41.7276475694444 17.9913456357759  41.7276475694444 18.2536705280172  Z " fill-rule="nonzero" fill="#d8effc" stroke="none" transform="matrix(1 0 0 1 155 753 )" />
  </g>
</svg>