<?xml version="1.0" encoding="utf-8"?>
<svg version="1.1" xmlns:xlink="http://www.w3.org/1999/xlink" width="121px" height="61px" xmlns="http://www.w3.org/2000/svg">
  <g transform="matrix(1 0 0 1 -232 -291 )">
    <path d="M 85.5770399305555 27.1579000538793  C 88.9906684027778 25.5967470366379  92.9688585069445 24.3745285560345  97.2358940972222 24.3745285560345  C 110.037000868056 24.3745285560345  120.422309027778 32.724643049569  120.422309027778 42.6872642780172  C 120.422309027778 52.0336408943965  111.179253472222 59.829135237069  99.5072699652778 60  L 22.9632161458333 60  C 9.88639322916667 59.2642443426724  0.564561631944444 50.3081559806035  0.564561631944444 39.7292901400862  C 0.564561631944444 29.8282933728448  9.30870225694444 21.5295325969828  21.1251085069444 19.3110519935345  C 24.9720052083333 8.45487607758622  38.0619574652778 0.166386045258624  53.1344401041667 0.166386045258624  C 71.3448350694444 0.166386045258624  85.6426866319445 12.0701778017241  85.6426866319445 26.1513671875  C 85.6426866319445 26.4903017241379  85.5770399305555 26.767611799569  85.5770399305555 27.1579000538793  Z " fill-rule="nonzero" fill="#ffffff" stroke="none" fill-opacity="0.890196078431373" transform="matrix(1 0 0 1 232 291 )" />
  </g>
</svg>