<?xml version="1.0" encoding="utf-8"?>
<svg version="1.1" xmlns:xlink="http://www.w3.org/1999/xlink" width="77px" height="77px" xmlns="http://www.w3.org/2000/svg">
  <g transform="matrix(1 0 0 1 -390 -295 )">
    <path d="M 0.263800668647818 38.7448780981373  C 0.263800668647818 38.7456692522406  0.263800693412549 38.7464604060766  0.263800742942053 38.7472515601783  C 0.263800693412563 38.7480427142353  0.263800668647846 38.7488338682953  0.263800668647846 38.7496250223538  C 0.263800668647846 59.6879874118815  17.2376971201305 76.6618838633642  38.1760595096582 76.6618838633642  C 59.114421899186 76.6618838633642  76.0883183506686 59.6879874118815  76.0883183506686 38.7496250223538  C 76.0883183506686 38.7488338684746  76.0883183259039 38.748042714056  76.0883182763745 38.7472515601783  C 76.0883183259039 38.7464604060766  76.0883183506686 38.7456692522406  76.0883183506686 38.7448780981373  C 76.0883183506686 17.8065157086096  59.1144218991859 0.832619257126922  38.1760595096582 0.832619257126922  C 17.2376971201305 0.832619257126922  0.263800668647818 17.8065157086096  0.263800668647818 38.7448780981373  Z " fill-rule="nonzero" fill="#fdb201" stroke="none" transform="matrix(1 0 0 1 390 295 )" />
  </g>
</svg>