<?xml version="1.0" encoding="utf-8"?>
<svg version="1.1" xmlns:xlink="http://www.w3.org/1999/xlink" width="125px" height="140px" xmlns="http://www.w3.org/2000/svg">
  <g transform="matrix(1 0 0 1 -379 -257 )">
    <path d="M 45 21.6481022288261  L 45 5.97770193164933  C 44.121091679049 3.18592024688706  46.3842778991902 0.922734026745914  49.1760595839524 0.922734026745914  C 51.9678412106873 0.922734108809017  54.2310273402675 3.18592030491443  55 5.97770193164933  L 55 21.6481022288261  C 54.2310272582044 24.4398837975337  51.9678411526599 26.7030699030781  49.1760595839524 26.7030699851412  C 46.3842779572176 26.7030699851412  44.1210917611121 24.439883855561  45 21.6481022288261  Z M 79.253118127786 29.2305539375929  L 88.6048086181278 16.5931343239227  C 90.2798776142621 14.359709023098  93.4483382556245 13.9070717696104  95.6817635958395 15.5821407132244  C 97.9151888966642 17.2572097093587  98.3678261501518 20.4256703507211  96.6927572065379 22.6590956909361  L 87.3410667161961 35.2965153046062  C 85.6659977200618 37.529940605431  82.4975370786994 37.9825778589185  80.2641117384844 36.3075089153046  C 78.0306864376597 34.6324399191703  77.5780491841721 31.4639792778079  79.253118127786 29.2305539375929  Z M 103.264215453195 54.7581414561664  L 118.176370579495 49.9559219910847  C 120.82757485533 49.1296203111038  123.648917860695 50.5967186845087  124.49508038633 53.2416511144131  C 125.321382066311 55.8928553902487  123.854283692906 58.7141983956134  121.209351263001 59.5603609212481  L 106.297196136701 64.3625803863299  C 103.645991860866 65.1888820663108  100.824648855501 63.7217836929059  99.9784863298663 61.0768512630015  C 99.1521846498853 58.4256469871658  100.61928302329 55.6043039818012  103.264215453195 54.7581414561664  Z M 106.297196136701 88.8791744427935  L 121.209351263001 93.6813939078752  C 123.854283692906 94.5275564335099  125.321382066311 97.3488994388746  124.49508038633 100.00010371471  C 123.648917797943 102.645036084998  120.827574811975 104.112134381972  118.176370579495 103.28583268945  L 103.264215453195 98.4836133729569  C 100.61928302329 97.6374508473221  99.1521846498854 94.8161078419575  99.9784863298663 92.1649035661219  C 100.824648855501 89.5199711362175  103.645991860866 88.0528727628126  106.297196136701 88.8791744427935  Z M 87.5938151560178 118.450736255572  L 96.9455056463596 131.088155869242  C 98.6205745899735 133.321581209457  98.1679373364859 136.49004185082  95.9345120356612 138.165110846954  C 93.7010866954462 139.840179790568  90.5326260540837 139.38754253708  88.8575570579495 137.154117236256  L 79.5058665676077 124.516697622585  C 77.8307976239938 122.28327228237  78.2834348774813 119.114811641008  80.516860178306 117.439742644874  C 82.7502855185211 115.76467370126  85.9187461598835 116.217310954747  87.5938151560178 118.450736255572  Z M 10.758304011887 35.0437668647846  L 1.40661337295688 22.4063473997028  C -0.268455570657039 20.1729220594878  0.184181682830541 17.0044614181254  2.41760698365526 15.3293924219911  C 4.65103228504316 13.6543234459502  7.81949291967557 14.106960631951  9.494561961367 16.3403858841011  L 18.8462524517087 28.9778054977712  C 20.5213214277497 31.2112307991591  20.0686842417488 34.3796914337915  17.8352589895988 36.0547604754829  C 15.6018336493838 37.7298294190969  12.4333730080214 37.2771921656093  10.758304011887 35.0437668647846  Z " fill-rule="nonzero" fill="#fdb201" stroke="none" transform="matrix(1 0 0 1 379 257 )" />
  </g>
</svg>