<?xml version="1.0" encoding="utf-8"?>
<svg version="1.1" xmlns:xlink="http://www.w3.org/1999/xlink" width="71px" height="71px" xmlns="http://www.w3.org/2000/svg">
  <g transform="matrix(1 0 0 1 -384 -340 )">
    <path d="M 0.956084472511122 35.4484679741003  C 0.956084472511122 35.4492240680025  0.956084497275867 35.4499801616715  0.956084546805343 35.4507362555721  C 0.956084497275867 35.4514923493161  0.956084472511122 35.4522484432981  0.956084472511122 35.4530045370438  C 0.956084472511122 54.5767088396823  16.4589098875546 70.0795342547258  35.5826141901931 70.0795342547258  C 54.7063184928317 70.0795342547258  70.2091439078752 54.5767088396823  70.2091439078752 35.4530045370438  C 70.2091439078752 35.4522484432981  70.2091438831104 35.4514923493161  70.209143833581 35.4507362555721  C 70.2091438831104 35.4499801616715  70.2091439078752 35.4492240680025  70.2091439078752 35.4484679741003  C 70.2091439078752 16.3247636714618  54.7063184928317 0.821938256418306  35.5826141901931 0.821938256418306  C 16.4589098875546 0.821938256418306  0.956084472511122 16.3247636714618  0.956084472511122 35.4484679741003  Z " fill-rule="nonzero" fill="#bfe7f9" stroke="none" transform="matrix(1 0 0 1 384 340 )" />
  </g>
</svg>