<?xml version="1.0" encoding="utf-8"?>
<svg version="1.1" xmlns:xlink="http://www.w3.org/1999/xlink" width="110px" height="107px" xmlns="http://www.w3.org/2000/svg">
  <g transform="matrix(1 0 0 1 -304 -304 )">
    <path d="M 34.7031288261516 36.82420653789  L 37.7361095096582 37.0769549777118  L 37.7361095096583 35.5604646359584  C 37.9713600776342 15.9077852124211  53.9697226399856 0.0997833917906945  73.6238100355901 0.0997833917906945  C 93.4454597183877 0.0997833917906945  109.514081655204 16.1684053286068  109.514081655204 35.9900550114044  C 109.514081655204 42.6196529652621  107.677818767381 49.1197029600187  104.208936552749 54.7693423476969  C 107.65301910894 60.1156347476314  109.484540514492 66.3406880615573  109.484540514492 72.7002908069699  C 109.484540514492 90.9864606205923  94.6606709521862 105.810330182898  76.3745011385637 105.810330182898  C 68.9625293699718 105.810330182898  61.7649032504709 103.323348827393  55.9339937592868 98.7475625557207  C 49.8481652947066 103.497355926113  42.3496020120164 106.077187985142  34.6296379472223 106.077187985142  C 15.5059336445837 106.077187985142  0.00310822954024038 90.5743625700985  0.00310822954024038 71.4506582674599  C 0.00310822954024038 52.3269539648213  15.5059336445837 36.8241285497779  34.6296379472223 36.8241285497779  C 34.6541349275564 36.8241285497779  34.6786319009911 36.8241545458299  34.7031288261516 36.82420653789  Z " fill-rule="nonzero" fill="#d8effc" stroke="none" transform="matrix(1 0 0 1 304 304 )" />
  </g>
</svg>