<?xml version="1.0" encoding="utf-8"?>
<svg version="1.1" xmlns:xlink="http://www.w3.org/1999/xlink" width="14px" height="19px" xmlns="http://www.w3.org/2000/svg">
  <g transform="matrix(1 0 0 1 -265 -176 )">
    <path d="M 9.57578125 0.0861823694029863  C 9.079296875 0.618452658582091  8.2498046875 1.73450326492537  7.0146484375 2.04699743470149  C 5.35869140625 2.46251166044776  4.63515625 2.3251515858209  3.5453125 1.22627098880597  C 3.80869140625 2.83681786380597  5.05595703125 4.06275652985075  6.55146484375 4.06275652985075  C 8.2376953125 4.06275652985075  9.612109375 2.50715368470149  9.612109375 0.594414645522389  C 9.612109375 0.419280550373134  9.59697265625 0.251014458955224  9.57578125 0.0861823694029863  Z M 6.52119140625 18.9148145988806  C 7.6201171875 17.6991779384328  8.728125 16.1470090951493  9.74833984375 14.381932136194  C 9.79375 14.2686100746269  9.85732421875 14.162156016791  9.92998046875 14.0660039645522  C 12.1671875 10.1169018190298  13.6869140625 5.75571944962687  13.98359375 2.56209771455224  C 13.0572265625 4.08336054104478  11.0349609375 6.78248600746269  7.92587890625 7.71653451492537  C 4.61396484375 8.71239505597015  1.4201171875 7.77491254664179  0.0971679687499964 7.2769822761194  C 1.45341796875 11.4458605410448  3.896484375 16.0199510261194  6.52119140625 18.9148145988806  Z " fill-rule="nonzero" fill="#ffd524" stroke="none" transform="matrix(1 0 0 1 265 176 )" />
  </g>
</svg>