<?xml version="1.0" encoding="utf-8"?>
<svg version="1.1" xmlns:xlink="http://www.w3.org/1999/xlink" width="9px" height="10px" xmlns="http://www.w3.org/2000/svg">
  <g transform="matrix(1 0 0 1 -267 -171 )">
    <path d="M 4.5544921875 0.177389705882355  C 2.14721966911765 0.173828125000001  0.188706341911767 2.34995404411765  0.188706341911765 5.02826286764706  C 0.188706341911765 7.70301011029412  2.14721966911765 9.87913602941177  4.5544921875 9.87913602941177  C 6.96176470588236 9.87913602941177  8.92027803308824 7.70301011029412  8.92027803308824 5.02826286764706  C 8.92027803308824 2.353515625  6.96176470588236 0.177389705882355  4.5544921875 0.177389705882355  Z M 1.31060431985294 5.02470128676471  C 1.31380974264706 3.04090073529412  2.76586626838235 1.42750459558824  4.5544921875 1.42750459558824  C 6.17964154411765 1.42750459558824  7.52271369485294 2.76309742647059  7.75350413602941 4.49758731617647  C 7.77594209558824 4.67210477941177  7.79196920955882 4.84662224264706  7.79196920955882 5.02470128676471  C 7.79196920955882 7.0085018382353  6.33991268382353 8.62189797794118  4.55128676470588 8.62189797794118  C 2.96780790441177 8.62189797794118  1.64717371323529 7.35041360294118  1.36830193014706 5.68003216911765  C 1.33304227941176 5.46633731617647  1.31060431985294 5.24908088235294  1.31060431985294 5.02470128676471  Z " fill-rule="nonzero" fill="#6b400d" stroke="none" transform="matrix(1 0 0 1 267 171 )" />
  </g>
</svg>