<?xml version="1.0" encoding="utf-8"?>
<svg version="1.1" xmlns:xlink="http://www.w3.org/1999/xlink" width="18px" height="29px" xmlns="http://www.w3.org/2000/svg">
  <g transform="matrix(1 0 0 1 -262 -167 )">
    <path d="M 0.190948660714284 9.8360651299505  C 0.190948660714284 15.1105971534653  4.15175223214286 24.0602645420792  8.48310267857143 28.590729424505  L 8.51112723214286 28.6254989170792  C 8.64502232142857 28.7889155321782  8.825625 28.8793162128713  9.01868303571428 28.8793162128713  C 9.21174107142857 28.8793162128713  9.39545758928571 28.7889155321782  9.50755580357143 28.6463606126238  L 9.52935267857143 28.6220219678218  C 10.7997991071429 27.2973043007426  12.09515625 25.5310140779703  13.2784151785714 23.5178604579208  C 13.2970982142857 23.4830909653465  13.31578125 23.4483214727723  13.3282366071429 23.413551980198  C 13.3344642857143 23.3996441831683  13.3438058035714 23.3822594368812  13.3531473214286 23.3718285891089  C 13.3780580357143 23.3440129950495  13.3998549107143 23.3127204517327  13.4185379464286 23.2779509591584  C 16.10578125 18.6188389542079  17.8433035714286 13.3443069306931  17.8433035714286 9.83954207920792  C 17.8433035714286 4.66584158415842  14.1347209821429 0.437871287128713  9.39857142857143 0.215346534653465  C 9.09341517857143 0.197961788366337  8.84119419642857 0.462209931930693  8.82873883928571 0.79947400990099  C 8.81628348214286 1.13673808787129  9.04982142857143 1.4218479269802  9.35186383928571 1.4357557240099  C 13.5057254464286 1.62698793316832  16.7534598214286 5.31950804455446  16.7534598214286 9.83606512995049  C 16.7534598214286 10.1802831064356  16.7316629464286 10.5453627784653  16.694296875 10.9208732982673  C 16.3922544642857 14.1509591584158  14.8259933035714 18.570161664604  12.5248660714286 22.5686533106436  C 12.4501339285714 22.6660078898515  12.3878571428571 22.7737933168317  12.3380357142857 22.8885326423267  C 11.2855580357143 24.6756845606436  10.1490066964286 26.247265625  9.01868303571428 27.4781056621287  C 6.32209821428571 24.5470374381188  3.80922991071429 19.9157410272277  2.41422991071429 15.6982015779703  C 1.70427455357143 13.5424930383663  1.28390625 11.4945699257426  1.28390625 9.8360651299505  C 1.28390625 8.24709931930693  1.69493303571429 6.69985689975248  2.47339285714286 5.36123143564357  C 2.63842633928571 5.07959854579208  2.56680803571429 4.70061107673268  2.31147321428571 4.51633276608911  C 2.05613839285714 4.33205445544555  1.71984375 4.41550123762376  1.55481026785714 4.69713412747525  C 0.661138392857144 6.23394569925743  0.190948660714284 8.01414371905941  0.190948660714284 9.8360651299505  Z " fill-rule="nonzero" fill="#6b400d" stroke="none" transform="matrix(1 0 0 1 262 167 )" />
  </g>
</svg>