<?xml version="1.0" encoding="utf-8"?>
<svg version="1.1" xmlns:xlink="http://www.w3.org/1999/xlink" width="23px" height="32px" xmlns="http://www.w3.org/2000/svg">
  <g transform="matrix(1 0 0 1 -260 -167 )">
    <path d="M 22.8108289930556 27.3594907407407  C 22.8108289930556 26.078587962963  21.9257682291667 25.0237268518519  20.1834982638889 24.2236111111111  C 19.9049826388889 24.0944444444444  19.5893315972222 24.2559027777778  19.4779253472222 24.5788194444444  C 19.3665190972222 24.9017361111111  19.5057769097222 25.2677083333333  19.7842925347222 25.396875  C 20.6693532986111 25.8023148148148  21.7246180555556 26.4696759259259  21.7246180555556 27.3630787037037  C 21.7246180555556 28.2385416666667  20.6415017361111 29.1032407407407  18.7506901041667 29.7347222222222  C 16.8134592013889 30.3805555555556  14.2387369791667 30.7357638888889  11.5 30.7357638888889  C 8.76126302083333 30.7357638888889  6.18654079861111 30.3805555555556  4.24930989583333 29.7347222222222  C 2.35849826388889 29.1032407407407  1.27538194444444 28.2385416666667  1.27538194444444 27.3630787037037  C 1.27538194444444 26.4696759259259  2.33064670138889 25.7987268518519  3.21880208333333 25.393287037037  C 3.49731770833333 25.2641203703704  3.63657552083333 24.8981481481481  3.52516927083333 24.5752314814815  C 3.41376302083333 24.2523148148148  3.10120659722222 24.0908564814815  2.81959635416667 24.2200231481482  C 1.07423177083333 25.0165509259259  0.189171006944444 26.075  0.189171006944444 27.3594907407407  C 0.189171006944444 28.9023148148148  1.45486979166667 30.1078703703704  3.94913194444444 30.9402777777778  C 5.97920138888889 31.6184027777778  8.66223524305556 31.9915509259259  11.5 31.9915509259259  C 14.3377647569444 31.9915509259259  17.0207986111111 31.6184027777778  19.0508680555556 30.9402777777778  C 21.5482248263889 30.1078703703704  22.8108289930556 28.9023148148148  22.8108289930556 27.3594907407407  Z M 8.58177517361111 1.13865740740741  C 8.64985677083333 1.40775462962963  8.86648003472222 1.58356481481482  9.10167100694444 1.58356481481482  C 9.15427951388889 1.58356481481482  9.20688802083334 1.57638888888889  9.25949652777778 1.55844907407407  C 9.46374131944444 1.48668981481481  9.67108072916667 1.42569444444444  9.87842013888889 1.37546296296296  C 10.1724088541667 1.3037037037037  10.3580859375 0.966435185185185  10.2961935763889 0.629166666666667  C 10.2343012152778 0.288310185185186  9.94340711805556 0.069444444444445  9.65251302083334 0.144791666666667  C 9.41732204861111 0.202199074074074  9.17903645833333 0.273958333333334  8.94694010416667 0.352893518518519  C 8.659140625 0.453356481481482  8.49512586805556 0.804976851851852  8.58177517361111 1.13865740740741  Z M 6.72809895833333 2.25810185185185  C 6.83022135416666 2.45543981481481  7.01280381944444 2.5630787037037  7.19538628472222 2.5630787037037  C 7.29131944444444 2.5630787037037  7.38725260416667 2.534375  7.47390190972222 2.47337962962963  L 7.59459201388889 2.39085648148148  C 7.85453993055555 2.2150462962963  7.94118923611111 1.83113425925926  7.78955295138889 1.52974537037037  C 7.63791666666667 1.22835648148148  7.30679253472222 1.12789351851852  7.04684461805555 1.3037037037037  L 6.91687065972222 1.39340277777778  C 6.66001736111111 1.57280092592593  6.57646267361111 1.96030092592593  6.72809895833333 2.25810185185185  Z " fill-rule="nonzero" fill="#6b400d" stroke="none" transform="matrix(1 0 0 1 260 167 )" />
  </g>
</svg>