<?xml version="1.0" encoding="utf-8"?>
<svg version="1.1" xmlns:xlink="http://www.w3.org/1999/xlink" width="16px" height="30px" xmlns="http://www.w3.org/2000/svg">
  <g transform="matrix(1 0 0 1 -184 -499 )">
    <path d="M 8 0.266666677734375  L 7.85266667773437 0.268933322265625  C 5.19881606764959 0.348581619434229  3.08873039922737 2.52292112050468  3 5.17796667773437  L 3 15.5689333222656  L 2.94646667773438 15.6839666777344  C 1.12108993960115 17.1900830348269  0.0647590098796389 19.4334871481391  0.066666677734375 21.8  C 0.066666677734375 26.1814666777344  3.61853335546875 29.7333333222656  8 29.7333333222656  C 12.3814666445313 29.7333333222656  15.9333333222656 26.1814666445312  15.9333333222656 21.8  L 15.9305 21.5943  C 15.8729161827673 19.3004610101334  14.823378573258 17.1443299869759  13.0535333222656 15.6839666777344  L 13 15.5689333222656  L 13 5.17796667773437  C 12.9107333403196 2.46575187190085  10.7122147877795 0.266979619672621  8 0.266666677734375  Z M 8 2.53333332226562  C 9.46059065278165 2.53333332226562  10.6446333222656 3.7173759917496  10.6446333222656 5.17796664453125  L 10.6446333222656 16.1446666777344  C 10.6445757053637 16.5227924021689  10.8331018109148 16.8760397230564  11.1472666777344 17.0864666777344  C 12.722805182296 18.1371557367671  13.6683954780531 19.9062560655207  13.6666666777344 21.8  C 13.6666666777344 24.9297  11.1297 27.4666666777344  8 27.4666666777344  C 4.8703 27.4666666777344  2.33333332226562 24.9297  2.33333332226562 21.8  C 2.33333332226562 19.8846666777344  3.28986664453125 18.1336666777344  4.85273332226562 17.0870333222656  C 5.16689818908517 16.8766063675876  5.35542429463629 16.5233590467001  5.35536667773437 16.1452333222656  L 5.35536667773437 5.17796667773437  C 5.35536667773437 3.7173759917496  6.53940934721835 2.53333332226562  8 2.53333332226562  Z " fill-rule="nonzero" fill="#5d5c5c" stroke="none" transform="matrix(1 0 0 1 184 499 )" />
  </g>
</svg>