<?xml version="1.0" encoding="utf-8"?>
<svg version="1.1" xmlns:xlink="http://www.w3.org/1999/xlink" width="20px" height="26px" xmlns="http://www.w3.org/2000/svg">
  <g transform="matrix(1 0 0 1 -345 -503 )">
    <path d="M 19.6540229801994 15.4844444472656  C 19.6540229801994 9.38888889453125  12.3107279721175 0.433333341796875  10 0.433333341796875  C 7.68927202788254 0.433333341796875  0.345977019800646 9.38888889453125  0.345977019800646 15.4844444472656  C 0.345977019800646 21.0311111054687  4.68390805428341 25.5666666582031  10 25.5666666582031  C 15.3160919457166 25.5666666582031  19.6540229801994 21.0311111054687  19.6540229801994 15.4844444472656  Z M 10 2.36888889453125  C 11.3183908129041 2.97555555273437  17.8111111166487 9.96666668359375  17.8111111166487 15.4844444472656  C 17.8111111166487 19.9911111054688  14.3095785385237 23.66  10 23.66  C 5.69042146147629 23.66  2.18888888335129 19.9911111054688  2.18888888335129 15.4844444472656  C 2.18888888335129 9.96666665820313  8.6816091870959 2.97555555273438  10 2.36888889453125  Z " fill-rule="nonzero" fill="#5d5c5c" stroke="none" transform="matrix(1 0 0 1 345 503 )" />
  </g>
</svg>