<?xml version="1.0" encoding="utf-8"?>
<svg version="1.1" xmlns:xlink="http://www.w3.org/1999/xlink" width="8px" height="7px" xmlns="http://www.w3.org/2000/svg">
  <g transform="matrix(1 0 0 1 -349 -518 )">
    <path d="M 6.57050504758523 4.60988889169922  C 4.83636363636364 4.00555556679688  3.47595959303977 2.68177778339844  2.8032323203125 1.01266667509766  C 2.66868686576704 0.667333350195313  2.33979796519886 0.408333350195312  1.96606059730114 0.350777783398437  C 1.59232322940341 0.293222216601562  1.18868686576705 0.437111108300779  0.949494952414772 0.724888891699219  C 0.7103030390625 1.01266667509766  0.650505047585229 1.41555556679687  0.785050502130682 1.76088889169922  C 1.66351077970217 4.00005640884415  3.50639959914588 5.76334115300232  5.83797980965909 6.59555556679687  C 5.95394717025463 6.63479281897168  6.07598281254644 6.6548368447674  6.19890674653004 6.6548368447674  C 6.73257336953046 6.6548368447674  7.18750960207307 6.28238889502025  7.27313131605114 5.77538889169922  C 7.36926752342009 5.27332758801107  7.07107696452651 4.77869607195734  6.57050504758523 4.60988889169922  Z " fill-rule="nonzero" fill="#5d5c5c" stroke="none" transform="matrix(1 0 0 1 349 518 )" />
  </g>
</svg>