<?xml version="1.0" encoding="utf-8"?>
<svg version="1.1" xmlns:xlink="http://www.w3.org/1999/xlink" width="20px" height="11px" xmlns="http://www.w3.org/2000/svg">
  <g transform="matrix(1 0 0 1 -177 -560 )">
    <path d="M 0.0329550919769503 10.0284900315505  C 0.0802364250886524 10.5769230769231  0.537289201019503 10.98433048127  1.10466508754433 11  L 14.2173522550975 11  L 14.5325610593972 10.9686609625401  C 17.6216075465426 10.8119658027845  20.0014341755319 8.27350426432292  19.8911111203458 5.29629628405449  C 19.7807880374557 2.30341878505609  17.2118361037234 -0.0313390374599364  14.1070291445036 0.0156695187299679  C 11.0179826573582 0.0783475936498396  8.54359336214539 2.52279201973157  8.54359338984929 5.51566951872997  C 8.54359338984929 5.87606836688702  8.74847913896277 6.22079772385817  9.07944838763298 6.40883192107372  C 9.4104176640071 6.59686611828926  9.82018913453014 6.59686611828926  10.1511583832004 6.40883192107372  C 10.4663672152039 6.22079772385817  10.6712529366135 5.87606839443109  10.6712529643174 5.51566951872997  C 10.6712529643174 3.61965811047676  12.2630575410018 2.08404557792468  14.2173522550975 2.08404557792468  C 16.1716469691933 2.08404557792468  17.7634515458777 3.61965811047676  17.7634515458777 5.51566951872997  C 17.7634515458777 7.41168092698317  16.1716469691933 8.94729345953526  14.2173522550975 9  L 0.962821115913121 9  C 0.395445229388298 9.02564102564103  0.00143420323581561 9.49572650490785  0.0329550919769503 10.0284900315505  Z " fill-rule="nonzero" fill="#5d5c5c" stroke="none" transform="matrix(1 0 0 1 177 560 )" />
  </g>
</svg>