<?xml version="1.0" encoding="utf-8"?>
<svg version="1.1" xmlns:xlink="http://www.w3.org/1999/xlink" width="29px" height="14px" xmlns="http://www.w3.org/2000/svg">
  <g transform="matrix(1 0 0 1 -177 -568 )">
    <path d="M 28.8738388401145 4.12698412388393  C 28.8100324470142 1.88888889508928  26.8958410465656 0.0952380859374996  24.5828597453202 0.0793650669642858  C 22.301781640625 0.0793650669642858  20.4194934086866 1.79365078125  20.2759290522509 3.98412698102678  C 20.2440258557008 4.52380951450893  20.6587673267327 5.01587301897321  21.2170731542002 5.07936506696428  C 21.7753789816677 5.14285714285714  22.3017816125851 4.79365078125  22.4134428005105 4.25396824776785  L 22.4453459970606 3.92063493303571  C 22.6208135500464 2.85714285714285  23.6098124468209 2.07936509486607  24.7264241017559 2.15873016183035  C 25.8430357566909 2.23809522879464  26.7203734935798 3.12698412388393  26.7363250918549 4.20634921875  C 26.75227669013 5.28571428571428  25.9068421497912 6.20634921874999  24.7902304668162 6.31746032366071  L 24.5031017539449 6.33333334263393  L 24.4233437906095 6.34920636160714  L 19.4304945119121 6.34920636160714  C 19.3347849503017 6.34920636160714  19.2550269589264 6.33333334263393  19.159317369276 6.33333334263393  L 19.0157530128403 6.34920636160714  L 1.22972441309561 6.34920636160714  L 1.08616005665996 6.36507935267857  C 0.527423823316241 6.43118225141181  0.115886506653384 6.91704163592563  0.145015954710705 7.47619048549107  C 0.176919151260829 8.03174603794643  0.655466987353032 8.44444444754464  1.22972441309561 8.44444444754464  L 19.159317369276 8.42857142857143  C 20.1642678643255 8.42857142857143  20.9937508063892 9.20634921875  20.9937508344291 10.1587301618304  C 20.9937508344291 11.1587301618304  20.2759290522509 11.9047619140625  19.3028817257116 11.9047619140625  C 18.2500764358369 11.9047619140625  17.7555770014697 11.4444444475446  17.596061046759 10.6507936383929  C 17.5301427101842 10.2727517066219  17.2603393680481 9.96156563283208  16.8941908628558 9.84126983816964  C 16.5273041866491 9.71428571428571  16.1125626875774 9.79365078124999  15.825434002746 10.0476190569196  C 15.5383053179146 10.3015873325893  15.4106925317141 10.6825397042411  15.4904504950495 11.0634920758929  C 15.841385601021 12.7619047712054  17.149416379177 13.9841270089286  19.3188333239867 13.9841269810268  C 19.3348859418208 13.984329629824  19.350939689946 13.98443095728  19.3669935995468 13.98443095728  C 21.4637314190434 13.98443095728  23.1634732599738 12.2930622288666  23.1634732599738 10.2066531671015  C 23.1634732599738 10.190678349984  23.1633714310137 10.1747036935468  23.1631677792389 10.1587301618304  C 23.1631677792389 9.53968253348214  23.0036518245282 8.95238094308036  22.7324747099319 8.42857142857143  L 24.4073921923345 8.42857142857143  L 24.5509565487701 8.41269840959822  L 24.8540368599165 8.41269840959822  C 27.1670181611618 8.25396824776786  28.9376452332147 6.36507935267857  28.8738388401145 4.12698412388393  Z " fill-rule="nonzero" fill="#5d5c5c" stroke="none" transform="matrix(1 0 0 1 177 568 )" />
  </g>
</svg>