<?xml version="1.0" encoding="utf-8"?>
<svg version="1.1" xmlns:xlink="http://www.w3.org/1999/xlink" width="22px" height="28px" xmlns="http://www.w3.org/2000/svg">
  <g transform="matrix(1 0 0 1 -345 -554 )">
    <path d="M 0.0873015873015873 26.5  L 0 16.7777777777778  L 0 1.5  C 0.0873015873015873 0.732937847457232  0.575879737287825 0.111111111111111  1.17857142857143 0.111111111111111  L 13.1825396825397 0.111111111111111  C 13.1846550407222 0.111095454267442  13.1867704302034 0.111087625795967  13.1888858241561 0.111087625795967  C 13.7915775154397 0.111087625795967  14.2801556654259 0.732914362142087  14.2801556654259 1.49997651468486  C 14.2801556654259 1.87031798779382  14.1639438262601 2.22532233915851  13.9573412698413 2.48611111111111  L 2.26984126984127 17.3611111111111  L 2.26984126984127 26.5  C 2.26984126984127 27.2670621525428  1.78126311985503 27.8888888888889  1.17857142857143 27.8888888888889  C 0.575879737287825 27.8888888888889  0.0873015873015873 27.2670621525428  0.0873015873015873 26.5  Z M 2.26984126984127 2.88888888888889  L 2.26984126984127 13.4305555555556  L 10.5525793650794 2.88888888888889  L 2.26984126984127 2.88888888888889  Z M 20.8219405987867 12.6111110601501  C 20.8219405987867 13.705793253629  20.4834581302212 14.7565037047713  19.8796626984127 15.5361111111111  C 21.1656393745415 16.8543636293932  21.9133951495487 18.8428811078059  21.9133951495487 20.9444445010607  C 21.9133951495487 24.7797552637745  19.4705043996175 27.8888889455051  16.4570459431995 27.8888889455051  L 5.54365079365079 27.8888888888889  C 4.94095910236719 27.8888888888889  4.45238095238095 27.2670621525428  4.45238095238095 26.5  C 4.45238095238095 25.7329378474572  4.94095910236719 25.1111111111111  5.54365079365079 25.1111111111111  L 13.0515873015873 25.1111111111111  C 13.6542789928709 25.1111111111111  14.1428571428571 24.489284374765  14.1428571428571 23.7222222222222  C 14.1428571428571 22.9551600696795  13.6542789928709 22.3333333333333  13.0515873015873 22.3333333333333  L 5.54365079365079 22.3333333333333  C 4.94095910236719 22.3333333333333  4.45238095238095 21.7115065969872  4.45238095238095 20.9444444444444  C 4.45238095238095 20.1773822919017  4.94095910236719 19.5555555555556  5.54365079365079 19.5555555555556  L 13.0515873015873 19.5555555555556  C 13.0521594983512 19.5555551737044  13.0527316951861 19.5555549827788  13.0533038920287 19.5555549827788  C 14.8613789658795 19.5555549827788  16.3271134158382 21.4210351918172  16.3271134158382 23.7222216494455  C 16.3271134158382 24.19535648217  16.2637972691975 24.6650353359262  16.139880952381 25.1111111111111  L 16.4563492063492 25.1111111111111  C 18.2644242802 25.1111111111111  19.7301587301587 23.2456309020728  19.7301587301587 20.9444444444444  C 19.7301587301587 18.6432579868161  18.2644242802 16.7777777777778  16.4563492063492 16.7777777777778  L 9.90873015873016 16.7777777777778  C 9.30603846744656 16.7777777777778  8.81746031746032 16.1559510414317  8.81746031746032 15.3888888888889  C 8.81746031746032 14.6218267363461  9.30603846744656 14  9.90873015873016 14  L 17.547619047619 14  C 18.1503107389027 14  18.6388888888889 13.3781732636539  18.6388888888889 12.6111111111111  C 18.6388888888889 11.8440489585683  18.1503107389027 11.2222222222222  17.547619047619 11.2222222222222  L 14.2738095238095 11.2222222222222  C 13.6711178325259 11.2222222222222  13.1825396825397 10.6003954858761  13.1825396825397 9.83333333333333  C 13.1825396825397 9.06627118079056  13.6711178325259 8.44444444444444  14.2738095238095 8.44444444444444  L 17.547619047619 8.44444444444444  C 19.356206148828 8.44444439348341  20.8219405987867 10.3099246025218  20.8219405987867 12.6111110601501  Z " fill-rule="nonzero" fill="#5d5c5c" stroke="none" transform="matrix(1 0 0 1 345 554 )" />
  </g>
</svg>